<?xml version="1.0" standalone="no"?>
<!DOCTYPE svg PUBLIC "-//W3C//DTD SVG 20010904//EN"
 "http://www.w3.org/TR/2001/REC-SVG-20010904/DTD/svg10.dtd">
<svg version="1.0" xmlns="http://www.w3.org/2000/svg"
 width="700.000000pt" height="700.000000pt" viewBox="0 0 700.000000 700.000000"
 preserveAspectRatio="xMidYMid meet">
<metadata>
Created by potrace 1.11, written by Peter Selinger 2001-2013
</metadata>
<g transform="translate(0.000000,700.000000) scale(0.100000,-0.100000)"
fill="#000000" stroke="none">
<path d="M671 5899 c-238 -47 -434 -207 -545 -444 -16 -33 -39 -100 -52 -150
l-23 -90 2 -1305 c2 -1212 3 -1309 20 -1365 54 -185 147 -331 290 -451 41 -34
161 -97 217 -113 103 -30 143 -34 345 -33 l191 2 -2 -113 c-2 -117 -11 -288
-18 -322 -2 -11 -7 -42 -10 -70 -11 -81 -36 -226 -50 -287 -7 -32 -12 -58 -10
-58 1 0 19 28 40 62 43 73 193 295 238 353 102 131 173 213 274 317 l115 117
1122 0 c804 0 1141 3 1186 11 127 23 263 98 367 202 56 55 162 207 162 231 0
7 3 17 7 21 5 4 15 28 24 54 l16 47 617 1 618 1 52 -51 c81 -81 136 -145 212
-246 79 -105 174 -247 174 -260 0 -4 6 -12 13 -18 10 -8 8 11 -5 76 -26 122
-38 227 -43 373 l-5 127 138 0 c157 0 224 11 300 50 138 71 236 195 283 361
17 60 19 121 19 962 0 628 -3 913 -11 951 -45 214 -197 381 -392 431 -60 16
-90 16 -1764 17 l-192 0 -17 56 c-39 134 -113 256 -218 359 -84 82 -170 135
-281 173 l-80 27 -1640 2 c-908 0 -1660 -3 -1684 -8z"/>
</g>
</svg>
