<?xml version="1.0" encoding="UTF-8"?>
<!DOCTYPE svg PUBLIC "-//W3C//DTD SVG 1.1//EN" "http://www.w3.org/Graphics/SVG/1.1/DTD/svg11.dtd">
<svg version="1.1" xmlns="http://www.w3.org/2000/svg" xmlns:xlink="http://www.w3.org/1999/xlink" x="0" y="0" width="700" height="700" viewBox="0, 0, 700, 700">
  <g id="Ebene_1">
    <path d="M367.13,44.034 C384.718,44.364 402.283,54.44 414.89,72.712 C428.75,91.882 437.281,119.9 436.52,148.155 C436.479,241.827 436.508,335.491 436.491,429.163 C436.412,442.16 437.16,455.461 434.569,468.086 C427.286,511.498 399.127,545.315 368.76,545.417 C299.438,545.536 230.118,545.434 160.797,545.451 C135.628,576.009 114.97,613.849 97.148,654 C103.197,618.565 106.816,582.063 105.89,545.451 C87.719,544.249 68.748,549.219 51.286,539.499 C29.771,528.339 12.652,500.397 7.151,467.672 C3.784,449.908 5.482,431.365 5.087,413.211 C5.065,324.086 5.087,234.986 5.064,145.877 C5.099,118.587 13.292,91.84 26.568,73.034 C39.153,54.83 56.564,44.585 74.094,44.034 C171.775,44.034 269.455,44.06 367.13,44.034 z M369.13,100.864 Q365.897,100.864 362.844,103.386 Q359.791,105.908 357.187,109.871 Q354.583,113.835 352.787,118.638 Q350.991,123.442 350.093,128.005 Q347.579,140.736 345.872,152.865 Q344.166,164.995 342.729,177.004 L339.856,201.023 Q338.419,213.033 336.444,225.762 Q334.288,239.213 330.786,255.426 Q327.284,271.639 322.704,289.052 Q318.125,306.467 312.647,324.24 Q307.169,342.015 301.153,358.588 Q295.136,375.161 288.761,389.572 Q282.385,403.983 276.099,414.672 Q269.813,425.36 263.617,431.485 Q257.421,437.61 251.854,437.61 Q248.262,437.61 245.478,433.407 Q242.694,429.203 240.629,422.478 Q238.564,415.753 237.037,407.706 Q235.51,399.66 234.612,391.854 Q233.714,384.048 233.265,377.562 Q232.817,371.078 232.816,367.714 Q232.817,359.068 233.086,350.661 Q233.355,342.255 234.163,333.487 Q234.972,324.721 236.408,314.753 Q237.845,304.785 240.18,292.775 Q241.796,284.369 244.4,274.881 Q247.005,265.394 249.878,254.105 L252.392,244.257 Q253.111,241.615 253.47,239.694 Q253.829,237.772 253.829,235.61 Q253.829,226.724 249.07,221.079 Q244.311,215.435 237.306,215.434 Q233.535,215.435 231.2,216.756 Q228.865,218.077 227.249,222.64 Q220.424,248.341 210.546,274.761 Q200.669,301.182 189.175,326.162 Q177.681,351.142 165.558,372.999 Q153.435,394.856 141.941,411.189 Q130.447,427.522 120.569,437.009 Q110.691,446.497 103.866,446.497 Q100.634,446.497 98.479,444.335 Q96.324,442.174 95.066,438.331 Q93.809,434.488 93.27,429.323 Q92.732,424.159 92.731,418.394 Q92.732,409.988 93.63,400.981 Q94.528,391.974 95.695,384.047 Q96.862,376.122 97.94,370.477 Q99.018,364.833 99.376,363.151 Q103.507,342.015 109.255,320.397 Q115.002,298.78 121.736,276.683 Q128.471,254.586 135.655,231.527 Q142.839,208.469 149.843,184.45 Q151.819,173.402 151.818,164.754 Q151.819,156.828 150.292,151.064 Q148.766,145.299 146.161,141.576 Q143.557,137.853 140.055,136.172 Q136.553,134.491 132.602,134.491 Q128.292,134.491 124.61,137.853 Q120.928,141.216 118.773,147.461 Q117.875,153.466 116.977,158.75 Q116.079,164.034 114.822,170.279 Q109.973,195.739 103.148,221.319 Q96.324,246.9 89.319,271.639 Q82.315,296.379 75.939,320.157 Q69.564,343.936 65.613,365.793 Q62.56,382.607 60.584,399.42 Q58.608,416.233 58.608,432.086 Q58.608,445.776 60.494,457.545 Q62.38,469.315 66.69,477.962 Q71.001,486.609 78.094,491.532 Q85.189,496.456 95.785,496.456 Q104.944,496.456 114.463,490.091 Q123.981,483.726 133.051,473.998 Q142.121,464.271 150.202,452.862 Q158.284,441.453 164.75,431.605 Q173.37,418.395 181.721,402.782 Q190.073,387.17 200.13,367.234 Q201.387,389.332 204.171,410.108 Q206.955,430.885 212.253,447.097 Q217.551,463.31 225.902,473.038 Q234.253,482.766 246.645,482.766 Q252.572,482.766 258.948,479.283 Q265.324,475.8 271.519,470.516 Q277.716,465.232 283.103,458.746 Q288.491,452.262 292.442,446.016 Q303.937,428.243 315.341,403.503 Q326.745,378.764 336.892,350.781 Q347.04,322.799 355.301,293.376 Q363.563,263.953 368.591,236.571 Q371.106,223.121 373.62,207.989 Q376.134,192.857 378.2,178.085 Q380.265,163.314 381.612,149.863 Q382.959,136.412 382.959,126.324 Q382.959,112.634 380.085,106.748 Q377.212,100.864 369.13,100.864 z" fill="#000000"/>
    <path d="M647.105,122.829 C659.257,123.214 671.326,130.375 680.049,143.098 C689.252,156.242 694.931,174.936 694.955,194.01 C694.939,256.29 694.955,318.564 694.939,380.856 C694.666,393.544 695.843,406.504 693.509,418.92 C689.696,441.793 677.83,461.322 662.915,469.122 C650.811,475.916 637.661,472.442 625.065,473.282 C624.423,498.871 626.932,524.383 631.125,549.15 C618.771,521.087 604.451,494.64 587.005,473.282 C538.953,473.27 490.901,473.341 442.848,473.258 C421.799,473.187 402.279,449.551 397.23,419.21 C395.434,410.386 395.953,401.089 395.898,392.005 C395.886,326.536 395.906,261.072 395.878,195.602 C395.351,175.854 401.264,156.271 410.872,142.873 C419.611,130.102 431.786,123.06 443.978,122.829 C511.684,122.847 579.395,122.829 647.105,122.829 z M590.193,149.817 Q582.397,149.817 574.217,152.985 Q566.038,156.155 558.089,161.062 Q550.139,165.969 542.572,172.102 Q535.004,178.236 528.431,184.165 Q517.576,193.979 506.646,206.86 Q495.715,219.741 485.625,234.768 Q475.535,249.796 466.898,266.152 Q458.26,282.508 451.839,299.274 Q445.419,316.039 441.75,332.498 Q438.081,348.957 438.08,364.086 Q438.081,378.194 440.985,390.155 Q443.89,402.115 449.088,411.929 Q454.286,421.743 461.547,429.206 Q468.809,436.668 477.523,441.984 Q479.052,443.006 480.962,444.028 Q482.874,445.051 485.702,445.766 Q488.53,446.482 492.657,446.993 Q496.785,447.505 502.747,447.504 Q505.652,447.505 509.55,446.686 Q513.449,445.869 517.5,444.54 Q521.551,443.211 525.297,441.677 Q529.042,440.144 531.641,438.713 L531.488,438.917 Q547.693,430.944 562.981,418.676 Q578.269,406.409 590.958,390.359 Q603.647,374.309 613.049,354.579 Q622.451,334.849 627.037,311.95 Q627.801,307.657 628.107,304.692 Q628.413,301.727 628.413,298.865 Q628.413,292.118 626.807,286.495 Q625.202,280.873 622.144,276.682 Q619.087,272.49 614.806,270.139 Q610.526,267.788 605.022,267.787 Q600.13,267.788 593.327,270.343 Q586.524,272.899 579.645,276.273 Q572.765,279.646 566.956,282.917 Q561.146,286.189 558.395,287.824 Q557.324,287.824 555.643,288.437 Q553.961,289.051 552.279,289.869 Q550.598,290.687 549.222,291.3 Q547.846,291.913 547.387,291.913 Q544.024,292.527 538.826,293.345 Q533.629,294.162 528.813,296.718 Q523.997,299.274 520.481,304.18 Q516.965,309.088 516.965,317.47 Q516.965,321.56 517.882,325.444 Q518.799,329.329 520.634,332.191 Q522.469,335.054 524.991,336.792 Q527.513,338.53 530.724,338.529 Q531.641,338.53 533.246,337.609 Q534.852,336.689 536.61,335.667 Q538.368,334.645 540.049,333.622 Q541.731,332.6 542.801,332.396 Q544.33,331.782 548.763,329.738 Q553.197,327.693 559.159,324.933 L565.293,322.071 C580.291,314.97 573.924,317.955 584.384,313.075 Q590.346,310.314 595.085,308.27 Q599.825,306.225 601.659,305.612 Q601.506,306.225 601.353,307.145 Q601.201,308.065 600.894,308.883 L600.283,310.928 Q593.098,331.782 581.938,351.205 Q570.778,370.629 554.573,384.736 Q549.528,389.03 543.336,394.141 Q537.145,399.253 530.647,403.546 Q524.15,407.84 517.653,410.702 Q511.156,413.565 505.652,413.565 Q500.301,413.565 494.721,410.702 Q489.141,407.84 484.402,403.751 L484.555,403.751 Q475.535,394.142 470.796,384.225 Q466.057,374.309 466.057,360.406 Q466.057,343.436 471.637,324.933 Q477.217,306.43 486.542,288.437 Q495.868,270.446 508.098,253.68 Q520.328,236.915 533.705,223.318 Q547.082,209.722 560.535,200.215 Q573.988,190.708 585.913,187.232 L590.04,187.232 Q593.71,187.232 596.385,190.299 Q599.06,193.366 601.812,196.943 Q604.564,200.522 607.774,203.589 Q610.985,206.656 615.571,206.655 Q617.1,206.656 618.552,206.246 Q620.004,205.838 620.616,203.18 L620.31,203.589 Q621.686,201.34 622.603,197.25 Q623.521,193.161 623.826,191.526 Q624.591,187.437 624.591,183.96 Q624.591,176.192 621.533,169.853 Q618.476,163.515 613.583,159.119 Q608.692,154.724 602.576,152.27 Q596.461,149.817 590.193,149.817 z" fill="#000000"/>
  </g>
</svg>
