<svg xmlns="http://www.w3.org/2000/svg" width="100%" viewBox="0 0 325 150">
  <defs/>
  <defs>
    <linearGradient id="a" x1="108.9" x2="116" y1="572.2" y2="572.2" gradientTransform="rotate(180 124.3 297.8)" gradientUnits="userSpaceOnUse">
      <stop offset="0" stop-color="#57B1E4"/>
      <stop offset="1" stop-color="#C11A83"/>
    </linearGradient>
    <linearGradient id="b" x1="105.4" x2="112.5" y1="553.5" y2="553.5" gradientTransform="rotate(180 124.3 297.8)" gradientUnits="userSpaceOnUse">
      <stop offset="0" stop-color="#57B1E4"/>
      <stop offset="1" stop-color="#C11A83"/>
    </linearGradient>
    <linearGradient id="c" x1="112.7" x2="119.8" y1="537.1" y2="537.1" gradientTransform="rotate(180 124.3 297.8)" gradientUnits="userSpaceOnUse">
      <stop offset="0" stop-color="#57B1E4"/>
      <stop offset="1" stop-color="#C11A83"/>
    </linearGradient>
  </defs>
  <path fill="#B9A2CE" d="M114 15.6c-.4 0-1-.1-1.4-.3-1-.4-1.8-1-2.6-1.6-.9-.6-1.7-1.1-2.7-1.5l.3-.8c1 .4 2 1 2.8 1.7.9.6 1.6 1.1 2.5 1.4 1.5.6 3-.1 4.5-1l1-.4c4-2 8.4-2.1 12.7-2.2l3.3-.1a1380.8 1380.8 0 0042-3c4.6-.4 9.3-.8 14-1v1c-4.6 0-9.4.4-14 .9l-6 .5a1380.5 1380.5 0 01-39.2 2.5c-4.3.1-8.6.2-12.5 2.1l-1 .5c-1 .6-2.3 1.3-3.7 1.3zM108.4 86.1l-7.5-.8-7.5-.8c-16.8-1.4-31.2-2.6-46.3-4.2H47c-1.3-.4-1.2-1.7-1-2.6V77h.8v.6c-.2 1.1-.2 1.6.4 1.8 15.1 1.6 29.4 2.8 46.3 4.1l7.5.9 7.4.8c.2 0 .9-.3 1.3-.6 2-12 3.2-23.7 4.5-36.7.4-4.5.4-9.2.3-13.7V24c0-3-2.4-4.8-4.6-5.8-1.5-.2-2.7-.9-3.8-1.6-.8-.4-1.6-.9-2.5-1.1l.3-.8c1 .3 1.8.8 2.6 1.2a11 11 0 003.6 1.5h.1c3.4 1.5 5.2 3.8 5.2 6.6-.2 3.4-.1 7 0 10.3 0 4.6 0 9.3-.4 13.8-1.3 13-2.5 24.8-4.6 36.8v.2c-.5.5-1.4 1-2 1zM101.4 109.2h-.2l-55.9-5.8c-.7 0-1.2-.7-1.2-1.4V85.8a1.4 1.4 0 011.5-1.4l61.7 4.5a1.5 1.5 0 011.3 2l-5.4 17a2 2 0 01-1.8 1.3zm-56-24s-.2 0-.3.2l-.2.4V102c0 .3.2.5.5.6l55.8 5.7c.6 0 1-.2 1.2-.7l5.4-17V90a.6.6 0 00-.5-.2l-61.8-4.6zM128.8 120.4l-6.6-.9a2099.4 2099.4 0 00-63.5-7.8v-.8a6830.2 6830.2 0 0141.8 4.8l21.8 3 6.6 1-.1.7zM167.3 115.6l-6.8-.1a633.2 633.2 0 01-21.6-1.5.9.9 0 01-.7-1l.2-2.4a.6.6 0 00-1.1-.2l-.4 2.6c0 .5-.5.8-1 .8-2.2-.3-13.8-1.7-23.2-3.6a2 2 0 01-1.7-1.5l-1.6-6.8a6 6 0 01.2-3l2.5-8.2c.2-.7.9-1 1.6-1l27.5 6 .8.7c.2.2.2.6.1 1l-1.4 5.4c-.2.4 0 .9.4 1a.9.9 0 001.2-.5l2-6.7.5.1a49 49 0 006.8 1.6c6.9 1 12.2.4 17-.3 13.8-1.8 20.7-2.7 27.6-4a344.3 344.3 0 0015.2-3.5l1.3-.3.9-.3c.2 0 .4-.3.5-.5l.1-.1c.4-.5 1-1 1.5-1.2a20.2 20.2 0 006.5-4c2.7-2.3 4.6-3.7 6.2-4.8 2.2-1.7 3.7-2.8 5.4-5.2l.5-.6.3.5c1.9 2.5 4.1 4.7 6.7 6.3 3.8 2.5 8 4.5 13.2 6.1l.4.2-.2.4c0 .3-.2.5-.3.8a29.7 29.7 0 01-11.6 12.7c-4.7 2.8-8.7 4-11 4.7h-.1c-9.3 2.7-13.1 4-15.6 5-2.4.7-3.5 1.1-6.9 1.8-7.4 1.6-12.7 2-23.2 2.8-5.2.3-11.4.8-18.7.8zm-28.3-2.4a666 666 0 0021.5 1.4c10.3.4 18.7-.2 25.4-.7 10.5-.7 15.8-1.1 23.2-2.7a43 43 0 006.7-1.9c2.5-.8 6.3-2.2 15.6-4.9 2.5-.7 6.4-1.8 11-4.6a28.5 28.5 0 0011.3-12.4v-.3c-4.9-1.7-9.1-3.7-12.9-6a26.4 26.4 0 01-6.5-6.2 21.5 21.5 0 01-5.5 5 76 76 0 00-6 4.9 21.3 21.3 0 01-6.8 4.1l-1.1.8v.2c-.3.3-.5.6-1 .8-.3.2-.7.3-1 .3l-1.3.3a568.5 568.5 0 01-15.2 3.4c-7 1.4-14 2.3-27.8 4.2a50 50 0 01-23.7-1.2l-1.8 5.9a1.7 1.7 0 01-2.4 1c-.7-.4-1-1.2-.8-2l1.4-5.5v-.3l-.3-.2-27.5-6c-.3 0-.5 0-.6.3l-2.6 8.2c-.2.8-.3 1.7 0 2.6l1.5 6.8c.1.5.5.8 1 1a373.3 373.3 0 0023.3 3.4l.4-2.6a1.4 1.4 0 012.7.4l-.2 2.5v.4-.4z"/>
  <path fill="#B9A2CE" d="M141.9 92.8h-.3L114.8 87c-.8-.2-1.3-1-1.2-1.9a302.4 302.4 0 004.8-62.4c0-.8-.3-1.7-.6-2.6-.2-.7 0-1.5.6-2l1.2-1c.9-.7 1.9-1.2 3-1.5l.6-.1 19.6-1.6c.7 0 1.4.5 1.5 1.2a442.1 442.1 0 011.6 42.3 1279 1279 0 010 17.2c0 1-.3 2.8-.7 3.7-.3.6-.4 1-.4 1.5a55.2 55.2 0 01-.6 4l-1 8a1.2 1.2 0 01-1.3 1zm-18.6-76.5l-.6.1a6 6 0 00-2.5 1.3l-1.3 1a1 1 0 00-.3 1.2l.6 2.7c.2 1 .7 6.2-.1 20.3-.6 10.2-1.2 21.8-3.7 37a292 292 0 01-1 5.4c0 .4.2.8.6.9l26.8 5.7h.3l.2-.3 1.1-8 .2-1.3c.1-.8.3-1.7.3-2.6l.5-1.7c.4-.9.7-2.4.7-3.4a1446.3 1446.3 0 00-.6-43l-1-16.4c0-.3-.4-.5-.7-.5l-19.5 1.6zM146.9 41.8v-.4c0-4.5-.3-9.1-.7-13.6-.3-4.5-.6-9.1-.6-13.7v-.4h.4c13.4-1 28-2 45.9-2.7v.8c-17.7.8-32.2 1.6-45.4 2.7 0 4.4.3 8.9.6 13.2.3 4.4.6 8.9.6 13.3 6.3-.2 12.7-.2 19-.2 9.5 0 19.3-.1 29-.6 4.6-.4 8-3.2 11.1-5.9l2.3-1.8.5.6-2.2 1.8c-3.4 2.9-6.8 5.8-11.7 6.1-9.7.5-19.5.6-29 .6-6.4 0-13 0-19.4.2h-.4zM161.2 95.8a70.7 70.7 0 01-14.3-1.4c-.9-.2-1.4-1-1.3-1.9l1.6-10c.2-.9 1-1.5 2-1.4l56.1 7.3c.3 0 .6.3.6.7 0 .3-.3.6-.6.6l-9.2 1.4-5.1 1c-2.6.4-5.3.9-8 1.2l-8.7 1.3a65.5 65.5 0 01-13.1 1.2zM148.9 82c-.4 0-.8.3-.8.8l-1.7 10c0 .4.2.8.7.8a63.6 63.6 0 0020 1.3c3-.3 4.7-.6 7-1 2.1-.3 4.6-.8 8.8-1.3l8-1.3 5-.9 8.1-1.2-55-7.1z"/>
  <path fill="#B9A2CE" d="M214.1 87.4a3 3 0 01-.4 0l-65.4-9.2c-.8 0-1.4-.7-1.4-1.5V43l43.5-.6c1.8 0 3.5-.2 5.2-.4 2.4-.3 4.3-.5 6.4-1.6.6-.2 1-.5 1.5-.8a1.6 1.6 0 012.3.5 7 7 0 011 2.9c0 1.5.3 3.3.5 5.4l1 7.8a109 109 0 009.5 27.8 1.7 1.7 0 01-.8 2.3l-1.6.7c-.4.2-.8.3-1.3.3zM147.8 44v32.7c0 .4.2.7.6.7l65.5 9.2c.4 0 .8 0 1.2-.2l1.5-.8a.9.9 0 00.4-1.1 110 110 0 01-6.5-15.7c-1.2-3.8-2.3-7.4-3-12.4a248 248 0 01-1-7.7v-.1l-.6-5.4c0-1-.4-1.8-.8-2.5a.8.8 0 00-.5-.4h-.6l-1.6 1a20 20 0 01-6.6 1.6c-1.8.3-3.6.4-5.4.4l-42.6.7zM262.7 102.2c-1-1-2.4-1-3.7-1-1.3.1-2.7.2-4-.7l-.1-.1v-.2c0-.5.4-1.9 1-2.4 1.7-1.7 2.8-3.9 3.9-6l1.3-2.5.7.5-1.3 2.4a24 24 0 01-4 6.2c-.4.3-.7 1.1-.8 1.6 1 .5 2.1.5 3.2.5 1.5 0 3-.1 4.4 1.1l-.6.6z"/>
  <path fill="#B9A2CE" d="M227.1 116v-.5c0-.5 0-1 .6-1.5l.1-.1a106 106 0 018.7-3.6 50 50 0 0016.9-8.8h.2l1.5-.1c2 0 4-.1 6 .8l10.7-5c3-1.4 6-3 9.2-4.3l.3.7-9.2 4.3c-14.3 6.8-29 13.9-44.4 18l-.6.1zm1.1-1.4l-.2.3c11-3 21.7-7.4 32-12.2a13 13 0 00-4.9-.5h-1.3c-5 4.5-11.1 6.7-17 9-2.8 1-5.8 2-8.6 3.4zM225.2 143.1c-.7-2.7-1.6-5.5-2.5-8.1-1-2.7-2-5.5-2.6-8.2v-.4l.3-.1a147.5 147.5 0 0117.8-6.2c7.4-2.5 14.6-5.5 21.5-8.3 6.2-2.7 12.1-5.7 17.8-8.7 5-2.5 10-5.1 15.1-7.4l.3.8c-5 2.2-10.1 4.8-15 7.4a277.1 277.1 0 01-44 18.5 151 151 0 00-12.9 4.5 83 83 0 002.5 7.8c.9 2.7 1.8 5.4 2.5 8.2l-.8.2z"/>
  <path fill="#B9A2CE" d="M225.8 132.7h-.5a3.8 3.8 0 01-3.1-2.5l-.2-.7a30 30 0 00-.5-1.7l.8-.2.5 1.6.2.7a3 3 0 002.3 2c1.7.1 3.4-.6 5-1.2l2-.8a.5.5 0 00.3-.5c0-.3-.3-.4-.5-.3l-6.3 2a1.5 1.5 0 01-1.9-1c-.2-.9.2-1.7 1-2l5-1.5 25.2-10a4.3 4.3 0 002.6-2.7l.4-1.4.8.2-.4 1.4a5.1 5.1 0 01-3 3.3l-25.3 10-5 1.6c-.4 0-.6.4-.5.8 0 .2.2.3.3.4h.5l6.3-2a1.3 1.3 0 01.8 2.5l-2 .7c-1.5.7-3.1 1.3-4.8 1.3z"/>
  <path fill="#B9A2CE" d="M250 123.8l-.3-.8 16-5.2c.3-.1.5-.5.4-.8 0-.2-.2-.4-.4-.5a.7.7 0 00-.5 0l-17.4 6-.3-.8 17.4-6a1.5 1.5 0 111 2.9l-16 5.2zM301.7 120.5c-1.4 0-2.7-.8-3.2-2.2l-4-10.9-8.9 3-2.5 1.3-1.9 1.2a1.4 1.4 0 01-1.5-2.3l1.5-1c1-.7 2-1.2 3.1-1.6l9.2-3.4-2-7.8.8-.2 2.2 8.6-10 3.5c-1 .4-1.9 1-2.8 1.5l-1.5 1.1c-.2.1-.2.2-.3.4 0 .1 0 .3.2.4.1.2.4.3.7.1l1.8-1.2c.9-.5 1.8-1 2.8-1.3l9.6-3.3 4.3 11.7c.5 1.2 1.8 1.9 3 1.5l14.3-4.2.2.8-14.2 4.2-1 .1z"/>
  <path fill="#B9A2CE" d="M302.5 116.3c-.9 0-1.4-.6-1.7-1l-.3-.3v-.1c-1.2-3.3-2.1-6.6-3-9.8-.7-2.7-1.4-5.4-2.3-8l.8-.3c.9 2.6 1.6 5.4 2.3 8a127.6 127.6 0 003.1 10c.4.4.7.7 1 .7 3.3 0 6.4-1.1 9.4-2.2a57 57 0 014.7-1.5l.2.8-4.6 1.5c-3 1.1-6.3 2.2-9.6 2.2zM84.7 83.3l-.3 4.4 6.6.4.3-4zM107 106.3h-.1l-1 2.8 2.1.3z"/>
  <path fill="#01A64F" d="M78.9 111.3h-.4a1.4 1.4 0 01.3-3h.2a1.4 1.4 0 01-.1 3zM132 117.8h-.7a1.4 1.4 0 11.4-2.9h.4a1.4 1.4 0 01-.2 3zm-5.4-.6H126a1.4 1.4 0 11.4-3h.4a1.4 1.4 0 01-.2 3zm-5.3-.7H120.7a1.4 1.4 0 11.4-3l.4.1a1.4 1.4 0 01-.2 3zm-5.3-.6h-.2l-.4-.1a1.4 1.4 0 01.4-2.9h.4a1.4 1.4 0 01-.2 3zm-5.3-.7H110a1.4 1.4 0 11.4-3l.4.1a1.4 1.4 0 01-.2 2.9zm-5.3-.7H104.8a1.4 1.4 0 01.4-2.9h.4a1.4 1.4 0 01-.2 3zm-5.3-.6H99.5a1.4 1.4 0 11.4-3l.4.1a1.4 1.4 0 01-.2 2.9zm-5.3-.7H94.2a1.4 1.4 0 11.3-3l.4.1a1.4 1.4 0 01-.1 3zm-5.3-.6H88.9a1.4 1.4 0 11.3-3h.4a1.4 1.4 0 01-.1 3zm-5.3-.7H83.6a1.4 1.4 0 01.3-3l.4.1a1.4 1.4 0 01-.1 3zM137 118.5h-.4a1.4 1.4 0 01-.4-2.8 1.5 1.5 0 012.3 1.6l-.1.2c-.2.6-.8 1-1.4 1zM138.6 113.8l-.4-.1c-.8-.3-1.2-1.1-1-1.9l.2-.3a1.4 1.4 0 012.7.9v.4c-.3.6-.8 1-1.5 1zm1.6-5h-.4c-.8-.3-1.2-1-1-1.9l.2-.3a1.4 1.4 0 112.7.8v.4c-.3.6-.8 1-1.5 1zm1.5-5h-.4c-.7-.2-1.2-1-1-1.8l.1-.4a1.4 1.4 0 012.8.8v.4c-.3.7-.8 1-1.5 1zm1.4-5a1.5 1.5 0 01-1.4-1.7l.1-.4a1.4 1.4 0 112.8.7v.4c-.3.7-.8 1-1.5 1zm1.3-5h-.3c-.8-.1-1.3-1-1-1.7v-.4a1.4 1.4 0 012.8.7v.4c-.2.6-.8 1-1.5 1zm1-5h-.2c-.8-.1-1.3-.9-1.2-1.7v-.4a1.4 1.4 0 013 .5l-.1.4c-.2.7-.8 1.2-1.5 1.2zm.7-5.1h-.2c-.8-.1-1.4-.8-1.3-1.6v-.4c.1-.8.8-1.4 1.6-1.3.8 0 1.4.7 1.3 1.5v.4c0 .8-.7 1.4-1.4 1.4zm.3-5.2h-.1c-.8 0-1.4-.7-1.4-1.5v-.4a1.4 1.4 0 113 .1l-.1.4c0 .8-.7 1.4-1.4 1.4zm.1-5.2c-.8 0-1.4-.7-1.4-1.5v-.3a1.4 1.4 0 112.9 0v.4c0 .8-.7 1.4-1.5 1.4zm.1-5.1c-.8 0-1.4-.7-1.4-1.5v-.4c0-.8.6-1.4 1.4-1.4.8 0 1.5.6 1.5 1.4v.4c0 .8-.7 1.5-1.5 1.5zm0-5.2c-.8 0-1.4-.7-1.5-1.4v-.4h3v.3c0 .8-.7 1.5-1.5 1.5zM146.5 57.8c-.8 0-1.5-.6-1.5-1.4v-.2a1.4 1.4 0 113-.1v.2c0 .8-.7 1.5-1.5 1.5z"/>
  <path fill="#00A6CF" d="M239.3 121.7c-.7 0-1.3-.4-1.4-1l-.1-.5a1.4 1.4 0 112.7-.7l.2.4a1.4 1.4 0 01-1.4 1.8zm-1.6-5.1c-.6 0-1.2-.4-1.4-1l-.1-.4a1.4 1.4 0 112.7-1l.2.4a1.4 1.4 0 01-1.4 2zm-1.8-5.1c-.6 0-1.2-.3-1.4-1l-.1-.3a1.4 1.4 0 112.7-1l.1.3a1.4 1.4 0 01-1.3 2zm-2.1-5c-.6 0-1.1-.3-1.4-.8l-.1-.4a1.4 1.4 0 112.6-1.2l.2.4a1.4 1.4 0 01-1.3 2zm-2.4-4.8c-.5 0-1-.3-1.3-.8l-.2-.3a1.4 1.4 0 012.6-1.4l.2.4a1.4 1.4 0 01-1.3 2.1zm-2.7-4.7c-.4 0-1-.2-1.2-.7l-.2-.3a1.4 1.4 0 012.5-1.5l.2.3a1.4 1.4 0 01-1.3 2.2zm-2.8-4.5c-.5 0-1-.2-1.2-.6l-.3-.4a1.4 1.4 0 012.4-1.6l.3.3a1.4 1.4 0 01-1.2 2.3zm-15-1.2h-.5a1.4 1.4 0 010-2.9h.4a1.4 1.4 0 010 3zm4.9 0a1.4 1.4 0 010-3h.4a1.4 1.4 0 010 2.9h-.3-.1zm-10.3-.2h-.6a1.4 1.4 0 11.2-2.9h.5a1.4 1.4 0 01-.1 3zm15.7-.3a1.4 1.4 0 01-.2-2.9h.4c.8 0 1.5.5 1.6 1.3 0 .8-.5 1.5-1.3 1.6h-.4-.1zm-21-.2h-.7a1.4 1.4 0 11.4-3l.4.1a1.4 1.4 0 01-.2 3zm-5.4-.8h-.7a1.4 1.4 0 11.5-3l.4.1a1.4 1.4 0 01-.2 3zm-5.3-1h-.7a1.4 1.4 0 11.6-3l.4.2a1.4 1.4 0 01-.3 2.8zm-5.3-1h-.3l-.4-.2a1.4 1.4 0 01.6-2.8h.4a1.4 1.4 0 01-.3 3zm-5.2-1.1h-.3l-.4-.2a1.4 1.4 0 11.6-2.8h.4a1.4 1.4 0 01-.3 3zm-5.3-1.1h-.3l-.4-.1a1.4 1.4 0 11.6-2.8h.4a1.4 1.4 0 01-.3 2.9zm-5.3-1h-.2l-.5-.1a1.4 1.4 0 11.6-2.9l.4.1a1.4 1.4 0 01-.3 2.9zm-5.3-1H162.5a1.4 1.4 0 01.5-3l.4.2a1.4 1.4 0 01-.3 2.8zm-5.3-.9H157.2a1.4 1.4 0 01.4-3l.5.1a1.4 1.4 0 01-.3 3zm-5.3-.8h-.2l-.4-.1a1.4 1.4 0 11.4-2.9h.4a1.4 1.4 0 01-.2 3zm-3.3-2.6c-.8 0-1.5-.6-1.5-1.4v-.4a1.4 1.4 0 012.9-.1v.4c0 .8-.6 1.4-1.4 1.5zm-.2-5.4c-.8 0-1.4-.6-1.5-1.4V72a1.4 1.4 0 113 0v.3c0 .8-.7 1.5-1.5 1.5zm0-5.4c-.8 0-1.5-.6-1.5-1.4v-.4c0-.8.7-1.5 1.5-1.5s1.4.7 1.4 1.5v.4c0 .8-.6 1.4-1.4 1.4zm0-5.4c-.8 0-1.4-.6-1.4-1.4v-.5a1.5 1.5 0 012.9.1v.4c0 .8-.7 1.4-1.5 1.4zm.2-5.3c-.8 0-1.5-.8-1.4-1.6v-.4a1.4 1.4 0 012.9.2v.4c0 .8-.7 1.4-1.5 1.4z"/>
  <path fill="#C11A83" d="M134 18.7c-.3-.3-.7-.5-1.2-.5H126c-.4 0-.8.2-1 .5a2 2 0 00-.6 1.3v5.7c.2.5.6 1 1 1.2.5.2 1 .1 1.4.1 0 .7 0 1.3-.2 2 .4-.8.9-1.4 1.5-2h4.9c.7 0 1.4-.6 1.5-1.3V25v-5c0-.5-.1-1-.4-1.3z"/>
  <path fill="url(#a)" d="M133 20c.2-.3.5-.4.8-.4h4.8c.3 0 .5.1.8.3.2.3.3.6.3 1V24.7c-.1.4-.4.7-.8.9-.2.1-.6 0-.8 0l.1 1.4c-.3-.5-.6-1-1-1.3h-3.4c-.5 0-1-.5-1.1-1v-.5V21c0-.4 0-.7.3-1z"/>
  <path fill="#010101" d="M132.9 19.2h.2l.1.4v.4a10 10 0 01-.3 1.6 9 9 0 01-.8 2 10.5 10.5 0 01-1 1.7 2.3 2.3 0 01-.8.6.8.8 0 01-.8-.2l-.3-.4a3 3 0 01-.2-.7l-.1-.7a28 28 0 01-1.2 1.5 4 4 0 01-.8.6 1 1 0 01-.9 0 .7.7 0 01-.2-.2 1 1 0 01-.2-.3V25v-.6a7.3 7.3 0 01.4-1.3 49.6 49.6 0 011.5-3.3l.1.1.1.2V20.7a38.7 38.7 0 01-1.2 3.1 20.2 20.2 0 00-.1 1V25l.1.1h.5l.5-.5a7.4 7.4 0 001.1-1.5 12 12 0 001-2h.2l.3.1V22a15.8 15.8 0 01-.3.7 7.2 7.2 0 00-.1 1 7.4 7.4 0 000 .7 3 3 0 00.2.6v.1l.2.1h.3l.3-.4.3-.4a7.7 7.7 0 00.8-1.8 11.8 11.8 0 00.4-1.5v-.5a17.3 17.3 0 01.3-1l.1-.2h.1l.2-.1z"/>
  <path fill="#FFF" d="M125.7 23.9c0-.3.2-.6.3-.8a49.6 49.6 0 011.5-3.3l.1.1.1.2V20.7a38.7 38.7 0 01-1.2 3.1 20.2 20.2 0 00-.1 1V25l.1.1h.5l.5-.5a7.5 7.5 0 001.1-1.5 12 12 0 001-2h.2l.3.1V22a14.2 14.2 0 01-.3.7 7.2 7.2 0 00-.1 1 7.4 7.4 0 000 .7 3 3 0 00.2.6v.1l.2.1h.3l.3-.4.3-.4a7.7 7.7 0 00.8-1.8 10.6 10.6 0 00.4-1.5v-.5a17.3 17.3 0 01.3-1l.1-.2h.1l.2-.1h.2l.1.4v.4a10 10 0 01-.3 1.6 9 9 0 01-.8 2 10.5 10.5 0 01-1 1.7 2.3 2.3 0 01-.8.6.8.8 0 01-.8-.2l-.3-.4a3 3 0 01-.2-.7l-.1-.7a28 28 0 01-1.2 1.5 4 4 0 01-.8.6 1 1 0 01-.9 0 .7.7 0 01-.2-.2 1 1 0 01-.2-.3V25v-.6l.1-.5z"/>
  <path fill="#010101" d="M137.2 20a1 1 0 01.6.2l.2.2v.6h-.4v-.1l-.2-.1h-.2l-.7.1a4.8 4.8 0 00-1.2 1 4.7 4.7 0 00-.9 1.2l-.1.7.1.4.3.3.3.1.2.1h.3a2.5 2.5 0 00.6-.3l.3-.2.6-.6.5-.7a.3.3 0 000-.1h-.2l-.2.1-.3.1-.3.1-.2.1h-.2l-.1.1H135.7a.3.3 0 01-.2-.2V23v-.2l.3-.2h.5a.8.8 0 01.2-.1l.2-.1a8 8 0 01.6-.2h.7v.3a.6.6 0 01.1.3v.1c0 .3-.2.5-.3.8l-.6.6a3.8 3.8 0 01-1.4.8 1.7 1.7 0 01-.3.1 2.2 2.2 0 01-.3.1 2.6 2.6 0 01-.4 0 .6.6 0 01-.2-.1l-.4-.2a1.4 1.4 0 01-.5-.7v-.5-.5l.3-.6a4.8 4.8 0 01.8-1.2 6.2 6.2 0 011.7-1.3h.4l.3-.1z"/>
  <path fill="#FFF" d="M137.5 22.8h-.2l-.2.1-.3.1-.3.1-.2.1a3.6 3.6 0 01-.3.1H135.7a.3.3 0 01-.2-.2V23v-.2l.3-.2h.5l.1-.1.3-.1a8 8 0 01.6-.2h.7v.3l.1.2v.2c0 .3-.2.5-.3.8a3.3 3.3 0 01-1.2 1c-.3.2-.5.4-.8.4a1.7 1.7 0 01-.3.1 2.2 2.2 0 01-.3.1 2.6 2.6 0 01-.4 0 .6.6 0 01-.2-.1l-.4-.2a1.4 1.4 0 01-.5-.7v-.5-.5l.3-.6a4.8 4.8 0 01.8-1.2 6.2 6.2 0 011.7-1.3h.4l.3-.2a1 1 0 01.6.2l.2.2v.6h-.4v-.1l-.2-.1h-.2l-.7.1a4.7 4.7 0 00-1.2 1l-.5.6-.4.6-.1.7.1.4.3.3.3.1.2.1h.3a2.5 2.5 0 00.6-.3l.3-.2.6-.6.5-.7v-.1z"/>
  <g fill="#535454">
    <path d="M125 29.8v-.1h.4v.2a7 7 0 01.3.5 5 5 0 00.2.6v.1h.1a1.5 1.5 0 01.1-.3 4.3 4.3 0 00.1-.4l.1-.4.1-.2a3.7 3.7 0 000-.3v-.1h.2V29.7a3 3 0 010 .5v.1l-.1.1v.2l-.1.1v.2l-.2.2a1.8 1.8 0 010 .2l-.1.1h-.2l-.2-.3a3 3 0 01-.3-.7l-.1-.3a.9.9 0 000-.1h-.1a2.7 2.7 0 000 .2 9.7 9.7 0 01-.2.4v.4l-.1.1v.2h-.1v.1h-.1-.1V31l.4-1.3zM126.9 30.8a2.6 2.6 0 01.1-.4v-.2l.1-.2a1 1 0 000-.2l.1-.1.1-.1h.1v.1a.5.5 0 010 .2v.1a92.6 92.6 0 00-.2 1.1l.1.1h.2a1 1 0 00.4-.3 1.7 1.7 0 00.3-.5 2.6 2.6 0 00.2-.5v-.1-.1-.1-.1h.1l.1.1v.4a3.6 3.6 0 01-.3.6 2 2 0 01-.5.7 1.3 1.3 0 01-.3.1h-.2-.2-.1l-.1-.2a.6.6 0 010-.3v-.1zm.7-1.7V29a.4.4 0 01.1 0h.1v.2h-.2zm.5 0V29a.4.4 0 01.2 0h.1v.1a.2.2 0 01-.1.1h-.1-.1zM128.7 31.3a30.4 30.4 0 01.3-1.3.6.6 0 000-.3.3.3 0 010-.2H129.4a.6.6 0 00.1 0h.2a1.7 1.7 0 01.3 0h.2l.1.1v.1a.3.3 0 010 .3v.2a1.2 1.2 0 01-.3.2h-.1-.1l-.1.1a2 2 0 01.2.1l.2.2.1.2a2.7 2.7 0 01.1.3.2.2 0 010 .1h-.1l-.1-.1-.1-.1a1 1 0 00-.3-.4l-.1-.1h-.2-.1l-.1-.1-.1.4a2.4 2.4 0 010 .3h-.1v.1h-.1-.1v-.1zm.6-1.5a7.6 7.6 0 00-.1.4v.2l-.1.1.2-.1a2 2 0 00.3-.1 2.7 2.7 0 00.3-.2l.1-.1v-.1-.1h-.2a1.6 1.6 0 00-.3 0h-.2zM131 29.8v-.1H131.3v.2a7 7 0 01.2.5 5 5 0 00.3.6v.1h.1a1.5 1.5 0 010-.3 4.3 4.3 0 00.2-.4l.1-.4a5.2 5.2 0 00.1-.5 1.3 1.3 0 010-.1h.2V29.7a3 3 0 010 .5v.1l-.1.1v.2l-.1.1a16.3 16.3 0 01-.4.7h-.1l-.3-.3a3 3 0 01-.2-.7l-.1-.3V30h-.1v.1a4.6 4.6 0 01-.2.5V30.9l-.1.1v.2a2.4 2.4 0 01-.1.2h-.1-.1V31l.4-1.3zM134 30.8v.2l-.3.2a1.6 1.6 0 01-.3.2 1.9 1.9 0 01-.3 0h-.1-.2-.1-.1v-.2a9.5 9.5 0 00.2-.6v-.2l.1-.2V30a7.2 7.2 0 010-.1l.1-.1.1-.1H133.5a3 3 0 01.4-.1 1 1 0 01.2 0h.2v.4l-.2.2-.3.1-.3.2h.2l.2.1.1.1v.1zm-.5 0v-.1h-.1-.1-.2l-.1.2-.1.3h.1a1 1 0 00.3 0 1.4 1.4 0 00.3-.2h.1v-.1-.1h-.2zm-.4-.4a3 3 0 00.5-.2h.2a.4.4 0 00.1-.2v-.1-.1h-.1-.2a1.3 1.3 0 00-.3.1v.1a.8.8 0 01-.1.1V30.5zM134.3 31.3v-.4l.2-.4v-.3l.1-.2a4.6 4.6 0 01.1-.2v-.2h.5a3.5 3.5 0 01.6 0h.1v.1h-.1-.1-.1-.1l-.1.1h-.2l-.1.1h-.2a.4.4 0 000 .3h-.1v.2a1 1 0 000 .1 2.6 2.6 0 00.3 0l.2-.1h.2v-.1h.1v.1a.3.3 0 01-.1.1 9.5 9.5 0 01-.3 0l-.2.2h-.1a.8.8 0 01-.2 0v.1h-.1a2 2 0 000 .3v.1h.1a1.2 1.2 0 00.4 0V31h.4v.1h-.1l-.1.1a2.4 2.4 0 01-.6.3h-.4v-.2zM136 31.3a24.6 24.6 0 01.2-1.3.9.9 0 000-.2.3.3 0 010-.2l.1-.1H137a1.7 1.7 0 01.3 0h.2v.1l.1.1V30l-.1.2a1.2 1.2 0 01-.3.2h-.1-.1v.1a1.6 1.6 0 01.1.1.8.8 0 01.2.2l.1.2a2.7 2.7 0 01.2.3l-.1.1h-.2v-.1a3.3 3.3 0 01-.1-.3l-.1-.1-.2-.1-.1-.1h-.1H136.2v-.1.4a2.4 2.4 0 01-.2.3v.1h-.1-.1v-.1zm.6-1.5l-.1.2v.2l-.1.2v.1l.1-.1a1.7 1.7 0 00.3-.1 2.8 2.8 0 00.3-.2l.1-.1v-.1-.1h-.2a1.5 1.5 0 00-.3 0h-.1zM139.2 30.5h-.2l-.2.1h-.1-.1v.1h-.1v-.1-.1h.2v-.1h.1a2 2 0 01.3-.1H139.4a.2.2 0 010 .2l-.1.3a1.2 1.2 0 01-.4.4l-.3.1h-.1-.1v.1h-.1-.1a.6.6 0 01-.3-.2.5.5 0 01-.1-.3v-.2l.1-.3a1.7 1.7 0 01.3-.4 2 2 0 01.4-.3 1.3 1.3 0 01.4-.2h.2l.2.1a.2.2 0 010 .2h-.2-.4a1.6 1.6 0 00-.4.4 1.7 1.7 0 00-.3.4v.5h.4a.9.9 0 00.2 0V31c.2 0 .3-.1.3-.2l.2-.3z"/>
  </g>
  <path fill="#C11A83" d="M137.4 37.3c-.3-.3-.7-.5-1.1-.5h-7c-.3 0-.7.2-1 .5a2 2 0 00-.5 1.3v5.7c.1.6.5 1 1 1.2.5.2 1 .1 1.3.1 0 .7 0 1.3-.2 2l1.5-2h5c.7 0 1.3-.6 1.5-1.3v-.7-5c0-.5-.1-1-.5-1.3z"/>
  <path fill="url(#b)" d="M136.5 38.5c.2-.2.5-.3.7-.3h4.8c.3 0 .6.1.8.4.2.2.4.5.4.8v4c-.2.4-.4.8-.8.9h-.9c0 .5 0 1 .2 1.4l-1-1.3h-3.5c-.5 0-1-.4-1-1V43v-3.4c-.1-.4 0-.7.3-1z"/>
  <path fill="#010101" d="M136.3 37.8l.3.1v.8a10 10 0 01-.3 1.5 8.8 8.8 0 01-.7 2 10.6 10.6 0 01-1 1.7 2.4 2.4 0 01-.6.4l-.3.2a.8.8 0 01-.7-.1l-.4-.5a3 3 0 01-.1-.6l-.1-.8a25 25 0 01-1.2 1.5 4 4 0 01-.9.7 1 1 0 01-.8 0 .7.7 0 01-.3-.2 1 1 0 01-.1-.4v-.5-.5a7.3 7.3 0 01.3-1.4 59.9 59.9 0 011.5-3.3l.2.1v.2l.1.2v.4a36.7 36.7 0 01-1 2.4l-.2.7v.2a5.1 5.1 0 00-.2.8v.4h.2v.1c.2 0 .3 0 .5-.2l.5-.4a7.6 7.6 0 001.1-1.5 11.6 11.6 0 001-2h.1l.3.1a.3.3 0 01.1.4v.2a22 22 0 01-.4 1 4.9 4.9 0 000 1.2 3.6 3.6 0 00.1.8l.1.2h.5l.3-.4.3-.4a7.5 7.5 0 00.5-1.2 11.7 11.7 0 00.7-2.1V39a13 13 0 01.3-1V38l.2-.1h.1z"/>
  <path fill="#FFF" d="M129.2 42.5l.2-.8a59.9 59.9 0 011.5-3.3l.2.1v.2l.1.2v.4a36.7 36.7 0 01-1 2.4l-.2.7v.2a5.1 5.1 0 00-.2.8v.4h.2v.1c.2 0 .3 0 .5-.2l.5-.4a7.6 7.6 0 001.1-1.5 11.6 11.6 0 001-2h.1l.3.1a.3.3 0 01.1.4v.2a22 22 0 01-.4 1 4.9 4.9 0 000 1.2 3.6 3.6 0 00.1.8l.1.2h.5l.3-.4.3-.4a7.5 7.5 0 00.5-1.2 11.7 11.7 0 00.7-2.1V39a13 13 0 01.3-1V38l.2-.1h.4v.8a10 10 0 01-.3 1.5 9 9 0 01-.7 2 10.4 10.4 0 01-1 1.7 2.3 2.3 0 01-.9.6.8.8 0 01-.7-.1l-.4-.5a3 3 0 01-.1-.6l-.1-.8a28 28 0 01-1.2 1.5 4 4 0 01-.9.7 1 1 0 01-.8 0 .7.7 0 01-.3-.2 1 1 0 01-.1-.4v-.5-.5-.6z"/>
  <path fill="#010101" d="M140.7 38.7a1 1 0 01.5.1l.2.2.1.3v.2l-.1.1h-.1-.2l-.1-.1-.2-.1h-.2c-.2 0-.4 0-.6.2a4.7 4.7 0 00-1.2.9 4.8 4.8 0 00-.9 1.3l-.1.6v.4l.4.3.2.2h.6a2.4 2.4 0 00.6-.3l.3-.2.6-.6.4-.7a4.2 4.2 0 00-.3 0 23.3 23.3 0 00-.6.3h-.3a7.3 7.3 0 01-.2.1 23.9 23.9 0 01-.3 0 .3.3 0 01-.2-.1v-.2-.2l.2-.1.3-.1H139.8a.8.8 0 01.1-.1h.2a8 8 0 01.7-.3h.5a.5.5 0 01.3.5v.2l-.4.8a3.3 3.3 0 01-1.2 1.1l-.7.4h-.1a3.7 3.7 0 01-.6.1 2.6 2.6 0 01-.4 0 .6.6 0 01-.2 0l-.3-.3a1.4 1.4 0 01-.6-1.2V42l.3-.6a4.8 4.8 0 01.8-1.1 6.2 6.2 0 011.7-1.3l.4-.2h.4z"/>
  <path fill="#FFF" d="M141 41.4a2.8 2.8 0 00-.4.1l-.3.2h-.3l-.3.1a7.3 7.3 0 01-.2.1 2.4 2.4 0 01-.2.1h-.1a.3.3 0 01-.2-.2v-.2-.2l.2-.1.3-.1H139.8l.1-.1h.2a8 8 0 01.7-.3h.5a.5.5 0 01.3.5v.2l-.4.8a3.4 3.4 0 01-1.2 1.1l-.7.4h-.1a3.7 3.7 0 01-.6.1 2.6 2.6 0 01-.4 0h-.2l-.3-.3a1.4 1.4 0 01-.5-.7l-.1-.5V42l.3-.6a4.7 4.7 0 01.8-1.1 6.2 6.2 0 011.7-1.3l.4-.2h.4a1 1 0 01.5.1l.2.2.1.3v.2l-.1.1a.3.3 0 01-.3 0l-.1-.1-.2-.1h-.2c-.2 0-.4 0-.6.2a4.7 4.7 0 00-1.2.9l-.6.6-.3.7-.1.6v.4l.4.3.2.2h.6a2.5 2.5 0 00.6-.3l.3-.2.6-.6.4-.7z"/>
  <g fill="#535454">
    <path d="M128.5 48.4v-.1H128.8v.1l.2.2a11.3 11.3 0 01.2.7l.1.3a.5.5 0 00.2.2v-.1a4.4 4.4 0 00.3-1v-.2a2.9 2.9 0 00.1-.3V48a.5.5 0 010-.1h.2v.2a3 3 0 010 .4v.2l-.1.1V49.2l-.2.2v.2a7.2 7.2 0 01-.2.4h-.2c-.2 0-.2-.2-.3-.3a3.1 3.1 0 01-.2-.7l-.1-.3v-.1h-.1a1 1 0 000 .1l-.1.2V49.2l-.1.2v.1l-.1.1a1.8 1.8 0 000 .2l-.1.1v.2h-.2V50v-.2l.4-1.4zM130.3 49.4a2.3 2.3 0 01.2-.4v-.2-.2h.1v-.2a.7.7 0 010-.1H131a.5.5 0 010 .2v.1a92.6 92.6 0 00-.3 1.1v.1h.4l.2-.1.2-.2a1.8 1.8 0 00.2-.4 2.6 2.6 0 00.2-.7 12.3 12.3 0 000-.3h.2a.4.4 0 010 .2V48.6a3.5 3.5 0 01-.2.6 2.3 2.3 0 01-.4.6 2 2 0 01-.3.2H130.8h-.2-.2v-.2-.2a.8.8 0 010-.2zm.7-1.7l.1-.1a.4.4 0 01.1 0h.1v.2h-.2zm.6 0v-.1a.4.4 0 01.1 0h.1v.2h-.2zM132.1 49.9a24.6 24.6 0 01.3-1.2v-.2a.9.9 0 000-.1.3.3 0 01.2-.3h.1a1 1 0 01.1 0h.1a.9.9 0 00.1 0 1.7 1.7 0 01.4 0h.2v.1l.1.1a.3.3 0 010 .2v.1l-.1.2a1.2 1.2 0 01-.3.2 3.7 3.7 0 01-.2.1.8.8 0 01.3.3 2 2 0 01.3.5l-.1.1h-.1a3.3 3.3 0 01-.2-.3 1.2 1.2 0 00-.2-.3h-.2l-.1-.1h-.1-.1v-.1l-.2.4a1.4 1.4 0 000 .1 3.3 3.3 0 000 .2l-.1.1h-.2v-.1zm.7-1.5v.2l-.1.1v.2l-.1.1v.1h.2a2 2 0 00.2-.2 2.8 2.8 0 00.4-.2v-.1l.1-.1v-.1h-.1-.1a1.6 1.6 0 00-.3 0h-.2zM134.4 48.4v-.1H134.8v.1l.1.2a11.3 11.3 0 01.3.7 3 3 0 00.2.5v-.1a4.4 4.4 0 00.4-1v-.2a2.9 2.9 0 000-.3V48a.5.5 0 01.1-.1h.2v.8a4.5 4.5 0 01-.2.2v.4l-.1.2a7.2 7.2 0 01-.2.4h-.2-.1l-.2-.3a3.1 3.1 0 01-.3-.7v-.3a.9.9 0 000-.1h-.1a1 1 0 000 .1l-.1.2v.1l-.1.2v.2l-.1.1v.1a1.8 1.8 0 00-.1.2v.1l-.1.2h-.1V50v-.2l.4-1.4zM137.4 49.4v.2l-.2.2a2.2 2.2 0 01-.6.3h-.2H136V50v-.1-.2-.2l.2-.3V49l.1-.2V48.5a1.3 1.3 0 010-.1H136.8v-.1h.2a1.6 1.6 0 01.4-.1h.2l.2.1V48.6l-.2.2-.3.2a5 5 0 01-.4 0l.3.1.2.1.1.1v.1zm-.4 0a1.2 1.2 0 00-.1-.1h-.1-.1-.1l-.2.3v.2h.1a1 1 0 00.3 0 1.5 1.5 0 00.3-.2v-.1-.1h-.1zm-.4-.4a3 3 0 00.5-.2h.1a.4.4 0 00.2-.2v-.1h-.2-.1a1.4 1.4 0 00-.3 0v.1h-.1v.2l-.1.1v.1zM137.7 50v-.2l.1-.3a6.7 6.7 0 00.3-1 1.7 1.7 0 01.2-.2v-.1h.4a3.5 3.5 0 01.5 0h.2v.1H139l-.1.1a1.6 1.6 0 01-.2 0h-.1l-.1.1a.3.3 0 00-.3.2v.4h-.1.4a17 17 0 01.5-.1.3.3 0 01-.2.1 3.6 3.6 0 00-.2.1h-.2l-.2.1v.1h-.1-.1v.2a1.6 1.6 0 00-.1.2h.2a1.4 1.4 0 00.3 0l.1-.1h.2a.3.3 0 010-.1h.1v.2a1 1 0 01-.3.1h-.1l-.1.1a1.6 1.6 0 01-.5.1h-.1v-.2zM139.4 49.9a30.4 30.4 0 01.3-1.3v-.1a.6.6 0 000-.2.3.3 0 010-.2h.2a1 1 0 01.2 0 .8.8 0 00.1 0h.1a1.7 1.7 0 01.3 0h.2l.1.1a.3.3 0 010 .2v.4a1.2 1.2 0 01-.3.2h-.2l-.1.1a.8.8 0 01.4.3 2 2 0 01.2.5v.1H140.5v-.2-.1l-.2-.2a.8.8 0 00-.2-.2h-.2-.1l-.1-.1-.1.4a2.4 2.4 0 010 .2h-.1v.2h-.1-.1v-.1zm.6-1.5V48.8l-.1.2v.1l-.1.1h.2a2 2 0 00.3-.2 3.1 3.1 0 00.3-.2l.1-.1v-.1-.1h-.2a1.6 1.6 0 00-.3 0h-.2zM142.7 49.1h-.1-.1-.1l-.1.1h-.1l-.1.1h-.1v-.1-.1h.2V49a4.2 4.2 0 01.5-.1h.1a.2.2 0 010 .2v.3a1.2 1.2 0 01-.5.4l-.3.2h-.1-.1a1 1 0 01-.1 0h-.1l-.2-.1a.5.5 0 01-.1-.3v-.1-.2-.2a1.7 1.7 0 01.4-.5 2.2 2.2 0 01.6-.4h.1l.2-.1a.4.4 0 01.2 0V48.5h-.5a1.8 1.8 0 00-.5.4l-.1.2-.2.2v.4l.1.1h.1l.1.1h.1a.9.9 0 00.2-.1h.1l.3-.3.1-.3z"/>
  </g>
  <path fill="#C11A83" d="M130.2 53.8c-.3-.3-.8-.5-1.2-.5h-6.9c-.4 0-.8.2-1.1.5-.3.3-.5.8-.5 1.3v5.7c.2.5.6 1 1 1.2.5.2 1 .1 1.4.1l-.2 2c.4-.8.9-1.4 1.5-2h4.9c.7 0 1.3-.6 1.5-1.3V60v-5c0-.5-.1-1-.4-1.3z"/>
  <path fill="url(#c)" d="M129.2 55c.2-.2.5-.3.8-.3h4.8c.2 0 .5.1.7.3.3.3.4.6.4 1V59.8c-.1.4-.4.7-.8.9h-.9c0 .5 0 1 .2 1.4-.3-.5-.6-1-1-1.3h-3.5c-.5 0-1-.5-1-1v-.5V56c0-.4 0-.7.3-1z"/>
  <path fill="#010101" d="M129 54.3h.3l.1.4v.5a9 9 0 01-.3 1.5 8.9 8.9 0 01-.8 2 10.2 10.2 0 01-1 1.7 2.3 2.3 0 01-.8.6h-.3l-.5-.1-.3-.5a3 3 0 01-.2-.7l-.1-.7a30.9 30.9 0 01-1.2 1.5 4 4 0 01-.8.7 1 1 0 01-.9 0 .7.7 0 01-.3-.3 1 1 0 01-.1-.3V60v-.5a7.3 7.3 0 01.4-1.4 49.6 49.6 0 011-2.9v-.2l.1-.2h.4l.1.1.1.2V55.8a38.6 38.6 0 01-1.2 3.1 24.4 24.4 0 01-.1 1v.4H123.3l.5-.5a7.7 7.7 0 001.1-1.5 12.5 12.5 0 001-2h.2l.2.1.2.3v.1l-.1.2a17.4 17.4 0 01-.4 1 5.6 5.6 0 000 1.2 4.4 4.4 0 00.1.8l.2.2h.4c0-.2.2-.3.3-.4l.3-.4a8 8 0 00.8-1.8 11.2 11.2 0 00.6-2.8v-.2a.7.7 0 01.3-.3h.2z"/>
  <path fill="#FFF" d="M122 59c0-.3 0-.6.2-.8a46.7 46.7 0 011-2.9v-.2l.1-.2h.4l.1.1.1.2V55.8a36.7 36.7 0 01-1 2.4l-.2.7v.1a4 4 0 00-.1 1V60.4H123.3l.5-.5a7.6 7.6 0 001.1-1.5 12.5 12.5 0 001-2h.2l.2.1.2.3v.1l-.1.2a15.8 15.8 0 01-.3.7 7 7 0 00-.1 1 7.4 7.4 0 000 .7 2.9 2.9 0 00.1.6l.2.2h.4c0-.2.2-.3.3-.4a4.2 4.2 0 00.6-1 11 11 0 00.9-2.7v-.5a16.5 16.5 0 01.3-1v-.2h.2l.2-.1h.2l.1.4v.5a9 9 0 01-.3 1.5 9 9 0 01-.8 2 10.5 10.5 0 01-1 1.7 2.4 2.4 0 01-.5.4l-.3.2h-.3l-.5-.1-.3-.5a3 3 0 01-.2-.7l-.1-.7a28 28 0 01-1.2 1.5 4 4 0 01-.8.7 1 1 0 01-.9 0 .7.7 0 01-.3-.3 1 1 0 01-.1-.3V60v-.5l.1-.6z"/>
  <path fill="#010101" d="M133.4 55.2a1 1 0 01.6.1l.2.2v.6h-.4l-.1-.1-.1-.1h-.2l-.7.1a4.6 4.6 0 00-1.2 1 4.7 4.7 0 00-.9 1.2l-.1.7.1.4.3.3.3.2h.5a2.3 2.3 0 00.6-.3l.3-.2.6-.6.5-.7v-.1h-.2l-.2.1-.3.1-.3.1-.3.1a3.8 3.8 0 01-.2 0v.1H131.9a.3.3 0 01-.2-.2v-.3l.3-.2h.5a.8.8 0 01.2-.1 21.7 21.7 0 011-.4h.3a.5.5 0 01.3.4v.4c0 .3-.2.5-.3.8a3.3 3.3 0 01-1.2 1c-.3.2-.5.4-.8.4a1.7 1.7 0 01-.3.1 2.7 2.7 0 01-.3.1 2.7 2.7 0 01-.4 0 .6.6 0 01-.2-.1 2 2 0 01-.4-.2 1.4 1.4 0 01-.6-1.2l.1-.5.3-.6a4.8 4.8 0 01.8-1.1 5.9 5.9 0 011.7-1.4h.3l.4-.1z"/>
  <path fill="#FFF" d="M133.7 57.9h-.2l-.2.1-.3.1-.3.1-.3.1h-.1l-.1.1H131.9a.3.3 0 01-.2-.2v-.3l.3-.2h.5a.8.8 0 01.2-.1 21.7 21.7 0 011-.4h.3l.2.2v.2a.6.6 0 01.1.3v.1c0 .3-.2.5-.3.8a3.3 3.3 0 01-1.2 1c-.3.2-.5.4-.8.4a1.7 1.7 0 01-.3.1 2.7 2.7 0 01-.3.1 2.7 2.7 0 01-.4 0 .6.6 0 01-.2-.1 2 2 0 01-.4-.2 1.4 1.4 0 01-.6-1.2l.1-.5.3-.6a4.8 4.8 0 01.8-1.2 6.2 6.2 0 011.7-1.3h.3l.4-.1a1 1 0 01.6.1l.2.2v.6h-.4l-.1-.1-.1-.1h-.2l-.7.1a4.6 4.6 0 00-1.2 1 4.7 4.7 0 00-.9 1.2l-.1.7.1.4.3.3.3.2h.5a2.5 2.5 0 00.6-.3l.3-.2.6-.6.5-.7v-.1z"/>
  <g fill="#535454">
    <path d="M121.2 65a.8.8 0 010-.2h.4v.2a7.2 7.2 0 01.2.5 5 5 0 00.3.6.5.5 0 000 .2h.1a1.1 1.1 0 010-.2 5.9 5.9 0 00.4-1.5v-.1h.2v.2a3 3 0 010 .6v.1l-.1.1v.2l-.1.1v.2a32.7 32.7 0 01-.4.5h-.1l-.3-.3a3 3 0 01-.2-.7l-.1-.3V65h-.1V65.4a15.6 15.6 0 01-.2.3v.1a6.3 6.3 0 01-.1.3V66.4h-.1v.1h-.1-.1V66.1l.4-1.3zM123 65.9l.1-.3.1-.1v-.2l.1-.2V65a2 2 0 010-.2h.1v-.1h.2v.1a.5.5 0 010 .2v.1a24.5 24.5 0 00-.3 1v.1h.1l.1.1h.2l.2-.2.2-.1a1.6 1.6 0 00.3-.5 3.1 3.1 0 00.1-.5 2.4 2.4 0 000-.2v-.1-.1h.2v.1l.1.1V65.1a3.5 3.5 0 01-.3.6 2.2 2.2 0 01-.4.5 2 2 0 01-.3.3h-.1-.2-.2-.1l-.1-.2a.6.6 0 010-.3v-.1zm.8-1.7V64a.4.4 0 01.1 0h.1v.2h-.1-.1zm.5 0V64a.4.4 0 01.2 0h.1v.1a.2.2 0 01-.1.2h-.1l-.1-.1zM124.9 66.4a30.3 30.3 0 01.3-1.4.6.6 0 000-.2.3.3 0 010-.2h.2a1.5 1.5 0 01.2 0h.2a1.7 1.7 0 01.3 0h.2l.1.1a.3.3 0 010 .2v.4a1.2 1.2 0 01-.4.2h-.2v.1a.7.7 0 01.3.2 1.2 1.2 0 01.2.3l.1.2a.2.2 0 010 .1v.1h-.1-.1v-.1l-.1-.1V66l-.2-.1a.8.8 0 00-.2-.2H125.4h-.1v-.1l-.1.4v.2h-.1v.2h-.1-.1v-.1zm.6-1.5V65.2l-.1.1v.2l-.1.1.2-.1a1.5 1.5 0 00.3-.1 3.1 3.1 0 00.3-.2V65l.1-.1v-.1h-.2a1.2 1.2 0 00-.3 0h-.2zM127.1 65a.8.8 0 010-.2h.4v.2a11.3 11.3 0 01.3.8l.2.3a.5.5 0 000 .2v-.1h.1V66a5.9 5.9 0 00.3-1 4.4 4.4 0 00.1-.5v-.1h.2v.2a3 3 0 010 .6l-.1.1V65.7l-.1.1-.1.2a11.4 11.4 0 01-.2.4v.1h-.2l-.3-.3a3 3 0 01-.2-.7l-.1-.3V65h-.1v.1a16.2 16.2 0 01-.2.5v.1a6.3 6.3 0 01-.1.3v.2l-.1.1v.1h-.1-.1V66.1l.4-1.3zM130.2 66v.1l-.3.2a1.8 1.8 0 01-.7.3.1.1 0 01-.2 0v-.1h-.1-.1v-.2a9.5 9.5 0 00.2-.6v-.2l.1-.2V65 65a1.3 1.3 0 01.1-.1v-.1H129.6a2.2 2.2 0 00.2 0 1.3 1.3 0 01.4-.1H130.4v.4l-.2.2-.3.1a5 5 0 01-.3.2h.2l.2.1.1.1v.1zm-.5-.2h-.1-.1-.1-.1l-.2.2v.3H129.5a1.5 1.5 0 00.4-.2.3.3 0 00.1 0V66v-.1h-.2zm-.4-.3a2.5 2.5 0 00.3-.1l.2-.1h.2a.5.5 0 000-.2h.1V65v-.1h-.1-.2a1.4 1.4 0 00-.3.1v.1a.8.8 0 01-.1.1v.2l-.1.1zM130.4 66.4a4.6 4.6 0 01.3-.8v-.3a5.8 5.8 0 01.2-.4v-.2h.5a4.8 4.8 0 01.4 0 1.6 1.6 0 01.3 0v.1h-.1-.1-.1-.1l-.1.1h-.1-.1l-.2.1v.1l-.1.1v.1h-.1V65.7H131.3a97.7 97.7 0 01.1 0l-.2.2h-.1-.1-.1v.1h-.1a2.7 2.7 0 000 .4h.1a1.3 1.3 0 00.4 0v-.1l.2-.1h.1v.1a1.4 1.4 0 01-.3.2h-.1l-.1.1a1.5 1.5 0 01-.4 0h-.2zM132 66.4a24.6 24.6 0 01.7-1.9H133a1.7 1.7 0 01.4 0v.1h.2v.1l.1.1V65.2l-.1.2a1.2 1.2 0 01-.3.2h-.1-.1v.1a.7.7 0 01.2.2l.1.1a1.7 1.7 0 01.3.5l-.1.1h-.2v-.1-.1a1 1 0 00-.4-.4l-.1-.1h-.2-.1v-.1l-.2.4a2.4 2.4 0 010 .3h-.1v.1h-.2v-.1zm.7-1.5V65.2l-.1.1V65.6l.1-.1h.1a2.5 2.5 0 00.5-.3l.1-.1V65v-.1h-.2a1.1 1.1 0 00-.3 0h-.2zM135.4 65.6h-.2l-.2.1a.6.6 0 01-.2 0v.1a.1.1 0 01-.1 0v-.1-.1h.1l.1-.1h.1l.2-.1a2 2 0 01.2 0h.2a.2.2 0 010 .2l-.1.3a1.2 1.2 0 01-.5.4l-.2.1h-.1l-.1.1a1 1 0 01-.2 0l-.2-.1a.5.5 0 01-.2-.3V66v-.2-.3a1.7 1.7 0 01.4-.4 2.2 2.2 0 01.6-.4h.1l.2-.1h.2v.1a.2.2 0 010 .2h-.1-.4l-.2.2a2 2 0 00-.4.4l-.1.2v.5H135V66c.2 0 .2-.1.3-.2a1.4 1.4 0 00.2-.3z"/>
  </g>
  <path fill="#2B3990" d="M64.4 114h-6.2a2 2 0 01-2-2.2v-6c0-1 .9-2 2-2h6.2c1.1 0 2 1 2 2v6c0 1.2-.9 2.1-2 2.1z"/>
  <path fill="#F1F2F2" d="M61.3 110.8c.2 0 .5 0 .6-.2.2 0 .3-.2.5-.4l.2-.6v-4.5h2.2v3.8c0 .5 0 1-.2 1.5a3 3 0 01-.6 1.1 3 3 0 01-1.1.8 4 4 0 01-1.6.3 4 4 0 01-1.6-.3 3 3 0 01-1.7-2c-.2-.4-.2-.9-.2-1.4v-3.8h2.1v4.5l.3.6.5.4.6.2z"/>
  <path fill="#00A6CF" d="M74 112.5h-4.4c-.9 0-1.5-.7-1.5-1.5v-4.2c0-.8.6-1.5 1.5-1.5h4.3c.8 0 1.5.7 1.5 1.5v4.2c0 .8-.7 1.5-1.5 1.5z"/>
  <path fill="#F1F2F2" d="M74 110.9h-.4v.4c0 .2-.2.3-.4.3a.3.3 0 01-.3-.3v-.4h-2.3v.4l-.2.2H70v-.3-.2l-.1-.1h-.3v-2.2-.6l.2-1c0-.2.1-.4.4-.5.2-.2.5-.3.8-.3h1c.4 0 .9 0 1.3.2.2.1.4.3.4.5v.4l.2 1.2v2.2zm-2.3-2h1.6c.2-.1.3-.2.2-.3l-.1-1.2c0-.2 0-.2-.3-.2h-2.7l-.3.1v.6l-.1.7.1.2h1.6zm0-2H73c0-.2 0-.3-.2-.3h-2.1c0 .2 0 .4.2.4h1zm1.2 3a.3.3 0 10.7 0c0-.2-.2-.3-.3-.3-.2 0-.4.1-.4.3zm-3 0c0 .2.2.3.4.3.1 0 .3-.1.3-.3 0-.2-.2-.3-.4-.3-.1 0-.3.1-.3.3z"/>
  <path fill="#00A6CF" d="M253.6 140.3h-7.5a2.5 2.5 0 01-2.5-2.5v-7.2c0-1.4 1.1-2.5 2.5-2.5h7.5c1.4 0 2.5 1.1 2.5 2.5v7.2c0 1.4-1.1 2.5-2.5 2.5z"/>
  <path fill="#F1F2F2" d="M253.6 137.6h-.6v.7c0 .3-.3.5-.6.5a.5.5 0 01-.5-.5v-.7h-4v.6c0 .3-.2.5-.4.5h-.6a.5.5 0 01-.1-.5v-.4c0-.1 0-.2-.2-.2h-.4v-.1-3.7-1l.3-1.6c0-.5.2-.8.6-1 .5-.2 1-.4 1.6-.4.5-.1 1-.2 1.5-.1a7 7 0 012.3.4c.4.2.7.5.7.9l.1.6a1447.9 1447.9 0 01.3 2.2V137.6zm-3.7-3.5h2.7c.3 0 .4-.2.3-.4v-.2l-.2-1.9c0-.3-.2-.3-.5-.3h-4.7c-.3 0-.4 0-.4.2l-.1 1-.2 1.2c0 .2 0 .4.3.4H249.9zm0-3.2h1.6c.2 0 .3 0 .3-.3 0-.2 0-.3-.3-.3h-3.3l-.3.1c0 .3.1.5.4.5h1.6zm2 5c0 .3.2.6.5.6a.6.6 0 000-1.2c-.3 0-.5.3-.5.6zm-5.2 0c0 .3.3.6.6.6s.6-.3.6-.6-.3-.6-.6-.6-.6.3-.6.6z"/>
  <path fill="#00A6CF" d="M284.2 137.5h-4.4c-.8 0-1.5-.6-1.5-1.4v-4.3c0-.8.7-1.5 1.5-1.5h4.4c.8 0 1.5.7 1.5 1.5v4.3c0 .8-.7 1.4-1.5 1.4z"/>
  <path fill="#F1F2F2" d="M284.2 136h-.4v.4c0 .1-.1.2-.3.2a.3.3 0 01-.3-.3v-.4h-2.4v.4c0 .1 0 .2-.2.3h-.3l-.1-.3v-.3h-.1-.3v-.1-2.2-.6l.2-1c0-.2.2-.4.4-.5l.9-.3h.9c.5 0 1 0 1.3.3.3 0 .4.2.5.4v.4l.2 1.2v.1a774 774 0 010 2.2zm-2.2-2.1h1.6l.2-.2v-.2l-.2-1c0-.3 0-.3-.2-.3h-2.8c-.2 0-.2 0-.2.2l-.1.6-.1.6c0 .2 0 .2.2.3h1.6zm0-2h1.1c0-.2 0-.3-.2-.3H281l-.1.1c0 .2 0 .3.2.3h.9zm1.2 3a.3.3 0 10.6 0c0-.2-.1-.3-.3-.3-.2 0-.3.1-.3.3zm-3 0c0 .2.1.4.3.4.2 0 .3-.2.3-.4s-.1-.3-.3-.3c-.2 0-.3.2-.3.3z"/>
  <path fill="#2B3990" d="M265.6 139h-5.9c-1 0-2-1-2-2v-5.7c0-1 1-2 2-2h5.9c1 0 2 1 2 2v5.7c0 1-1 2-2 2z"/>
  <path fill="#F1F2F2" d="M262.6 136c.3 0 .5 0 .6-.2.2 0 .4-.2.5-.4l.2-.5v-4.3h2v3.6l-.1 1.4a3 3 0 01-.6 1 3 3 0 01-1 .8c-.5.2-1 .3-1.6.3l-1.5-.3a2.9 2.9 0 01-1.6-1.9l-.2-1.3v-3.6h2v3.6l.1.7.2.5.4.4.6.2z"/>
  <path fill="#00A6CF" d="M275.4 137.8H271c-.8 0-1.4-.7-1.4-1.5v-4.2c0-.8.6-1.5 1.4-1.5h4.4c.9 0 1.5.7 1.5 1.5v4.2c0 .8-.6 1.5-1.5 1.5z"/>
  <path fill="#F1F2F2" d="M272.6 132.5l-.1-.4c0-.1 0-.1-.2 0h-.2c0 .1-.2.2-.3.1v-.2l.2-.2.6-.2h1l.8.1.3.3v.2h-.2l-.2-.2h-.2l-.2.5.4.1c.3 0 .5.2.6.4l.1.4v2.3c0 .2 0 .4-.3.5h-.2c0 .2.1.3.2.3v.3h-.3l-.3-.6a430.4 430.4 0 00-1.7 0 55.3 55.3 0 00-.6.6v-.3l.2-.3h-.2c-.2 0-.3-.2-.3-.5v-2.3-.2c0-.2.2-.4.4-.5a2 2 0 01.7-.2zm.6.8h-1c-.2 0-.3.1-.3.2v1.1c0 .2 0 .3.2.3h2.2c.2 0 .3-.1.3-.3v-1c0-.2-.1-.3-.3-.3h-1zm-.4-1.4l.2.5a24.8 24.8 0 00.5 0l.2-.5h-1zm-.6 3.8c.2 0 .4-.1.4-.3 0-.2-.2-.3-.3-.3-.2 0-.4.1-.4.3 0 .2.2.3.3.3zm2 0c.2 0 .4-.1.4-.3 0-.2-.2-.3-.4-.3-.1 0-.3.1-.3.3 0 .2.1.3.3.3zm-1-2.6h.4v-.1-.1a70.4 70.4 0 00-.7.2h.3z"/>
  <path fill="#0C7663" d="M241.2 134.9a4.5 4.5 0 11-9 0 4.5 4.5 0 019 0z"/>
  <path fill="#FEFAFC" d="M238 131.8l.5.2c.3.1-.3 1-.6.8l-1-.2-.6.1c-.2.1-.3.2-.3.4l.1.3.4.2.9.3a3 3 0 011.5.8c.2.3.3.7.3 1.2 0 .4 0 .7-.3 1-.2.3-.5.6-.9.7l-1.4.2c-.7 0-1.4 0-2-.4-.3-.2.4-1 .6-1 .4.3.9.4 1.3.5l.7-.2c.2-.1.3-.3.3-.5v-.4l-.5-.2-.7-.3c-.9-.2-1.4-.5-1.6-.8-.2-.3-.3-.7-.3-1.1 0-.4 0-.7.2-1 .2-.3.5-.5.9-.6a4 4 0 011.3-.2c.4 0 .9 0 1.3.2z"/>
  <path d="M29 81.8l.4-4.4 3 .2v.8l-2.2-.2v1.1l1.7.2-.1.7L30 80l-.1 1.8H29z"/>
  <path fill="#FFF" d="M29.9 82.9h-.1l-.9-.1a1 1 0 01-.9-1.1l.4-4.4c0-.6.6-1 1.1-1l3 .3a1 1 0 011 1.1l-.2.8c0 .3-.2.6-.4.8v1c-.1.5-.6 1-1.2 1L31 81v.8a1 1 0 01-1.1 1z"/>
  <path d="M34.4 79.7h-.7l-.4.5-.2 2-.8-.1.3-3.3h.7v.8a1.5 1.5 0 01.7-.6h.3a58 58 0 00.2 0v.7z"/>
  <path fill="#FFF" d="M33 83.2l-.8-.1a1 1 0 01-1-1.1l.3-3.3a1 1 0 011.1-1l.8.2h1.4c.4.2.8.7.7 1.1v.8c-.1.6-.6 1-1.2 1l-.2 1.4c0 .6-.5 1-1 1z"/>
  <path d="M35.5 82.4l-.4-.1a1 1 0 01-.6-.6 1 1 0 01.4-1.1l.5-.2h.5a2.4 2.4 0 01.8.2v-.2l-.1-.5-.5-.2h-.5l-.6.2-.2-.5c.5-.3 1-.3 1.4-.3.5 0 .8.2 1 .4.3.3.4.6.4 1l-.1 1v.3h.1v.7h-.7l-.2-.4V82a1.4 1.4 0 01-1.2.5zm.3-.6h.4l.3-.2.1-.2V81a2.2 2.2 0 00-.6-.2l-.5.1-.2.4v.4l.5.1z"/>
  <path fill="#FFF" d="M37.3 83.6h-.2c-.3 0-.5-.1-.7-.3a2.6 2.6 0 01-1.8 0 2.1 2.1 0 01-1-1.3 2 2 0 01.4-2l-.1-.3a1 1 0 01.4-1.2c.7-.4 1.3-.5 2-.4.7 0 1.3.3 1.7.7.3.4.7 1 .6 1.9v1.9c0 .5-.4 1-1 1a3 3 0 01-.3 0z"/>
  <path d="M39.1 82.7c-.3 0-.5-.1-.7-.3l-.2-1 .2-2h.8l-.1 1.9c0 .5 0 .7.4.8l.5-.1.4-.4.2-2h.8l-.2 2.3v.2h.2v.8a1.7 1.7 0 01-.4 0l-.4-.1-.1-.3v-.3l-.6.5h-.8z"/>
  <path fill="#FFF" d="M41.2 84h-.3l-.8-.3h-1a2 2 0 01-1.6-.8c-.2-.4-.4-1-.3-1.6l.2-2a1 1 0 011.1-1l.8.1c.3 0 .5.1.7.3l.7-.2.8.1c.6 0 1 .6 1 1.1l-.2 2c.1.1.2.4.1.6v.7c0 .5-.5.9-1 1a3 3 0 01-.2 0z"/>
  <path d="M43.5 83.1l-.7-.1a1.6 1.6 0 01-.8-1v-.7-.6a1.6 1.6 0 011-.8l.8-.1c.2 0 .5 0 .7.2l.5.4.3.6a1.8 1.8 0 010 .9l-2.5-.2v.3a.8.8 0 00.8.5h.4l.4-.3.7.2c-.2.3-.4.5-.7.6-.2.1-.6.2-1 .1zm1-1.8c0-.3 0-.5-.2-.6a.8.8 0 00-.6-.3.8.8 0 00-.8.4v.3l1.6.2z"/>
  <path fill="#FFF" d="M43.7 84.2a3.2 3.2 0 01-1.4-.3 2.7 2.7 0 01-1.4-2.7c0-.3.1-.7.3-1a2.6 2.6 0 011.5-1.3c.4-.1.8-.2 1.2-.1a2.8 2.8 0 011.9 1c.2.2.4.5.5.9a2.8 2.8 0 010 1.5l-.2.3c0 .2 0 .3-.2.5-.2.4-.6.7-1 1l-1.2.2z"/>
  <path d="M48.7 83.6l-.8-.1.1-1.8V81l-.4-.2h-.3a1 1 0 00-.5.3l-.1.3-.2 1.9-.8-.1.3-3.3.7.1v.6l.5-.4.8-.1.5.1.3.4v.8l-.1 2z"/>
  <path fill="#FFF" d="M48.7 84.6h-.9a1 1 0 01-.7-.4 1 1 0 01-.7.2h-.8a1 1 0 01-1-1.2L45 80c.1-.6.6-1 1.2-1h.7l.4.2h1l.9.3c.3.2.5.4.6.7l.2.8v.6l-.2 2c0 .6-.5 1-1 1z"/>
  <path d="M51.3 83.6l-.4.2h-.5l-.3-.1c-.1 0-.2 0-.3-.2l-.1-.2v-.4l.1-1.9h-.4v-.6h.5v-1h.9l-.1 1 .7.1v.7h-.8l-.1 1.5v.3h.7l.1.6z"/>
  <path fill="#FFF" d="M50.6 84.8a2.6 2.6 0 01-.9-.1 1.7 1.7 0 01-1-1 2 2 0 01-.1-.9l.1-1a1 1 0 01-.4-.9l.1-.6a1 1 0 01.5-.8v-.2a1 1 0 011.2-1l.8.1a1 1 0 011 1.1v.1a1 1 0 01.5 1v.7a1 1 0 01-.6.8l.5.7v.7c.1.5-.2 1-.6 1.1a4.8 4.8 0 01-1.1.2z"/>
  <path d="M53.2 84c-.3 0-.5 0-.7-.2a1.6 1.6 0 01-.8-1v-.6-.6a1.6 1.6 0 011-.8l.8-.1c.2 0 .5 0 .7.2a1.6 1.6 0 01.8 1.6 1.7 1.7 0 01-.5 1.1l-.6.4h-.7zm-.7-1.7v.4l.1.3a.8.8 0 001 .3l.3-.2.2-.3v-.4-.4l-.1-.3a.8.8 0 00-.6-.3h-.3l-.3.2-.2.3-.1.4z"/>
  <path fill="#FFF" d="M53.4 85H53c-.4 0-.8 0-1.1-.3a2.6 2.6 0 01-1.4-2.6 2.8 2.8 0 01.9-1.8l1-.5c.3-.1.7-.2 1-.1.5 0 .8.1 1.2.3a2.7 2.7 0 011.3 2.6 2.8 2.8 0 01-.9 1.8 2.6 2.6 0 01-1.7.7zm-.2-2.7l.1.1a.2.2 0 00.2 0l-.2-.1h-.1z"/>
  <path d="M57.6 81.8l-.7.1c-.2 0-.4.2-.5.4l-.2 2-.8-.1.3-3.3.8.1v.7a1.5 1.5 0 01.7-.6h.3a58 58 0 00.1 0v.7z"/>
  <path fill="#FFF" d="M56.2 85.3h-.9a1 1 0 01-1-1.2l.4-3.3a1 1 0 011.1-.9h.8l.3.2h1c.5.1.8.6.8 1v.8c-.1.6-.6 1-1.2 1l-.2 1.5c0 .5-.5.9-1 .9z"/>
  <path d="M62.8 84.9l-.8-.1.2-1.8-.1-.6-.4-.2-.4.1a1 1 0 00-.4.5l-.2 1.9-.8-.1.2-1.8-.1-.6-.4-.2-.4.1a1 1 0 00-.4.5l-.2 1.9-.8-.1.3-3.2h.8l-.1.6.5-.4.8-.1.6.2.2.6c.2-.3.4-.4.6-.5l.7-.1.5.1.2.4.1.4v.4l-.2 2z"/>
  <path fill="#FFF" d="M62.8 85.9h-.9a1 1 0 01-.6-.4 1 1 0 01-.7.2h-.8a1 1 0 01-.6-.4 1 1 0 01-.7.2h-.8a1 1 0 01-1-1.2l.4-3.2a1 1 0 011.1-1l.8.1.3.1h.9c.4 0 .7.1 1 .3.3-.1.7-.2 1-.1.4 0 .8.1 1 .3l.7.7.2.8v.6l-.2 2c0 .6-.5 1-1 1z"/>
  <path d="M64.4 85H64a1 1 0 01-.5-.6 1 1 0 010-.9c.2 0 .3-.2.4-.3l.4-.1h.6a2.3 2.3 0 01.8.1v-.1l-.1-.6-.6-.2h-.5l-.5.3-.2-.6c.4-.2.9-.3 1.4-.2.4 0 .8.1 1 .4.3.3.4.6.3 1v1.2l.1.1v.7h-.4l-.4-.1-.1-.3v-.2a1.4 1.4 0 01-1.3.5zm.3-.5h.4l.4-.2.1-.2v-.4a2.2 2.2 0 00-.6-.2l-.5.1c-.2 0-.3.2-.3.4 0 0 0 .2.2.3l.3.2z"/>
  <path fill="#FFF" d="M66.3 86.3H66c-.3 0-.6-.2-.8-.3l-1 .1a2.3 2.3 0 01-1.4-.7 2 2 0 01-.2-2.4l.2-.3v-.3a1 1 0 01.4-1.3c.6-.3 1.3-.4 2-.4s1.3.3 1.7.8c.3.3.6.9.6 1.8l-.1.7c.1.2.2.4.1.6v.7c0 .5-.5.9-1 1h-.3z"/>
  <path d="M68.1 85.4c-.3 0-.6-.2-.7-.4-.2-.2-.2-.5-.2-1l.2-2h.8l-.2 2c0 .4.1.7.5.7h.5l.4-.5.2-2h.8l-.2 2.4v.2h.2v.8a1.7 1.7 0 01-.5 0l-.3-.2-.1-.3V85l-.6.4-.8.1z"/>
  <path fill="#FFF" d="M70.1 86.6h-.3c-.2 0-.5-.1-.7-.3-.4.1-.7.2-1.1.1a2 2 0 01-1.5-.8c-.3-.4-.4-1-.3-1.7l.1-2c.1-.5.6-1 1.2-1l.8.2c.3 0 .5.1.7.3.2-.2.4-.2.7-.2h.8a1 1 0 011 1.2l-.2 2 .1.5v.7c-.1.5-.5 1-1 1h-.3z"/>
  <path d="M72.4 85.8c-.2 0-.5 0-.7-.2A1.6 1.6 0 0171 84c0-.2 0-.5.2-.7a1.6 1.6 0 011-.8h.6c.3 0 .5 0 .7.2.2 0 .4.2.5.4.2.1.3.3.3.5a1.8 1.8 0 010 1l-2.5-.3v.4a.9.9 0 00.8.5h.5c.1-.1.3-.2.3-.4l.7.3-.6.6-1 .1zm1-1.9c0-.2 0-.4-.2-.6a.8.8 0 00-.5-.3.8.8 0 00-.6.2.9.9 0 00-.3.6l1.7.1z"/>
  <path fill="#FFF" d="M72.6 86.9h-.3a2.8 2.8 0 01-1.9-1 2.7 2.7 0 01-.6-2c0-.4.2-.7.3-1a2.6 2.6 0 011.6-1.4h1.1a2.8 2.8 0 012 1c.2.2.3.5.4.9a2.8 2.8 0 010 1.5c0 .1 0 .2-.2.3l-.1.4c-.2.4-.6.8-1 1-.4.2-.8.3-1.3.3z"/>
  <path d="M76.8 83.6h-.7l-.5.5-.1 2-.9-.2.3-3.2h.8v.8a1.5 1.5 0 01.7-.6h.3a28.9 28.9 0 01.2 0l-.1.7z"/>
  <path fill="#FFF" d="M75.5 87h-1a1 1 0 01-.9-1.1l.3-3.3c0-.6.6-1 1.1-1l.8.1.4.2.6-.1h.4c.4.2.7.7.7 1.1v.8c-.1.6-.6 1-1.2 1l-.2 1.4c0 .6-.5 1-1 1z"/>
  <path d="M118.5 91.9l1.3-4.2 2.8.9-.2.7-2-.6-.3 1 1.7.6-.3.6-1.6-.5-.6 1.8-.8-.3z"/>
  <path fill="#FFF" d="M119.3 93.2a1 1 0 01-.3 0l-.8-.3a1 1 0 01-.7-1.3l1.3-4.2a1 1 0 011.3-.7l2.8.9a1 1 0 01.7 1.3l-.2.7a1 1 0 01-.6.6v.4l-.3.6a1 1 0 01-1.3.7l-.6-.2-.3.8a1 1 0 01-1 .7z"/>
  <path d="M124.2 91l-.7-.1-.6.3-.5 1.9-.8-.3 1-3 .6.1-.2.7a1.5 1.5 0 011-.5h.2l.1.1-.1.7z"/>
  <path fill="#FFF" d="M122.4 94.1a1 1 0 01-.3 0l-.8-.3a1 1 0 01-.7-1.2l1-3.2a1 1 0 011.2-.7l.7.2.4.2h.6l.1.1.3.1c.4.2.6.7.5 1.2l-.2.7a1 1 0 01-1.3.7l-.5 1.5a1 1 0 01-1 .7z"/>
  <path d="M124.7 93.8l-.4-.2a1 1 0 01-.4-.7 1 1 0 01.2-.8l.4-.2.4-.1h.6a2.3 2.3 0 01.7.4V92v-.5c0-.2-.2-.3-.5-.3h-1l-.1-.5c.4-.2 1-.2 1.4 0 .4 0 .8.3 1 .6.1.3.2.6 0 1l-.2 1v.2l.1.1-.2.7a2 2 0 01-.3 0 .5.5 0 01-.4-.3v-.5l-.6.3h-.7zm.4-.5h.4l.3-.1.2-.2.1-.4a2 2 0 00-.6-.3h-.5l-.3.3v.4l.4.3z"/>
  <path fill="#FFF" d="M126.7 95.3h-.6l-.7-.4-1-.1a2.3 2.3 0 01-1.3-1 2 2 0 01-.2-1.6 2 2 0 01.7-1v-.3c-.1-.5.1-1 .6-1.2.7-.2 1.4-.2 2 0 .8.1 1.3.5 1.6 1 .3.4.5 1 .2 1.9l-.1.6v.7l-.2.7a1 1 0 01-1 .7z"/>
  <path d="M128.2 94.7c-.3 0-.5-.2-.6-.5-.2-.2-.2-.6 0-1l.4-2 .8.3-.4 1.8c-.1.5 0 .7.3.8h.5c.2 0 .3-.2.5-.3l.5-2 .8.2-.6 2.2v.2l.2.1-.2.7a1.6 1.6 0 01-.4 0 .6.6 0 01-.3-.2l-.1-.3v-.3c-.1.2-.4.3-.6.4h-.8z"/>
  <path fill="#FFF" d="M130.4 96.3a2.7 2.7 0 01-.6-.1l-.8-.4h-1a2 2 0 01-1.4-1.1c-.2-.5-.2-1 0-1.7l.4-2a1 1 0 011.3-.7l.8.2c.3 0 .5.2.6.4.2-.1.5-.2.7 0l.8.1c.6.2 1 .7.8 1.3l-.5 1.8v.7l-.1.7a1 1 0 01-1 .8z"/>
  <path d="M132.4 95.8l-.6-.3a1.6 1.6 0 01-.7-1.8l.3-.6a1.6 1.6 0 011-.6h.8c.3 0 .5.1.7.3a1.6 1.6 0 01.6 1 1.8 1.8 0 01-.1 1l-2.5-.6v.3a.9.9 0 00.7.7h.5l.3-.3.7.4c-.2.2-.4.4-.7.4h-1zm1.3-1.8l-.1-.6a.8.8 0 00-.5-.3.8.8 0 00-.7 0 .9.9 0 00-.3.6l1.6.3z"/>
  <path fill="#FFF" d="M132.9 96.9a3 3 0 01-.7-.1l-1-.5a2.7 2.7 0 01-1-2.8l.3-1a2.6 2.6 0 013-1c.3 0 .7.2 1 .5a2.7 2.7 0 011 1.7 2.8 2.8 0 01-.2 1.5l-.2.3-.2.4c-.3.4-.7.7-1.2.8l-.8.2z"/>
  <path d="M137.5 96.8l-.8-.1.4-1.8v-.6l-.3-.3h-.3l-.3.1-.2.2-.2.2-.4 1.9-.8-.2.7-3.2.7.2-.1.6c.1-.2.3-.3.6-.4h.8l.4.2.3.4v.8l-.5 2z"/>
  <path fill="#FFF" d="M137.5 97.9h-.2l-.8-.2a1 1 0 01-.6-.4 1 1 0 01-.7 0h-.8a1 1 0 01-.8-1.3l.6-3.2a1 1 0 011.3-.8l.7.2.4.1h.9l1 .5.4.8c.1.3.2.5.1.8v.7l-.5 2a1 1 0 01-1 .8z"/>
  <path d="M140.1 97.2H139l-.3-.3v-.6l.3-1.9h-.4v-.7l.5.1.2-1 .8.1-.2 1 .7.2-.1.6-.7-.1-.3 1.6v.2l.2.1h.5v.7z"/>
  <path fill="#FFF" d="M139.5 98.3h-.5l-.6-.3a1.8 1.8 0 01-.9-1.1V96l.2-1-.1-.2a1 1 0 01-.2-.7l.2-.7a1 1 0 01.5-.7v-.2a1 1 0 011.3-.8l.8.1c.6.1 1 .7.8 1.2v.1c.4.2.6.7.5 1.1l-.1.6c0 .4-.3.7-.7.8.3.2.4.4.4.7v.7c0 .5-.2 1-.7 1a4.6 4.6 0 01-.9.2z"/>
  <path d="M141.9 97.7l-.7-.2a1.6 1.6 0 01-.7-1v-.7l.2-.6a1.6 1.6 0 011-.8h.8c.2 0 .5.1.7.3a1.6 1.6 0 01.7 1.7 1.8 1.8 0 01-.7 1l-.6.3h-.7zm-.5-1.8v.8a.8.8 0 001 .3l.3-.1.2-.3.1-.4v-.4-.3l-.3-.3a.8.8 0 00-.7 0h-.3l-.2.3-.1.4z"/>
  <path fill="#FFF" d="M142.2 98.8a3 3 0 01-1.6-.5 2.6 2.6 0 01-1.1-1.7 2.8 2.8 0 011-2.7c.3-.3.7-.4 1-.5h1.2c.4 0 .7.2 1 .4a2.7 2.7 0 011.2 2.7 2.8 2.8 0 01-1 1.8 2.6 2.6 0 01-1.7.5zM142 96l.2.1h-.1z"/>
  <path d="M146.4 95.8h-.7l-.5.4-.3 2-.8-.2.5-3.2.8.1-.1.7a1.5 1.5 0 01.8-.5h.3a5.8 5.8 0 00.1 0v.7z"/>
  <path fill="#FFF" d="M145 99.2h-.2l-.8-.1a1 1 0 01-.9-1.2l.5-3.2a1 1 0 011.2-.9l.7.1.4.1h.7l.3.1c.4.2.7.6.6 1.1v.8c-.2.5-.7 1-1.2.8h-.1l-.2 1.5c-.1.5-.6.9-1 .9z"/>
  <path d="M151.5 99h-.8l.2-1.9v-.6l-.4-.2-.5.1a1 1 0 00-.4.5l-.2 1.9-.8-.1.2-1.9v-.5l-.4-.3c-.2 0-.4 0-.5.2a1 1 0 00-.4.4l-.2 1.9-.8-.1.4-3.2h.7v.7c0-.2.3-.4.5-.5h.7c.3 0 .5 0 .6.2l.2.5.6-.4h1.2l.2.4.1.4v.5l-.2 2z"/>
  <path fill="#FFF" d="M151.5 100h-1a1 1 0 01-.6-.4 1 1 0 01-.6.2l-.9-.1a1 1 0 01-.6-.3 1 1 0 01-.6.1h-.9a1 1 0 01-.9-1.2l.4-3.3a1 1 0 011.2-.9l.7.1c.2 0 .3 0 .4.2.3-.1.5-.1.8 0 .5 0 .8.1 1 .3a2.4 2.4 0 012.1.3c.3.2.5.4.6.7l.2.8v.6l-.3 2c0 .6-.5 1-1 1z"/>
  <path d="M153 99.2l-.4-.1a1 1 0 01-.6-1c0-.2 0-.3.2-.4 0-.2.2-.3.3-.3l.4-.2h.6a2.4 2.4 0 01.8.2v-.2l-.1-.5-.6-.3-.5.1-.5.2-.2-.5c.4-.3.9-.4 1.4-.3.4 0 .8.2 1 .4.3.3.4.6.3 1v1.2l.1.1v.7h-.4l-.4-.1-.1-.3v-.2a1.4 1.4 0 01-1.3.5zm.3-.6h.4l.4-.2.1-.2v-.4a2 2 0 00-.6-.2l-.5.1c-.2.1-.3.2-.3.4l.1.3.4.2z"/>
  <path fill="#FFF" d="M154.9 100.4h-.2c-.3 0-.6-.2-.8-.3-.3.1-.6.2-1 .1a2.2 2.2 0 01-1.4-.7 2 2 0 01-.5-1.5 2 2 0 01.5-1.2v-.3a1 1 0 01.4-1.2c.6-.4 1.3-.5 2-.5.7.1 1.3.4 1.7.8.3.3.6 1 .5 1.8v.7c.1.2.2.4.1.6v.7c0 .5-.5.9-1 1h-.3z"/>
  <path d="M156.7 99.5c-.4 0-.6-.2-.8-.4l-.2-1 .1-2h.9l-.1 2c0 .4.1.7.5.7l.4-.1.4-.4.1-2h.9l-.2 2.3v.2h.2v.7a1.7 1.7 0 01-.4 0h-.3l-.2-.4V99c-.1.2-.3.4-.6.5h-.7z"/>
  <path fill="#FFF" d="M158.6 100.6h-.1l-.8-.2-1 .1a2 2 0 01-1.6-.8c-.3-.4-.4-1-.4-1.6l.1-2a1 1 0 011.1-1h.8c.3 0 .5.2.7.3l.7-.2h.8a1 1 0 011 1.1l-.1 2 .2.6v.7c-.1.5-.5.9-1 1a3 3 0 01-.3 0z"/>
  <path d="M161.1 99.7c-.3 0-.5 0-.7-.2a1.6 1.6 0 01-1-1.5c0-.3 0-.5.2-.7a1.6 1.6 0 01.9-.9l.7-.1.7.1.5.4c.2.2.3.3.3.6a1.8 1.8 0 01.1.9h-2.5v.3a.8.8 0 00.8.5c.2 0 .4 0 .5-.2.2 0 .3-.1.3-.3l.7.2c0 .3-.3.5-.5.6-.3.2-.6.3-1 .3zm.9-2l-.3-.6a.8.8 0 00-.6-.2.8.8 0 00-.7.5l-.1.3h1.7z"/>
  <path fill="#FFF" d="M161.2 100.7h-.1c-.4 0-.8 0-1.1-.2a2.7 2.7 0 01-1.6-2.6c0-.3 0-.7.2-1a2.7 2.7 0 012.6-1.6c.4 0 .8 0 1.1.2a2.7 2.7 0 011.4 1.5 2.8 2.8 0 01.1 1.5l-.1.3-.1.5c-.3.4-.6.8-1 1-.4.3-1 .4-1.4.4z"/>
  <path d="M165.3 97c-.3 0-.5 0-.7.2-.2 0-.3.2-.4.4v2h-.8v-3.2h.7v.6a1.5 1.5 0 01.7-.7h.3a2.6 2.6 0 01.2 0v.7z"/>
  <path fill="#FFF" d="M163.4 100.6a1 1 0 01-1-1v-3.2a1 1 0 011-1l.7-.1h1.4c.4 0 .8.4.8 1v.7c0 .6-.4 1-1 1v1.5a1 1 0 01-1 1.1h-.8z"/>
  <path d="M115.4 76.1c.2.4.3.8.3 1.3l-.4.8a2 2 0 01-.6.5 2.3 2.3 0 01-1.7.3 2.2 2.2 0 01-1.7-1.6v-1c0-.3.2-.6.4-.9.3-.3.5-.4.9-.5l.3.7c-.2 0-.4.2-.6.4a1.3 1.3 0 00-.3 1c0 .3.2.4.3.5 0 .2.2.3.4.4a1.8 1.8 0 001.1.2c.2 0 .4 0 .5-.2.2 0 .3-.2.4-.3l.2-.5c.1-.4 0-.8-.3-1.3h-.3l-.2.9-.6-.2.3-1.5 2.2.4-.1.7-.5-.1z"/>
  <path fill="#FFF" d="M113.5 80.1h-.7a3.3 3.3 0 01-2.5-2.5 3 3 0 010-1.3c0-.6.3-1 .7-1.5.3-.4.8-.7 1.3-.8.3-.1.7 0 1 .2l.7-.2 2.2.5a1 1 0 01.8 1.2l-.1.7-.2.4v.8a3 3 0 01-1.4 2 3.3 3.3 0 01-1.8.5z"/>
  <path d="M114 72.5v.7c0 .2.1.4.3.5l2 .3-.2.9-3.2-.6.1-.8.7.2a1.5 1.5 0 01-.5-.9v-.3-.1l.7.1z"/>
  <path fill="#FFF" d="M116.1 75.9h-.2l-3.2-.6a1 1 0 01-.8-1.2l.1-.7c0-.2 0-.3.2-.4v-.6-.1-.3a1 1 0 011.2-.6l.7.1c.6 0 1 .6.9 1.2l1.4.3c.6.1 1 .7.9 1.2l-.2.8a1 1 0 01-1 .9z"/>
  <path d="M116.7 71.7l-.1.4a1 1 0 01-.7.5 1 1 0 01-.8-.1 1 1 0 01-.3-.4l-.1-.4V71a2.5 2.5 0 01.3-.8h-.2l-.5.1c-.2.1-.3.3-.3.5v.5l.2.6-.6.1c-.2-.4-.2-.9-.2-1.4.1-.4.3-.8.6-1 .2-.2.6-.3 1-.2l1 .2h.2v-.2l.8.1v.4l-.2.3-.3.1h-.2a1.5 1.5 0 01.4 1.3zm-.6-.3V71l-.1-.4-.2-.1h-.4a2.1 2.1 0 00-.2.5v.6l.4.2h.3l.2-.4z"/>
  <path fill="#FFF" d="M115.7 73.7a2 2 0 01-1.2-.4 2 2 0 01-.3-.2h-.3c-.5.2-1 0-1.2-.5-.3-.7-.4-1.3-.3-2 .1-.7.4-1.3 1-1.7.3-.3.9-.6 1.8-.4h1.9c.5.2.9.6 1 1l-.1.6c0 .4-.2.6-.3.8v1l-.2.7a2 2 0 01-1.3 1 2 2 0 01-.5 0z"/>
  <path d="M117.3 67.9l-.2.7a2 2 0 01-.5.6l-.5-.3.4-.6.2-.5v-.4l-.3-.2-.3.1-.2.6-.3.5-.2.3-.3.2h-.3a1 1 0 01-.7-.5l-.2-.4v-.5l.2-.7.5-.5.4.4a2 2 0 00-.3.4l-.2.5v.3l.3.2h.2V68l.2-.2.1-.3.3-.5.2-.4.3-.2h.4c.3 0 .5.2.7.5.1.2.2.6 0 1z"/>
  <path fill="#FFF" d="M116.6 70.3a1 1 0 01-.7-.3l-.3-.2h-.2l-.7.1a2 2 0 01-1.8-1.8v-.8l.3-1 .7-.8a1 1 0 011.4 0l.1.1.4-.2h.8a2 2 0 011.5 1c.2.4.3 1 .2 1.6 0 .4-.1.7-.3 1a3 3 0 01-.7 1 1 1 0 01-.7.3z"/>
  <path d="M117.7 64.5c0 .3 0 .5-.2.7a1.6 1.6 0 01-1.6.8c-.3 0-.5 0-.7-.2a1.6 1.6 0 01-.8-1v-.7l.2-.7a1.6 1.6 0 011-.7 1.8 1.8 0 011 0l-.4 2.5h.4a.8.8 0 00.5-.8V64l-.3-.3.3-.7.5.7c.1.2.2.6.1 1zm-1.8-1l-.6.1-.3.6a.8.8 0 00.7 1l.2-1.7z"/>
  <path fill="#FFF" d="M116 67a2.9 2.9 0 01-1.3-.3 2.6 2.6 0 01-1.3-1.6V64a2.8 2.8 0 011-1.9c.3-.2.6-.4 1-.4a2.8 2.8 0 011.5 0l.3.2c.2 0 .3 0 .4.2.4.2.7.6 1 1 .2.5.2 1 .2 1.6a2.8 2.8 0 01-1 1.8 2.6 2.6 0 01-1.7.6z"/>
  <path d="M115.6 60.2v.6l.5.5 2 .2-.2.9-3.2-.4v-.8l.8.1a1.4 1.4 0 01-.6-.8v-.3-.1h.7z"/>
  <path fill="#FFF" d="M118 63.4h-.2l-3.2-.4a1 1 0 01-1-1.1l.1-.8.2-.3V60v-.3a1 1 0 011-.8l.8.1c.6 0 1 .6 1 1.1v.1l1.4.2a1 1 0 011 1.1l-.1.9a1 1 0 01-1 .9z"/>
  <path d="M118.4 58.8l-.2.7a2 2 0 01-.5.7l-.5-.4.4-.5.2-.6-.1-.4-.3-.1-.2.1-.3.5-.2.5-.2.4-.2.2h-.4a1 1 0 01-.7-.4l-.2-.5v-.5c0-.2 0-.4.2-.6 0-.3.2-.4.3-.6l.5.4a2 2 0 00-.3.4l-.1.5v.3l.3.2h.1l.1-.1.1-.2.2-.3.2-.5.2-.4.3-.2h.3c.4 0 .6.1.8.4l.2 1z"/>
  <path fill="#FFF" d="M117.7 61.2a1 1 0 01-.6-.2l-.3-.2a1.6 1.6 0 01-1 .1 2 2 0 01-1.8-1.6v-.9c0-.3 0-.7.2-1l.6-.9a1 1 0 011.4 0l.2.1a1.7 1.7 0 011.1-.3 2 2 0 011.5 1c.3.4.4 1 .4 1.5L119 60a3 3 0 01-.7 1 1 1 0 01-.7.2z"/>
  <path d="M118.6 55.7a1.3 1.3 0 01-.6 1l-.5.2a2 2 0 01-1.8-.4 1.4 1.4 0 01-.4-1.1c0-.3 0-.5.2-.7l.5-.4h-.6v-.8l3.1.2.7.2.4.4.3.6v.8c0 .3 0 .6-.2.8-.1.3-.3.5-.5.6l-.5-.5c.2 0 .3-.2.4-.4a1.4 1.4 0 00.2-1s0-.2-.2-.3l-.2-.2a1 1 0 00-.4-.1h-.4l.4.4v.7zm-.7-.4v-.2a1 1 0 00-.3-.5l-.2-.1h-.7a1 1 0 00-.5.3l-.2.4v.4l.2.3.3.2a1.2 1.2 0 00.8 0c.1 0 .2 0 .3-.2l.2-.2.1-.4z"/>
  <path fill="#FFF" d="M119.2 58.2a1 1 0 01-.8-.4h-.1a2.7 2.7 0 01-1.6.2 3 3 0 01-1.8-.8 2.5 2.5 0 01-.5-2.7v-1.1c0-.5.5-1 1.1-1l3.1.3a2.5 2.5 0 011.9 1l.4 1v1c0 .5-.1 1-.3 1.4l-.9.9a1 1 0 01-.5.2z"/>
  <path d="M118.8 52.1v.5a1 1 0 01-.6.5 1 1 0 01-.9 0 1 1 0 01-.3-.3l-.2-.5v-.5a2.4 2.4 0 01.2-.8h-.2l-.5.1c-.2.1-.2.3-.2.6v.5l.3.5-.6.2c-.2-.4-.3-.9-.3-1.4 0-.4.2-.8.4-1 .2-.3.6-.4 1-.4h1.2V50h.8v.4l-.1.4-.3.1h-.2a1.4 1.4 0 01.5 1.2zm-.6-.2v-.4c0-.2-.1-.3-.2-.3l-.2-.2h-.4a2.2 2.2 0 00-.2.6c0 .3 0 .4.2.6l.3.2.4-.1.1-.4z"/>
  <path fill="#FFF" d="M117.8 54.2h-.1a2 2 0 01-1.2-.4h-.3c-.4.3-1 0-1.3-.4-.3-.6-.5-1.2-.4-2 0-.6.2-1.2.7-1.7.3-.3.8-.6 1.8-.6h.6l.6-.1h.7c.5 0 1 .4 1 .9v.6c0 .3 0 .5-.2.7l.2 1-.2.8a2.1 2.1 0 01-1.2 1 2 2 0 01-.7.2z"/>
  <path d="M119 48.3l-.1.7-.4.7-.6-.3.4-.6.1-.5v-.4l-.3-.2c-.1 0-.2 0-.3.2l-.2.5-.2.5-.2.4-.2.2h-.3a1 1 0 01-.8-.4l-.2-.4v-.5-.7l.4-.5.5.3a2 2 0 00-.3.5v.8l.3.2h.1l.1-.2.1-.2.1-.3.2-.5.2-.4.3-.2.3-.1c.3 0 .6.1.8.4l.2 1z"/>
  <path fill="#FFF" d="M118.5 50.7a1 1 0 01-.6-.1l-.4-.2h-.1l-.8.2a2 2 0 01-2-1.6v-.8c0-.4 0-.7.2-1 .1-.4.3-.7.6-1a1 1 0 011.3 0h.2a1.7 1.7 0 011.2-.3 2 2 0 011.5.8c.3.4.5 1 .4 1.6 0 .4 0 .7-.2 1.1a3 3 0 01-.6 1 1 1 0 01-.7.3z"/>
  <path d="M119 45.2v.8l-.4.7-.6-.4.4-.5v-.6-.4l-.3-.1-.2.1-.2.6-.2.5-.2.4-.2.2h-.3a1 1 0 01-.8-.4l-.2-.4v-.5-.7l.4-.6.5.4a2 2 0 00-.3.5l-.1.4v.4l.4.1h.1l.1-.1v-.2l.2-.3.2-.6c0-.1 0-.3.2-.4l.2-.2h.4c.3 0 .5 0 .7.3.2.3.3.6.3 1z"/>
  <path fill="#FFF" d="M118.6 47.7a1 1 0 01-.6-.2l-.3-.2-.2.1-.8.1a2 2 0 01-2-1.5v-.8l.1-1 .6-1a1 1 0 011.4-.1l.1.1.4-.2.8-.2a2 2 0 011.6.8c.3.4.4 1 .4 1.6 0 .4 0 .8-.2 1.1a3 3 0 01-.6 1 1 1 0 01-.7.4z"/>
  <path d="M119.1 41.8l-.1.7a1.6 1.6 0 01-1 1h-1.2a1.6 1.6 0 01-1-1v-.7-.7l.4-.5.6-.3a1.8 1.8 0 01.9-.1v2.5l.3-.1a.8.8 0 00.5-.8l-.1-.5-.3-.3.2-.7.6.6.2 1zm-2-.8c-.2 0-.4.1-.5.3-.2.1-.3.3-.3.5a.8.8 0 00.3.6l.2.2h.4V41z"/>
  <path fill="#FFF" d="M117.4 44.6c-.3 0-.7 0-1-.2A2.6 2.6 0 01115 43l-.2-1.2a2.8 2.8 0 01.8-2l1-.5a2.8 2.8 0 011.4-.1h.4l.4.2c.4.2.8.5 1 1 .3.4.4.9.4 1.4a2.8 2.8 0 01-.8 2 2.6 2.6 0 01-1.9.8z"/>
  <path d="M126.1 15.8l.2-4.4h.8v2.2l1.9-2.1h.9l-1.7 2 1.7 2.4h-1l-1.3-2-.6.6V16h-.9z"/>
  <path fill="#FFF" d="M129.9 17h-1a1 1 0 01-.8-.5l-.2-.2a1 1 0 01-1 .6h-.8a1 1 0 01-1-1l.1-4.5a1 1 0 011-1h1c.3 0 .7.3.8.6l.2-.2c.2-.2.5-.3.8-.3h1a1 1 0 01.7 1.7l-1.2 1.3 1.2 1.8a1 1 0 01-.8 1.7z"/>
  <path d="M130.2 11.4h.8v3.5l.1.3H131.7l.1.6-.4.1h-.4l-.6-.1-.2-.6v-3.8z"/>
  <path fill="#FFF" d="M131 17c-.7 0-1-.3-1.3-.5-.3-.2-.5-.7-.5-1.3v-3.8a1 1 0 011-1h.8c.6 0 1 .4 1 1v2.8h.2c.3.2.5.5.5.8l.1.6c.1.5-.1 1-.5 1.1l-.7.3h-.6z"/>
  <path d="M133 16h-.4a1 1 0 01-.7-1l.1-.5.3-.3.4-.2.6-.1a2.4 2.4 0 01.8.1v-.2c0-.2 0-.3-.2-.5l-.6-.1h-.5l-.5.4-.2-.6c.4-.2.8-.4 1.3-.4s.8.1 1.1.3c.3.3.4.6.4 1v1.2h.2v.8h-.7l-.2-.3v-.2a1.5 1.5 0 01-1.2.6zm.3-.6l.4-.1.3-.2v-.6a2.1 2.1 0 00-.6-.1l-.5.1-.2.4c0 .1 0 .2.2.3l.4.2z"/>
  <path fill="#FFF" d="M133 17a2.3 2.3 0 01-1.5-.5 2 2 0 01-.6-1.5 2 2 0 01.4-1.2l-.2-.3a1 1 0 01.4-1.3c.6-.4 1.2-.6 1.9-.6s1.3.2 1.8.5c.3.3.7.9.7 1.8v.7c.2.1.3.3.3.6v.7c0 .5-.4.9-.8 1H134l-1 .1z"/>
  <path d="M137.5 13.3l-.6.1-.5.5.1 2h-.8l-.1-3.3h.7v.7a1.4 1.4 0 01.5-.6l.3-.1h.4v.7z"/>
  <path fill="#FFF" d="M135.7 16.9a1 1 0 01-1-1l-.2-3.2a1 1 0 011-1.1H136.7l.6-.1h.4c.5 0 .8.5.8 1v.7c0 .6-.3 1-1 1.1v1.5a1 1 0 01-1 1l-.8.1z"/>
  <path d="M139 15.8h-.5a1 1 0 01-.6-.6 1 1 0 010-.8c0-.1 0-.3.2-.3l.4-.3h.6a2.4 2.4 0 01.8 0v-.2l-.2-.5-.6-.1-.5.1c-.2 0-.3.2-.5.3l-.3-.5c.4-.3.9-.5 1.3-.5.5 0 .9 0 1.2.3.2.2.4.5.4 1v1l.1.2h.2v.7h-.7l-.2-.3v-.1l-.5.4-.7.2zm.1-.6l.4-.1.3-.2.1-.3v-.3l-.3-.1h-.4l-.5.1-.2.4.2.4h.4z"/>
  <path fill="#FFF" d="M138.8 16.8a2.2 2.2 0 01-1.4-.5 2 2 0 01-.7-1.4 2 2 0 01.4-1.2l-.2-.3a1 1 0 01.3-1.3c.6-.5 1.2-.7 1.9-.7s1.3.1 1.8.5c.4.3.8.8.8 1.7v.7c.2.1.3.3.3.6v.7c0 .5-.3.9-.7 1l-.6.1-.8-.1-1 .2z"/>
  <path d="M142.8 15.5a1.3 1.3 0 01-1-.4l-.4-.5-.2-.6v-.7l.4-.5a1.4 1.4 0 011.7-.5l.5.4v-.6h.7l.2 3v.7l-.4.5-.6.4-.7.2a2 2 0 01-.9-.1l-.6-.5.4-.5c.1.2.3.3.5.3a1.4 1.4 0 001 0l.3-.1.1-.3v-.9c0 .2-.2.4-.4.5l-.6.2zm.2-.7h.3a1 1 0 00.4-.4l.1-.2v-.8a1 1 0 00-.4-.4.8.8 0 00-.6-.1h-.3l-.2.3-.2.4v.3a1 1 0 00.3.7l.3.2h.3z"/>
  <path fill="#FFF" d="M142.8 17.9c-.4 0-.7 0-1-.2-.4-.1-.8-.4-1-.7a1 1 0 01-.1-1.4 2.7 2.7 0 01-.5-1.5 3 3 0 01.5-2 2.5 2.5 0 012.6-.9h.4l.7-.1a1 1 0 011.1 1l.2 3a2.5 2.5 0 01-.7 2c-.2.2-.5.4-.9.5a3.4 3.4 0 01-1.3.3z"/>
  <path d="M146.3 15.2h-.4a1 1 0 01-.7-.5 1 1 0 01.2-1.2l.4-.2.6-.2a2.3 2.3 0 01.8 0c0-.3-.1-.5-.3-.6h-1l-.5.4-.3-.5c.4-.3.8-.5 1.3-.6.5 0 .8 0 1.1.3.3.2.5.5.5 1l.1 1v.1h.2l.1.7-.3.1h-.4l-.2-.3v-.2l-.5.5-.7.2zm.2-.6l.4-.1.3-.2v-.7a2 2 0 00-.6 0c-.2 0-.4 0-.5.2-.2 0-.2.2-.2.4 0 .1 0 .2.2.3l.4.1z"/>
  <path fill="#FFF" d="M146.2 16.3a2.2 2.2 0 01-1.3-.5 2 2 0 01-.8-1.4 2 2 0 01.3-1.2l-.2-.3a1 1 0 01.2-1.3c.6-.5 1.2-.7 1.9-.8.7 0 1.3 0 1.8.4.4.3.8.8 1 1.7v.7l.3.5v.7c0 .5-.2 1-.7 1.1l-.5.2-.8-.1a2.6 2.6 0 01-1.2.3z"/>
  <path d="M150.2 14.8h-.8a2 2 0 01-.7-.3l.2-.6.6.3h.6l.4-.1v-.3l-.1-.3h-.6l-.5-.2-.4-.1a.6.6 0 01-.2-.2l-.2-.3v-.5l.3-.4.4-.2.5-.2h.7l.6.3-.3.6a2 2 0 00-.5-.2h-.5-.3l-.1.4.2.2h.5l.6.2.4.1.2.3.2.3c0 .3 0 .6-.3.8-.2.2-.5.3-1 .4z"/>
  <path fill="#FFF" d="M149.9 15.8h-.7a3 3 0 01-1.1-.5 1 1 0 01-.4-1.2l.2-.4-.1-.2c-.2-.2-.2-.4-.3-.7a2 2 0 011.3-2.2l.7-.2h1l1 .5c.5.3.7.8.4 1.3v.2l.2.3c.2.2.3.5.3.8a2 2 0 01-.6 1.6c-.3.4-.8.6-1.5.7h-.4z"/>
  <path d="M153.2 14.4h-.8a2 2 0 01-.7-.3l.2-.6.7.2h.9l.1-.4s0-.2-.2-.2h-.6l-.5-.2-.4-.1a.6.6 0 01-.2-.2l-.2-.3v-.5l.3-.3c0-.2.2-.2.4-.3l.5-.2h.6c.3 0 .5.2.7.3l-.3.5a2 2 0 00-.5-.2h-.5c-.1 0-.2 0-.3.2l-.1.3.2.2h.5l.6.1.4.2.3.2v.3c.1.4 0 .6-.2.8-.2.3-.5.4-.9.5z"/>
  <path fill="#FFF" d="M152.9 15.4h-.7a3 3 0 01-1-.4 1 1 0 01-.5-1.3l.2-.4-.1-.1-.3-.8v-.9l.5-.8.7-.4c.2-.2.5-.3.8-.3h1c.4 0 .7.2 1 .4.5.3.6.9.4 1.3v.2a1.7 1.7 0 01.5 1 2 2 0 01-.5 1.8c-.4.3-.9.6-1.5.7h-.5z"/>
  <path d="M156.5 13.8h-.7a1.6 1.6 0 01-1.2-1.3v-.7a1.6 1.6 0 01.7-1c.2-.2.4-.3.7-.3h.7a1.6 1.6 0 011 .8l.2.6v.2l-2.4.5.1.3a.8.8 0 00.5.3h.4c.1 0 .3 0 .4-.2l.2-.3h.8l-.5.7c-.2.2-.5.4-.9.4zm.5-2c0-.3-.2-.5-.3-.6a.8.8 0 00-.7-.1.8.8 0 00-.5.3l-.1.3v.3l1.6-.3z"/>
  <path fill="#FFF" d="M156.2 14.9a2.6 2.6 0 01-2.3-1.3 2.7 2.7 0 01-.4-2 2.6 2.6 0 011.2-1.7l1-.4h1.2a2.7 2.7 0 011.7 1.2c.2.3.3.6.3 1V13c-.2.5-.4.9-.8 1.2-.4.3-.8.5-1.4.6a3 3 0 01-.5 0z"/>
  <path d="M156 78.7l-.6 4.4-.9-.1.3-1.9-2-.3-.2 1.9-.9-.1.6-4.4.9.1-.3 1.8 2 .3.3-1.8.8.1z"/>
  <path fill="#FFF" d="M155.4 84.1h-.2l-.8-.1a1 1 0 01-.9-1 1 1 0 01-1 .7l-1-.1a1 1 0 01-.8-1.2l.6-4.3a1 1 0 011.2-1l.8.2c.5 0 .8.4.9.9a1 1 0 011.1-.6l.8.1c.6 0 1 .6 1 1.2l-.7 4.3a1 1 0 01-1 1z"/>
  <path d="M156.2 83.2l.5-3.2.8.1-.5 3.2h-.8zm.5-3.7l.1-.8.9.1-.1.9-.9-.2z"/>
  <path fill="#FFF" d="M157 84.4h-.1l-.8-.2a1 1 0 01-1-1.1l.5-3.3.1-.2v-.2l.1-.8a1 1 0 011.2-1l.8.2c.6 0 1 .6.9 1.2l-.1.8v.4l-.5 3.3c-.1.5-.6.9-1 .9z"/>
  <path d="M160.8 83.9l-.9-.2.3-1.8v-.6l-.4-.2h-.3l-.2.1-.3.2-.1.3-.3 1.8h-.8l.4-3.3.8.1-.1.6c.1-.2.3-.3.6-.4.2 0 .5-.1.8 0l.4.1c.2.1.2.2.3.4v.8l-.2 2z"/>
  <path fill="#FFF" d="M160.8 84.9h-.2l-.8-.1a1 1 0 01-.6-.4 1 1 0 01-.7.2l-.9-.1a1 1 0 01-.8-1.2l.4-3.2c0-.6.6-1 1.2-1l.7.2.4.1h1c.3 0 .6.2.9.4l.6.8.1.7v.7l-.3 2c0 .5-.5.9-1 .9z"/>
  <path d="M163.4 84l-.4.1h-.8a.7.7 0 01-.4-.4v-.5l.2-1.8h-.4v-.7h.5l.2-1 .8.1-.2 1 .7.2v.6h-.8l-.2 1.5v.2l.3.1h.4l.1.7z"/>
  <path fill="#FFF" d="M162.7 85.2a2.2 2.2 0 01-1-.2 1.7 1.7 0 01-1-1.1v-.8l.2-1-.1-.1a1 1 0 01-.2-.8v-.6c.1-.4.3-.7.6-.8v-.2c.1-.6.6-1 1.2-1l.8.2a1 1 0 01.9 1.2c.4.3.6.7.5 1.1v.6c-.1.4-.3.7-.7.8.3.2.4.5.5.8v.6c.1.5-.2 1-.7 1.2a4.8 4.8 0 01-1 .1z"/>
  <path d="M165.2 84.5c-.2 0-.5 0-.7-.2a1.6 1.6 0 01-.7-1.6c0-.3 0-.5.2-.7a1.6 1.6 0 011-.8h.7l.7.2.5.5.2.6a1.8 1.8 0 010 .9l-2.5-.4v.4a.8.8 0 00.7.5h.5c.2 0 .3-.2.4-.3l.6.3c-.1.2-.3.4-.6.5-.3.2-.6.2-1 .1zm1.1-1.8c0-.2 0-.4-.2-.6a.8.8 0 00-.5-.3.8.8 0 00-1 .7l1.7.2z"/>
  <path fill="#FFF" d="M165.5 85.6h-.4c-.4 0-.8-.2-1-.4a2.7 2.7 0 01-1.4-2.7c0-.3.2-.7.4-1a2.6 2.6 0 011.6-1.3h1.1a2.8 2.8 0 011.9 1c.2.4.4.7.4 1a2.8 2.8 0 010 1.6l-.2.3-.2.4c-.3.4-.6.7-1.1.9l-1 .2z"/>
  <path d="M169.7 82.6h-.7c-.2 0-.4.2-.5.4l-.3 2-.8-.2.5-3.2h.7v.8a1.4 1.4 0 01.5-.5l.3-.1h.4l-.1.8z"/>
  <path fill="#FFF" d="M168.2 86h-.1l-.8-.2a1 1 0 01-.9-1.1l.5-3.3a1 1 0 011.1-.8h.8l.3.2h1c.5.2.8.7.7 1.2v.7c-.2.6-.7 1-1.2.9h-.1l-.2 1.5c-.1.5-.5.8-1 .8z"/>
  <path d="M171.1 85.4l-.7-.2a1.6 1.6 0 01-.7-1.7c0-.2 0-.4.2-.6a1.6 1.6 0 011-.8h.7c.3 0 .5 0 .7.2l.5.4.2.6a1.8 1.8 0 010 1l-2.5-.4v.3a.8.8 0 00.7.6h.5l.4-.3.7.3-.7.5h-1zm1.1-1.8l-.1-.7a.8.8 0 00-.6-.3.8.8 0 00-1 .7l1.7.3z"/>
  <path fill="#FFF" d="M171.4 86.4h-.4c-.4 0-.8-.2-1-.4a2.7 2.7 0 01-1.4-2.7l.4-1a2.6 2.6 0 012.8-1.3 2.8 2.8 0 011.8 1.1c.2.3.4.6.4 1a2.8 2.8 0 010 1.5l-.2.3-.2.4c-.3.4-.6.7-1.1 1l-1 .1z"/>
  <path d="M178 83l-.2-.1a2 2 0 00-.6-.4h-.9c-.1 0-.2.1-.2.3v.2c0 .1 0 .2.2.2l.3.2a11.8 11.8 0 001 .4l.3.3.3.4v.6l-.2.5-.4.4-.6.1h-.6a3.3 3.3 0 01-1.8-.8l.5-.7.2.2a3 3 0 00.7.4l.5.2c.5 0 .7 0 .8-.4v-.2l-.3-.2-.3-.2a46 46 0 00-1.3-.8l-.2-.3v-.5c0-.2 0-.4.2-.6l.4-.3.5-.2h.7l.8.2.6.5-.5.6z"/>
  <path fill="#FFF" d="M176.8 87.2h-.6A4.3 4.3 0 01174 86a1 1 0 01-.1-1.3l.5-.7a2 2 0 01-.2-1.3l.4-1c.2-.3.5-.6.8-.7.2-.2.5-.3.9-.4h.9l1.2.4.8.6c.4.4.5 1 .1 1.4l-.4.6a2 2 0 01.4 1.6c0 .4-.2.8-.4 1-.2.3-.5.6-.8.7a2.6 2.6 0 01-1.2.3z"/>
  <path d="M180.5 86.5h-1-.3a.7.7 0 01-.4-.4v-.4l.3-1.9h-.4V83h.5l.1-1 .8.2-.1 1h.7l-.1.7h-.7l-.2 1.5v.3h.7v.7z"/>
  <path fill="#FFF" d="M179.8 87.6a2.8 2.8 0 01-1-.2 1.7 1.7 0 01-1-1v-.9l.1-1a1 1 0 01-.3-.9l.1-.6a1 1 0 01.6-.8V82c0-.6.6-1 1.2-.9l.8.1a1 1 0 01.9 1.2c.3.3.6.7.5 1.1v.7c-.1.3-.4.6-.7.8.3.1.4.4.4.7l.1.7c0 .5-.2 1-.7 1a4.7 4.7 0 01-1 .2z"/>
  <path d="M182.3 87c-.3 0-.5-.1-.7-.3a1.6 1.6 0 01-.7-1v-.6l.1-.7a1.6 1.6 0 011-.7c.3 0 .5-.1.8 0 .2 0 .5 0 .7.2.2 0 .3.2.4.4l.3.6a1.8 1.8 0 010 .9l-2.5-.4v.4a.8.8 0 00.7.6h.5c.2-.1.3-.2.3-.4l.7.3c-.1.3-.4.4-.6.6h-1zm1.1-1.8c0-.3 0-.5-.2-.7a.8.8 0 00-.5-.3.8.8 0 00-.8.4l-.2.3 1.7.3z"/>
  <path fill="#FFF" d="M182.6 88h-.4c-.4 0-.8-.2-1.1-.4a2.6 2.6 0 01-1.3-2.7l.3-1a2.6 2.6 0 012.8-1.3c.4 0 .8.2 1.1.4a2.7 2.7 0 011.2 1.7v1.5l-.3.3-.1.4-1.1 1-1 .1z"/>
  <path d="M186.8 85h-.7l-.5.4-.3 2-.8-.2.4-3.2.8.1v.7a1.5 1.5 0 01.7-.6h.3a4.7 4.7 0 00.2 0l-.1.8z"/>
  <path fill="#FFF" d="M185.3 88.4h-.1l-.9-.2a1 1 0 01-.8-1.1l.4-3.2a1 1 0 011.2-1l.8.2.3.1h1c.5.2.8.7.7 1.2l-.1.7c0 .6-.6 1-1.2 1l-.3 1.4c0 .5-.5.9-1 .9z"/>
  <path d="M189.9 88l-.9-.1.3-1.8v-.6c-.1-.2-.2-.2-.4-.3h-.3l-.2.2-.3.1-.1.3-.3 1.9-.8-.1.4-3.3.8.1-.1.6.6-.4h.8c.2 0 .3 0 .4.2.2 0 .2.2.3.3v.9l-.2 2z"/>
  <path fill="#FFF" d="M189.9 89h-.2l-.8-.1a1 1 0 01-.6-.4 1 1 0 01-.7.2l-.9-.1a1 1 0 01-.8-1.2l.4-3.2c0-.6.6-1 1.2-.9l.7.1c.2 0 .3 0 .4.2h1l.9.3.6.8.1.8v.6l-.3 2c0 .5-.5 1-1 1z"/>
  <path d="M191.8 88.3a1.3 1.3 0 01-1-.6l-.2-.6v-.6l.2-.7.4-.5a1.4 1.4 0 011.8 0l.4.5v-.6l.8.1-.4 3a1.5 1.5 0 01-.7 1.1l-.6.2h-.7a2 2 0 01-.9-.3l-.6-.5.6-.4c0 .2.2.3.4.4a1.4 1.4 0 001 .2h.3l.2-.3.1-.4.1-.4-.5.3h-.7zm.4-.6h.3a1 1 0 00.6-.5l.1-.7a1 1 0 00-.3-.5.8.8 0 00-.5-.3h-.3l-.3.2-.2.3-.1.4v.4l.1.3.3.2.3.2z"/>
  <path fill="#FFF" d="M192.1 90.7a3.6 3.6 0 01-1.8-.5c-.3-.2-.6-.5-.8-.9a1 1 0 01.2-1.4h.1a2.7 2.7 0 01-.2-1.6 3 3 0 011-1.8 2.4 2.4 0 012.7-.3h1c.6.2 1 .7 1 1.3l-.5 3c0 .4-.2.8-.4 1-.2.4-.5.6-.8.8a2.7 2.7 0 01-1.5.4zm.1-4h.2-.2z"/>
  <path d="M195.4 88.8l-.5-.1a1 1 0 01-.5-.6 1 1 0 01.2-.9l.3-.2.5-.2h.5a2.5 2.5 0 01.8.3v-.2l-.1-.5c-.1-.2-.3-.3-.5-.3h-.5l-.6.2-.2-.5 1.4-.3c.5.1.9.3 1 .5.3.3.4.7.3 1l-.1 1v.3h.1v.8h-.4l-.4-.2v-.5a1.5 1.5 0 01-1.3.4zm.3-.5h.4l.3-.2.2-.2v-.4a2 2 0 00-.6-.2h-.6l-.2.4.1.4.4.2z"/>
  <path fill="#FFF" d="M197.3 90.1h-.4c-.3 0-.5-.2-.7-.3h-1c-.3 0-.5 0-.8-.2a2.1 2.1 0 01-1-1.2 2 2 0 01.6-2l-.1-.3a1 1 0 01.5-1.3c.6-.3 1.3-.4 2-.3.7.1 1.3.4 1.7.9.3.3.6 1 .4 1.8V89.2c-.1.5-.5.9-1 .9h-.2z"/>
  <path d="M199.2 89.4l-.8-.3a2 2 0 01-.6-.4l.4-.5.5.4.6.2h.4l.2-.3c0-.1 0-.2-.2-.3l-.5-.2a7 7 0 01-.5-.3l-.3-.2a.6.6 0 01-.2-.6c0-.2 0-.3.2-.4l.3-.3.4-.2h.5l.7.2.5.4-.4.5a2 2 0 00-.4-.3l-.5-.2h-.3l-.2.3V87.2h.3l.3.2.5.2.4.3.2.3v.3c0 .4-.2.6-.5.7-.2.2-.6.2-1 .2z"/>
  <path fill="#FFF" d="M199.5 90.4h-.4c-.4 0-.8-.2-1.1-.3a3 3 0 01-1-.8 1 1 0 010-1.3l.3-.3v-.2c-.1-.2-.2-.5-.1-.7a2 2 0 011-1.5c.2-.2.4-.2.7-.3h.9l1 .3.8.7c.3.4.3 1 0 1.3l-.1.2.1.4.1.8a2 2 0 01-1 1.4c-.3.2-.7.3-1.2.3z"/>
  <path d="M202.3 89.8l-.8-.2a2 2 0 01-.6-.5l.4-.5.5.4.5.2h.4l.2-.3-.1-.2-.5-.3-.5-.2-.4-.3a.6.6 0 01-.2-.6l.2-.4.3-.3.5-.1h.5c.2 0 .4 0 .6.2.2 0 .4.2.6.4l-.4.4a2 2 0 00-.5-.3l-.4-.2h-.4l-.2.3v.2h.1l.2.2.3.1.6.3.3.2.2.3v.4c0 .3-.2.5-.4.7-.3.1-.6.2-1 .1z"/>
  <path fill="#FFF" d="M202.6 90.9h-.5l-1-.4a3 3 0 01-1-.7 1 1 0 010-1.3l.2-.4V88c-.1-.3-.1-.5 0-.8a2 2 0 011.7-1.8h.8c.4 0 .7.2 1 .3l.8.7c.4.4.4 1 0 1.4l-.1.1a1.7 1.7 0 01.2 1.2 2 2 0 01-1 1.5c-.3.2-.7.3-1.1.3z"/>
  <path d="M205.6 90.3l-.7-.2a1.6 1.6 0 01-.8-1.7l.3-.6a1.6 1.6 0 011-.8h.7c.3 0 .5 0 .7.2l.5.4.2.6a1.8 1.8 0 010 1l-2.5-.4v.3l.2.3.2.2h.8l.4-.2.6.3c-.1.2-.3.4-.6.5h-1zm1.1-1.8c0-.3 0-.5-.2-.7a.8.8 0 00-.5-.3.8.8 0 00-.8.4l-.1.3 1.6.3z"/>
  <path fill="#FFF" d="M206 91.3h-.5c-.4 0-.8-.2-1.1-.4a2.6 2.6 0 01-1.3-2.7c0-.3.2-.6.4-1A2.6 2.6 0 01205 86h1.1a2.8 2.8 0 011.9 1l.4 1v1.5l-.2.3-.2.4-1.1 1-1 .1z"/>
  <path fill="#00A6CF" d="M12.6 112.3l-1.2-.3a3 3 0 01-1.5-1.7 3.2 3.2 0 01.6-3.3 3 3 0 012.1-1c.5 0 .9.2 1.2.4.4.1.7.4 1 .7a3.3 3.3 0 01.8 2 3 3 0 01-1.8 3l-1.2.2zm-1.8-3.1c0 .2 0 .5.2.7 0 .3.2.5.3.7l.6.4c.2.2.4.2.7.2a1.6 1.6 0 001.3-.6l.4-.7a2.4 2.4 0 000-1.5 2 2 0 00-.4-.6l-.5-.5-.8-.2a1.6 1.6 0 00-1.3.7l-.3.6-.2.8z"/>
  <path fill="#FFF" d="M12.6 113.7a4.2 4.2 0 01-3.2-1.4 4.6 4.6 0 011.4-7.3 4.3 4.3 0 013.7 0 4.5 4.5 0 012.2 2.5 4.6 4.6 0 01-2.3 5.8c-.5.3-1.2.4-1.8.4zm0-5.1h-.2v.3a1 1 0 000 .6v.2H12.7l.2-.2a1 1 0 000-.6l-.1-.2-.1-.1z"/>
  <path fill="#00A6CF" d="M19 112.3c-.3 0-.6 0-.8-.2l-.7-.7v2.6h-1.1v-6.3h1v.8l.6-.6c.3-.2.6-.3 1-.3a2 2 0 011.4.7l.5.8.1.9-.1.9-.4.7-.6.5-.8.2zm-.3-1h.5l.3-.4.3-.4a1.6 1.6 0 000-1c0-.2-.2-.4-.3-.5a1.2 1.2 0 00-.9-.4 1.2 1.2 0 00-1 .5v1.3c0 .3.2.5.4.7l.7.2z"/>
  <path fill="#FFF" d="M17.5 115.5h-1.1c-.8 0-1.5-.7-1.5-1.5v-6.3c0-.8.7-1.4 1.5-1.4h1.5a3.5 3.5 0 014.3 2.3c.2.4.3.9.3 1.4 0 .4 0 1-.2 1.3l-.7 1.3-1 .8c-.6.3-1 .4-1.6.4v.2c0 .8-.7 1.5-1.5 1.5zm1-5.5h0z"/>
  <path fill="#00A6CF" d="M24 112.3c-.5 0-.8 0-1-.2a2.2 2.2 0 01-1.5-2.1c0-.3 0-.6.2-1a2.2 2.2 0 011.2-1.2l1-.2 1 .2.7.5.5.8a2.5 2.5 0 01.1 1.2h-3.4v.5a1.2 1.2 0 001.2.7c.2 0 .4 0 .6-.2l.4-.4 1 .2a2 2 0 01-.8.9c-.4.2-.8.3-1.3.3zm1-2.7c0-.3 0-.6-.3-.8-.2-.2-.5-.3-.8-.3a1.2 1.2 0 00-.8.3 1.2 1.2 0 00-.4.8h2.4z"/>
  <path fill="#FFF" d="M24 113.8a4 4 0 01-1.6-.3A3.7 3.7 0 0120 110c0-.5 0-1 .3-1.4a3.7 3.7 0 012-2.1c1-.4 2.1-.4 3 0a3.7 3.7 0 012 2 3.9 3.9 0 01.2 2.2c0 .1 0 .3-.2.4v.7a3.9 3.9 0 01-3.4 2z"/>
  <path fill="#00A6CF" d="M29.6 108.7c-.3 0-.6 0-.9.2-.3.1-.5.3-.6.6v2.7H27v-4.5h1v1a2 2 0 011-1h.6v1z"/>
  <path fill="#FFF" d="M28.1 113.7H27c-.8 0-1.5-.7-1.5-1.5v-4.5c0-.8.7-1.4 1.5-1.4h2.9c.7 0 1.2.7 1.2 1.4v1a1.4 1.4 0 01-1.5 1.5v2c0 .8-.7 1.5-1.5 1.5z"/>
  <path fill="#00A6CF" d="M34.5 112.2h-1.2v-2.5c0-.4 0-.6-.2-.8a.6.6 0 00-.5-.2 1 1 0 00-.4 0l-.3.2-.3.3-.2.4v2.6h-1.1v-4.5h1v.9c.2-.3.4-.6.7-.7.4-.2.7-.3 1.1-.3l.7.2.4.4.2.6v3.4z"/>
  <path fill="#FFF" d="M34.5 113.7h-1.2c-.3 0-.7-.2-1-.4-.2.2-.5.4-.9.4h-1.1c-.8 0-1.5-.7-1.5-1.5v-4.5c0-.8.7-1.4 1.5-1.4h1.6l1.2-.1c.5 0 1 .1 1.4.3l1 1c.1.3.3.6.3 1l.1 1v2.7c0 .8-.6 1.5-1.4 1.5z"/>
  <path fill="#00A6CF" d="M39.6 112.2h-1.1v-2.5c0-.4 0-.6-.2-.8a.7.7 0 00-.6-.2h-.3l-.3.2-.3.3-.2.4v2.6h-1.1V106h1.1v2.6c.2-.3.4-.6.7-.7a1.9 1.9 0 011.6-.1l.5.4.2.6v3.4z"/>
  <path fill="#FFF" d="M39.6 113.7h-1.1c-.4 0-.7-.2-1-.4-.2.2-.5.4-.9.4h-1.1c-.8 0-1.5-.7-1.5-1.5V106c0-.8.7-1.5 1.5-1.5h1.1c.8 0 1.5.7 1.5 1.5v.2a3 3 0 011.5.3c.4.2.8.6 1 1l.4 1v3.7c0 .8-.6 1.5-1.4 1.5z"/>
  <path fill="#00A6CF" d="M41.9 112.3l-.6-.1a1.4 1.4 0 01-.8-.8 1.4 1.4 0 010-1.1c0-.2.2-.3.4-.5l.6-.3h.8a3.4 3.4 0 011 .1v-.2c0-.3 0-.6-.2-.7-.2-.2-.4-.3-.8-.3a2 2 0 00-.7.2l-.7.4-.3-.8c.6-.4 1.2-.6 1.9-.6.6 0 1.1.2 1.5.5.3.3.5.8.5 1.4v1.7h.3v1h-1a.6.6 0 01-.3-.5v-.2a2 2 0 01-1.6.8zm.3-.8l.6-.1.4-.3.1-.3v-.6a2.9 2.9 0 00-.9-.1c-.3 0-.5 0-.7.2-.2.1-.3.3-.3.5s.1.3.3.5l.5.2z"/>
  <path fill="#FFF" d="M41.9 113.8l-1.1-.2A3 3 0 0139 112a2.8 2.8 0 01.4-2.8l-.2-.3c-.3-.7-.1-1.5.5-1.9.8-.5 1.7-.8 2.7-.8 1 0 1.8.3 2.4.8.5.5 1 1.2 1 2.5v.9c.2.2.3.5.3.8v1c0 .7-.5 1.3-1.1 1.4-.9.2-1.5.1-1.9-.1-.4.2-.9.3-1.3.3z"/>
  <path fill="#00A6CF" d="M47 112.3c-.5 0-.9-.1-1.1-.4-.3-.3-.4-.8-.4-1.4v-2.8h1.2v2.6c0 .7.2 1 .7 1 .2 0 .5 0 .7-.2.2-.1.4-.3.5-.6v-2.8h1.1v3.2l.1.3h.2v1a2.7 2.7 0 01-.5 0H49a.6.6 0 01-.2-.5v-.3a2 2 0 01-.8.7l-1 .2z"/>
  <path fill="#FFF" d="M47 113.8c-1.2 0-1.9-.6-2.2-1-.5-.6-.7-1.3-.7-2.3v-2.8c0-.8.6-1.4 1.4-1.4h1.2c.3 0 .7.1 1 .3.2-.2.5-.3.9-.3h1.1c.8 0 1.5.6 1.5 1.4v2.7c.2.2.3.5.3.8v1c0 .7-.5 1.3-1.2 1.4a3.8 3.8 0 01-.8.1c-.4 0-.8 0-1-.2-.5.2-1 .3-1.6.3z"/>
  <path fill="#00A6CF" d="M52.6 112.3c-.4 0-.8 0-1.1-.2-.4 0-.7-.3-1-.5l.5-.7.8.4.7.2.6-.1.2-.4c0-.2 0-.3-.2-.4l-.8-.2-.7-.3c-.3 0-.4-.1-.5-.2a.9.9 0 01-.3-.3l-.1-.5.1-.6.4-.5.6-.3h1.7l.7.6-.4.7-.7-.4-.6-.1a1 1 0 00-.5 0c-.2.2-.2.3-.2.5v.2h.2l.2.2.4.1.8.3.6.2.3.4v.5c0 .4 0 .8-.4 1-.3.3-.8.4-1.3.4z"/>
  <path fill="#FFF" d="M52.6 113.8c-.6 0-1-.1-1.6-.3-.5-.2-1-.4-1.4-.8-.5-.5-.7-1.2-.3-1.8l.3-.5-.1-.2c-.2-.3-.3-.7-.3-1a2.8 2.8 0 012.1-2.8c.8-.3 1.8-.3 2.6 0 .4.2.9.4 1.3.8.5.5.6 1.3.2 1.9l-.1.2.3.5c.2.3.2.7.2 1 0 1-.3 1.7-1 2.3-.6.4-1.3.7-2.2.7z"/>
  <path fill="#00A6CF" d="M213.8 120.8v4h-1.2v-6.2h1l3.1 4v-4h1.2v6.1h-1l-3-3.9z"/>
  <path fill="#FFF" d="M217.9 126.2h-1c-.4 0-.8-.2-1-.6l-.7-.7c0 .7-.7 1.3-1.4 1.3h-1.2c-.8 0-1.4-.7-1.4-1.5v-6c0-.9.6-1.5 1.4-1.5h1c.4 0 .8.2 1 .5l.7.8c0-.7.7-1.3 1.4-1.3h1.2c.8 0 1.4.6 1.4 1.4v6.1c0 .8-.6 1.5-1.4 1.5z"/>
  <path fill="#00A6CF" d="M220.4 124.8c-.4 0-.8-.1-1-.4-.3-.3-.4-.8-.4-1.4v-2.8h1.2v2.6c0 .7.2 1 .7 1 .2 0 .4 0 .7-.2l.5-.6v-2.8h1.1v3.5h.3v1a2.5 2.5 0 01-.5 0h-.5a.6.6 0 01-.2-.5v-.3a2 2 0 01-.8.7l-1 .2zm-.6-5.3v-1h1v1h-1zm1.7 0v-1h1v1h-1z"/>
  <path fill="#FFF" d="M220.4 126.3c-1.1 0-1.8-.6-2.2-1-.4-.6-.6-1.3-.6-2.3v-2.8c0-.5.3-1 .8-1.3v-.4c0-.8.6-1.4 1.4-1.4h2.7c.7 0 1.4.6 1.4 1.4v.4c.4.3.8.8.8 1.3v2.7l.2.8v1c0 .7-.4 1.3-1.1 1.4a3.7 3.7 0 01-.8.1c-.4 0-.8 0-1-.2-.6.2-1 .3-1.6.3z"/>
  <path fill="#00A6CF" d="M227 121.2l-.9.2c-.3.2-.5.3-.6.6v2.7h-1.1v-4.5h1v1a2 2 0 011-1h.6v1z"/>
  <path fill="#FFF" d="M225.5 126.2h-1.1c-.8 0-1.5-.7-1.5-1.5v-4.5c0-.8.7-1.4 1.5-1.4h2.9c.7 0 1.2.7 1.2 1.4v1c0 .8-.6 1.5-1.4 1.5h-.1v2c0 .8-.7 1.5-1.5 1.5z"/>
  <path fill="#00A6CF" d="M231.9 124.7h-1.2v-2.5c0-.4 0-.6-.2-.8a.6.6 0 00-.5-.2 1 1 0 00-.4 0l-.3.2-.3.3-.2.4v2.6h-1.1v-4.5h1v.9l.7-.7c.4-.2.7-.2 1.1-.2l.7.1.4.4.2.6v3.4z"/>
  <path fill="#FFF" d="M231.9 126.2h-1.2c-.3 0-.7-.2-1-.4-.2.2-.5.4-.9.4h-1.1c-.8 0-1.5-.7-1.5-1.5v-4.5c0-.8.7-1.4 1.5-1.4h2.8c.5 0 1 0 1.4.3.4.2.7.5 1 .9.1.3.3.6.3 1l.1 1v2.7c0 .8-.6 1.5-1.4 1.5z"/>
  <path fill="#00A6CF" d="M235.4 124.8c-.3 0-.6 0-.9-.2-.3-.2-.5-.4-.6-.7v.8h-1v-6.2h1.1v2.5l.6-.6c.3-.2.6-.2 1-.2l.8.1.6.5.4.8a2.9 2.9 0 010 1.8l-.5.7a2 2 0 01-.6.5 2 2 0 01-.9.2zm-.3-1a1.2 1.2 0 001.2-.8v-.5a1.6 1.6 0 00-.3-1l-.4-.3a1 1 0 00-1.2.1l-.4.7v1l.2.4a1.3 1.3 0 00.6.4h.3z"/>
  <path fill="#FFF" d="M235.4 126.3l-1-.2h-1.5c-.8 0-1.5-.6-1.5-1.4v-6.2c0-.8.7-1.5 1.5-1.5h1.1c.8 0 1.5.7 1.5 1.5v.2a3.2 3.2 0 012.6 1.2l.7 1.2a4.3 4.3 0 010 2.8 3.7 3.7 0 01-2 2c-.4.3-.9.4-1.4.4zm-.5-3.8h.4-.3z"/>
  <path fill="#00A6CF" d="M240.4 124.8c-.4 0-.7 0-1-.2a2.2 2.2 0 01-1.4-2.1c0-.3 0-.6.2-.9a2.2 2.2 0 011.2-1.3l1-.1 1 .1.7.5.5.8a2.5 2.5 0 01.1 1.2h-3.5l.2.5a1.2 1.2 0 001 .7c.3 0 .5 0 .7-.2l.4-.4 1 .2a2 2 0 01-.8.9c-.4.2-.8.3-1.3.3zm1.2-2.7c0-.3-.2-.6-.4-.8-.2-.2-.5-.3-.8-.3a1.1 1.1 0 00-1 .6l-.2.5h2.4z"/>
  <path fill="#FFF" d="M240.4 126.3a3.7 3.7 0 01-3.8-3.8c0-.5 0-1 .2-1.4a3.6 3.6 0 012-2c1-.5 2.2-.5 3.2 0a3.7 3.7 0 012.1 4.1c0 .2 0 .3-.2.4l-.1.7c-.3.6-.8 1-1.4 1.4-.6.4-1.2.6-2 .6z"/>
  <path fill="#00A6CF" d="M246.1 121.2l-1 .2c-.2.2-.4.3-.5.6v2.7h-1.2v-4.5h1.1v1a2 2 0 011-1h.6v1z"/>
  <path fill="#FFF" d="M244.6 126.2h-1.2c-.8 0-1.4-.7-1.4-1.5v-4.5c0-.8.6-1.4 1.4-1.4h3c.7 0 1.2.7 1.2 1.4v1c0 .8-.7 1.5-1.5 1.5v2c0 .8-.7 1.5-1.5 1.5z"/>
  <path fill="#00A6CF" d="M248.3 124.8a1.9 1.9 0 01-1.5-.7l-.4-.7-.1-1 .1-.8.5-.8a2 2 0 012.4-.4l.6.6v-.8h1v4.3l-.1.9a2 2 0 01-.6.7l-.8.4-1 .1c-.5 0-.9 0-1.2-.2l-.9-.7.7-.6.6.5a2 2 0 001.4.1l.4-.2.3-.4v-1.2c0 .3-.3.5-.5.6l-.9.3zm.4-1h.3a1.3 1.3 0 00.8-.7v-1c-.1-.4-.3-.6-.5-.7-.2-.2-.4-.3-.7-.3a1 1 0 00-.5.1l-.3.4-.3.4v.5a1.4 1.4 0 00.3 1l.4.2.5.1z"/>
  <path fill="#FFF" d="M248.4 128c-.7 0-1.3 0-1.8-.3a4 4 0 01-1.4-1c-.5-.7-.4-1.5.1-2l.1-.1c-.1-.2-.3-.5-.3-.8a4 4 0 01.7-4 3.4 3.4 0 013.6-1h1.5c.8 0 1.5.6 1.5 1.4v4.3a3.5 3.5 0 01-1.2 2.7l-1.3.7-1.5.2zm0-5.5h.4v-.1l-.4.1z"/>
  <path fill="#00A6CF" d="M259.3 118.6v6.1H258v-2.6h-2.8v2.6h-1.2v-6h1.2v2.4h2.8v-2.5h1.2z"/>
  <path fill="#FFF" d="M259.3 126.2H258c-.7 0-1.2-.5-1.4-1-.2.5-.7 1-1.4 1h-1.2c-.8 0-1.4-.7-1.4-1.5v-6c0-.9.6-1.5 1.4-1.5h1.2c.7 0 1.2.4 1.4 1 .2-.6.7-1 1.4-1h1.2c.8 0 1.4.6 1.4 1.4v6.1c0 .8-.6 1.5-1.4 1.5z"/>
  <path fill="#00A6CF" d="M261.6 124.8h-.6a1.5 1.5 0 01-.8-.8 1.4 1.4 0 010-1.2l.4-.5.6-.3h.8a3.4 3.4 0 011 .1v-.2c0-.3 0-.5-.2-.7-.1-.2-.4-.2-.7-.2a2 2 0 00-.7 0l-.7.5-.4-.8c.6-.4 1.2-.5 1.9-.5.6 0 1.1.1 1.5.4.4.3.5.8.5 1.4v1.4l.1.3h.2v1h-1a.6.6 0 01-.2-.4v-.3a2 2 0 01-1.7.8zm.3-.8l.6-.1.4-.3.2-.3v-.5a2.7 2.7 0 00-1-.2c-.2 0-.5 0-.7.2l-.2.5c0 .2 0 .3.2.5l.5.2z"/>
  <path fill="#FFF" d="M261.6 126.3a3.1 3.1 0 01-2-.8 2.9 2.9 0 01-1-2.1 2.7 2.7 0 01.6-1.7l-.2-.3c-.3-.7 0-1.5.5-1.9.8-.5 1.7-.8 2.7-.8 1 0 1.8.3 2.5.8.4.5 1 1.2 1 2.5v.9c.2.2.3.5.3.8v1c0 .7-.5 1.3-1.2 1.4-.8.2-1.4.1-1.8-.1l-1.4.3z"/>
  <path fill="#00A6CF" d="M266.7 124.8c-.5 0-.8-.1-1-.4-.3-.3-.4-.8-.4-1.4v-2.8h1.1v2.6c0 .7.3 1 .8 1 .2 0 .4 0 .6-.2.2-.1.4-.3.5-.6v-2.8h1.2v3.5h.2v1a2.5 2.5 0 01-.5 0h-.5a.6.6 0 01-.2-.5v-.3a2 2 0 01-.8.7l-1 .2z"/>
  <path fill="#FFF" d="M266.7 126.3c-1.2 0-1.8-.6-2.2-1-.5-.6-.7-1.3-.7-2.3v-2.8c0-.8.7-1.4 1.5-1.4h1.1c.4 0 .7.1 1 .3.2-.2.6-.3 1-.3h1c.9 0 1.5.6 1.5 1.4v2.7c.2.2.3.5.3.8v1c0 .7-.5 1.3-1.2 1.4a3.8 3.8 0 01-.8.1c-.3 0-.7 0-1-.2l-1.5.3z"/>
  <path fill="#00A6CF" d="M273.3 124.8c-.3 0-.7 0-1-.2l-.5-.7v2.7h-1.2v-6.4h1v.8c.2-.3.4-.5.7-.6.2-.2.5-.2.9-.2l.8.1.7.5.4.8.2.9c0 .3 0 .6-.2.9 0 .3-.2.5-.4.7a2 2 0 01-.6.5c-.2.2-.5.2-.8.2zm-.4-1h.5l.4-.4.2-.4a1.6 1.6 0 000-1c0-.2-.1-.4-.3-.5l-.4-.3a1.2 1.2 0 00-.8 0l-.3.1-.3.3-.1.3v1c0 .3.2.5.4.7.2.2.5.2.7.2z"/>
  <path fill="#FFF" d="M271.8 128h-1.2c-.8 0-1.4-.6-1.4-1.4v-6.4c0-.8.6-1.4 1.4-1.4h1.5a3.5 3.5 0 014.4 2.3l.2 1.4c0 .5 0 1-.2 1.4l-.7 1.2-1 .8c-.5.3-1 .4-1.6.4v.3c0 .8-.6 1.4-1.4 1.4zm.9-5.5h.4c-.1-.1-.2-.1-.4 0z"/>
  <path fill="#00A6CF" d="M278.7 124.5a5 5 0 01-.6.2l-.7.1h-.4a1 1 0 01-.6-.5l-.2-.6v-2.6h-.5v-.9h.5v-1.4h1.2v1.4h1v1h-1v2.1l.1.3.3.1h.4l.3-.1.2.9z"/>
  <path fill="#FFF" d="M277.4 126.3a3 3 0 01-.8-.2 2.4 2.4 0 01-1.8-2.4v-1.4c-.4-.3-.6-.7-.6-1.2v-.9c0-.4.2-.9.6-1.1v-.3c0-.8.6-1.5 1.4-1.5h1.2c.8 0 1.4.7 1.4 1.5.6.3 1 .8 1 1.4v1c0 .4-.3.9-.6 1.1.3.2.6.5.7 1l.2.8c.2.7-.2 1.4-.8 1.7l-.8.3-1 .2z"/>
  <path fill="#00A6CF" d="M281.8 124.8c-.3 0-.6 0-.9-.2-.2-.2-.5-.4-.6-.7v.8h-1v-6.2h1.1v2.5c.2-.3.4-.5.7-.6.2-.2.5-.2.9-.2l.8.1.6.5.4.8a2.9 2.9 0 010 1.8l-.5.7a2 2 0 01-.6.5 2 2 0 01-.9.2zm-.3-1a1.2 1.2 0 001-.4l.2-.4v-.5-.5c0-.2-.2-.3-.3-.5l-.3-.3a1 1 0 00-1.2.1l-.5.7v1l.2.4a1.3 1.3 0 00.6.4h.3z"/>
  <path fill="#FFF" d="M281.8 126.3l-1-.2h-1.5c-.8 0-1.5-.6-1.5-1.4v-6.2c0-.8.7-1.5 1.5-1.5h1.1c.8 0 1.5.7 1.5 1.5v.2a3.2 3.2 0 012.6 1.2l.7 1.2a4.3 4.3 0 010 2.8 3.7 3.7 0 01-2 2c-.4.3-.8.4-1.4.4zm-.5-3.8h.4-.3z"/>
  <path fill="#00A6CF" d="M286 124.8h-.7l-.4-.4a1.4 1.4 0 01-.5-1c0-.2 0-.4.2-.6 0-.2.2-.3.4-.5l.6-.3h.7a3.4 3.4 0 011.1.1v-.2c0-.3 0-.5-.2-.7-.2-.2-.4-.2-.8-.2a2 2 0 00-.7 0l-.7.5-.3-.8c.5-.4 1.2-.5 1.8-.5.7 0 1.2.1 1.5.4.4.3.6.8.6 1.4v1.7h.3v1h-1.1a.6.6 0 01-.2-.4v-.3a2 2 0 01-1.6.8zm.3-.8l.5-.1.4-.3c.2-.1.2-.2.2-.3v-.5a2.7 2.7 0 00-.9-.2c-.3 0-.5 0-.7.2-.2.1-.3.3-.3.5s0 .3.2.5l.6.2z"/>
  <path fill="#FFF" d="M286 126.3a3.1 3.1 0 01-2.1-.8 2.9 2.9 0 01-1-2.1 2.7 2.7 0 01.6-1.7l-.1-.3c-.4-.7-.1-1.5.5-1.9.8-.5 1.7-.8 2.6-.8 1 0 1.9.3 2.5.8.5.5 1 1.2 1 2.5v.9c.2.2.3.5.3.8v1c0 .7-.5 1.3-1.2 1.4-.8.2-1.4.1-1.8-.1-.4.2-.9.3-1.3.3z"/>
  <path fill="#00A6CF" d="M293.8 124.7h-1.1v-2.5c0-.4 0-.6-.2-.8a.7.7 0 00-.6-.2h-.3l-.3.2-.3.3-.2.4v2.6h-1.2v-6.2h1.2v2.6c.2-.3.4-.6.7-.7a1.9 1.9 0 011.6-.1l.5.4.2.6v3.4z"/>
  <path fill="#FFF" d="M293.8 126.2h-1.1c-.4 0-.7-.2-1-.4-.2.2-.5.4-.9.4h-1.2c-.8 0-1.4-.7-1.4-1.5v-6.2c0-.8.7-1.5 1.4-1.5h1.2c.8 0 1.4.7 1.4 1.5v.2a3 3 0 011.6.3l1 1 .4 1v3.7c0 .8-.6 1.5-1.4 1.5z"/>
  <path fill="#00A6CF" d="M299 124.7H298v-2.5l-.2-.8a.6.6 0 00-.6-.2 1 1 0 00-.3 0l-.3.2-.3.3-.2.4v2.6h-1.2v-4.5h1v.9l.8-.7c.3-.2.7-.2 1-.2l.7.1.5.4.2.6v3.4z"/>
  <path fill="#FFF" d="M299 126.2H298c-.4 0-.7-.2-1-.4-.2.2-.6.4-1 .4h-1c-.9 0-1.5-.7-1.5-1.5v-4.5c0-.8.6-1.4 1.4-1.4H297.7c.5 0 1 0 1.4.3.4.2.7.5.9.9l.4 1v3.7c0 .8-.6 1.5-1.4 1.5z"/>
  <g>
    <path fill="#00A6CF" d="M304.2 124.7H303v-2.5c0-.4 0-.6-.2-.8a.7.7 0 00-.5-.2h-.3l-.4.2-.2.3-.2.4v2.6H300v-6.2h1.2v2.6c.1-.3.4-.6.6-.7a2 2 0 011.7-.1l.4.4.2.6v3.4z"/>
    <path fill="#FFF" d="M304.2 126.2H303c-.3 0-.6-.2-.9-.4-.3.2-.6.4-1 .4h-1c-.9 0-1.5-.7-1.5-1.5v-6.2c0-.8.6-1.5 1.4-1.5h1.2c.8 0 1.4.7 1.4 1.5v.2a3 3 0 011.6.3l1 1 .4 1v3.7c0 .8-.6 1.5-1.4 1.5z"/>
  </g>
  <g>
    <path fill="#00A6CF" d="M307.3 124.8c-.4 0-.7 0-1-.2a2.2 2.2 0 01-1.2-1.2 2.4 2.4 0 010-1.8 2.2 2.2 0 012.2-1.4l1 .1a2.2 2.2 0 011.2 1.3 2.5 2.5 0 01-.5 2.5l-.7.5-1 .2zm-1.2-2.3v.5l.3.5a1 1 0 00.9.3 1 1 0 00.8-.3l.3-.5v-.5-.6l-.3-.4a1.1 1.1 0 00-.8-.4 1 1 0 00-.5.1l-.4.3-.2.4-.1.6z"/>
    <path fill="#FFF" d="M307.3 126.3a3.7 3.7 0 01-3.8-3.8 4 4 0 011-2.6c.3-.4.7-.7 1.2-.9 1-.4 2.2-.4 3.1 0a3.7 3.7 0 012 2 4 4 0 01-.7 4.1c-.4.4-.8.6-1.3.9a4 4 0 01-1.5.3zm-.3-3.8h.5l-.2-.1a.4.4 0 00-.3 0z"/>
  </g>
  <g>
    <path fill="#00A6CF" d="M310.6 124.7v-3.4h-.6v-.8h.6v-.3c0-.6.1-1 .4-1.3.3-.4.6-.5 1.1-.5.4 0 .7 0 1.1.2l-.2 1a1.4 1.4 0 00-.6-.3c-.4 0-.6.3-.6.9v.3h1v.8h-1v3.4h-1.2z"/>
    <path fill="#FFF" d="M311.8 126.2h-1.2c-.8 0-1.4-.7-1.4-1.5v-2.2c-.4-.3-.6-.7-.6-1.2v-.8c0-.6.2-1 .7-1.3 0-.5.3-.9.6-1.3.5-.6 1.3-1 2.2-1a4 4 0 011.7.4c.7.3 1 1 .8 1.7l-.2.9-.1.3v1.1c0 .7-.5 1.3-1.1 1.5v2c0 .7-.6 1.4-1.4 1.4z"/>
  </g>
  <path d="M29 81.8l.4-4.4 3 .2v.8l-2.2-.2v1.1l1.7.2-.1.7L30 80l-.1 1.8H29zM34.4 79.7h-.7l-.4.5-.2 2-.8-.1.3-3.3h.7v.8a1.5 1.5 0 01.7-.6h.3a58 58 0 00.2 0v.7zM35.5 82.4l-.4-.1a1 1 0 01-.6-.6 1 1 0 01.4-1.1l.5-.2h.5a2.4 2.4 0 01.8.2v-.2l-.1-.5-.5-.2h-.5l-.6.2-.2-.5c.5-.3 1-.3 1.4-.3.5 0 .8.2 1 .4.3.3.4.6.4 1l-.1 1v.3h.1v.7h-.7l-.2-.4V82a1.4 1.4 0 01-1.2.5zm.3-.6h.4l.3-.2.1-.2V81a2.2 2.2 0 00-.6-.2l-.5.1-.2.4v.4l.5.1zM39.1 82.7c-.3 0-.5-.1-.7-.3l-.2-1 .2-2h.8l-.1 1.9c0 .5 0 .7.4.8l.5-.1.4-.4.2-2h.8l-.2 2.3v.2h.2v.8a1.7 1.7 0 01-.4 0l-.4-.1-.1-.3v-.3l-.6.5h-.8zM43.5 83.1l-.7-.1a1.6 1.6 0 01-.8-1v-.7-.6a1.6 1.6 0 011-.8l.8-.1c.2 0 .5 0 .7.2l.5.4.3.6a1.8 1.8 0 010 .9l-2.5-.2v.3a.8.8 0 00.8.5h.4l.4-.3.7.2c-.2.3-.4.5-.7.6-.2.1-.6.2-1 .1zm1-1.8c0-.3 0-.5-.2-.6a.8.8 0 00-.6-.3.8.8 0 00-.6.2l-.2.2v.3l1.6.2zM48.7 83.6l-.8-.1.1-1.8V81l-.4-.2h-.3a1 1 0 00-.5.3l-.1.3-.2 1.9-.8-.1.3-3.3.7.1v.6l.5-.4.8-.1.5.1.3.4v.8l-.1 2zM51.3 83.6l-.4.2h-.5l-.3-.1c-.1 0-.2 0-.3-.2l-.1-.2v-.4l.1-1.9h-.4v-.6h.5v-1h.9l-.1 1 .7.1v.7h-.8l-.1 1.5v.3h.7l.1.6zM53.2 84c-.3 0-.5 0-.7-.2a1.6 1.6 0 01-.8-1v-.6-.6a1.6 1.6 0 011-.8l.8-.1c.2 0 .5 0 .7.2a1.6 1.6 0 01.8 1.6 1.7 1.7 0 01-.5 1.1l-.6.4h-.7zm-.7-1.7v.4l.1.3a.8.8 0 001 .3l.3-.2.2-.3v-.4-.4l-.1-.3a.8.8 0 00-.6-.3h-.3l-.3.2-.2.3-.1.4zM57.6 81.8l-.7.1c-.2 0-.4.2-.5.4l-.2 2-.8-.1.3-3.3.8.1v.7a1.5 1.5 0 01.7-.6h.3a58 58 0 00.1 0v.7zM62.8 84.9l-.8-.1.2-1.8-.1-.6-.4-.2-.4.1a1 1 0 00-.4.5l-.2 1.9-.8-.1.2-1.8-.1-.6-.4-.2-.4.1a1 1 0 00-.4.5l-.2 1.9-.8-.1.3-3.2h.8l-.1.6.5-.4.8-.1.6.2.2.6c.2-.3.4-.4.6-.5l.7-.1.5.1.2.4.1.4v.4l-.2 2zM64.4 85H64a1 1 0 01-.5-.6 1 1 0 010-.9c.2 0 .3-.2.4-.3l.4-.1h.6a2.3 2.3 0 01.8.1v-.1l-.1-.6-.6-.2h-.5l-.5.3-.2-.6c.4-.2.9-.3 1.4-.2.4 0 .8.1 1 .4.3.3.4.6.3 1v1.2l.1.1v.7h-.4l-.4-.1-.1-.3v-.2a1.4 1.4 0 01-1.3.5zm.3-.5h.4l.4-.2.1-.2v-.4a2.2 2.2 0 00-.6-.2l-.5.1c-.2 0-.3.2-.3.4 0 0 0 .2.2.3l.3.2zM68.1 85.4c-.3 0-.6-.2-.7-.4-.2-.2-.2-.5-.2-1l.2-2h.8l-.2 2c0 .4.1.7.5.7h.5l.4-.5.2-2h.8l-.2 2.4v.2h.2v.8a1.7 1.7 0 01-.5 0l-.3-.2-.1-.3V85l-.6.4-.8.1zM72.4 85.8c-.2 0-.5 0-.7-.2A1.6 1.6 0 0171 84c0-.2 0-.5.2-.7a1.6 1.6 0 011-.8h.6c.3 0 .5 0 .7.2.2 0 .4.2.5.4.2.1.3.3.3.5a1.8 1.8 0 010 1l-2.5-.3v.4a.9.9 0 00.8.5h.5c.1-.1.3-.2.3-.4l.7.3-.6.6-1 .1zm1-1.9c0-.2 0-.4-.2-.6a.8.8 0 00-.5-.3.8.8 0 00-.6.2.9.9 0 00-.3.6l1.7.1zM76.8 83.6h-.7l-.5.5-.1 2-.9-.2.3-3.2h.8v.8a1.5 1.5 0 01.7-.6h.3a28.9 28.9 0 01.2 0l-.1.7zM118.5 91.9l1.3-4.2 2.8.9-.2.7-2-.6-.3 1 1.7.6-.3.6-1.6-.5-.6 1.8-.8-.3zM124.2 91l-.7-.1-.6.3-.5 1.9-.8-.3 1-3 .6.1-.2.7a1.5 1.5 0 011-.5h.2l.1.1-.1.7zM124.7 93.8l-.4-.2a1 1 0 01-.4-.7 1 1 0 01.2-.8l.4-.2.4-.1h.6a2.3 2.3 0 01.7.4V92v-.5c0-.2-.2-.3-.5-.3h-1l-.1-.5c.4-.2 1-.2 1.4 0 .4 0 .8.3 1 .6.1.3.2.6 0 1l-.2 1v.2l.1.1-.2.7a2 2 0 01-.3 0 .5.5 0 01-.4-.3v-.5l-.6.3h-.7zm.4-.5h.4l.3-.1.2-.2.1-.4a2 2 0 00-.6-.3h-.5l-.3.3v.4l.4.3zM128.2 94.7c-.3 0-.5-.2-.6-.5-.2-.2-.2-.6 0-1l.4-2 .8.3-.4 1.8c-.1.5 0 .7.3.8h.5c.2 0 .3-.2.5-.3l.5-2 .8.2-.6 2.2v.2l.2.1-.2.7a1.6 1.6 0 01-.4 0 .6.6 0 01-.3-.2l-.1-.3v-.3c-.1.2-.4.3-.6.4h-.8zM132.4 95.8l-.6-.3a1.6 1.6 0 01-.7-1.8l.3-.6a1.6 1.6 0 011-.6h.8c.3 0 .5.1.7.3a1.6 1.6 0 01.6 1 1.8 1.8 0 01-.1 1l-2.5-.6v.3a.9.9 0 00.7.7h.5l.3-.3.7.4c-.2.2-.4.4-.7.4h-1zm1.3-1.8l-.1-.6a.8.8 0 00-.5-.3.8.8 0 00-.7 0 .9.9 0 00-.3.6l1.6.3zM137.5 96.8l-.8-.1.4-1.8v-.6l-.3-.3h-.3l-.3.1-.2.2-.2.2-.4 1.9-.8-.2.7-3.2.7.2-.1.6c.1-.2.3-.3.6-.4h.8l.4.2.3.4v.8l-.5 2zM140.1 97.2H139l-.3-.3v-.6l.3-1.9h-.4v-.7l.5.1.2-1 .8.1-.2 1 .7.2-.1.6-.7-.1-.3 1.6v.2l.2.1h.5v.7zM141.9 97.7l-.7-.2a1.6 1.6 0 01-.7-1v-.7l.2-.6a1.6 1.6 0 011-.8h.8c.2 0 .5.1.7.3a1.6 1.6 0 01.7 1.7 1.8 1.8 0 01-.7 1l-.6.3h-.7zm-.5-1.8v.8a.8.8 0 001 .3l.3-.1.2-.3.1-.4v-.4-.3l-.3-.3a.8.8 0 00-.7 0h-.3l-.2.3-.1.4zM146.4 95.8h-.7l-.5.4-.3 2-.8-.2.5-3.2.8.1-.1.7a1.5 1.5 0 01.8-.5h.3a5.8 5.8 0 00.1 0v.7zM151.5 99h-.8l.2-1.9v-.6l-.4-.2-.5.1a1 1 0 00-.4.5l-.2 1.9-.8-.1.2-1.9v-.5l-.4-.3c-.2 0-.4 0-.5.2a1 1 0 00-.4.4l-.2 1.9-.8-.1.4-3.2h.7v.7c0-.2.3-.4.5-.5h.7c.3 0 .5 0 .6.2l.2.5.6-.4h1.2l.2.4.1.4v.5l-.2 2zM153 99.2l-.4-.1a1 1 0 01-.6-1c0-.2 0-.3.2-.4 0-.2.2-.3.3-.3l.4-.2h.6a2.4 2.4 0 01.8.2v-.2l-.1-.5-.6-.3-.5.1-.5.2-.2-.5c.4-.3.9-.4 1.4-.3.4 0 .8.2 1 .4.3.3.4.6.3 1v1.2l.1.1v.7h-.4l-.4-.1-.1-.3v-.2a1.4 1.4 0 01-1.3.5zm.3-.6h.4l.4-.2.1-.2v-.4a2 2 0 00-.6-.2l-.5.1c-.2.1-.3.2-.3.4l.1.3.4.2zM156.7 99.5c-.4 0-.6-.2-.8-.4l-.2-1 .1-2h.9l-.1 2c0 .4.1.7.5.7l.4-.1.4-.4.1-2h.9l-.2 2.3v.2h.2v.7a1.7 1.7 0 01-.4 0h-.3l-.2-.4V99c-.1.2-.3.4-.6.5h-.7zM161.1 99.7c-.3 0-.5 0-.7-.2a1.6 1.6 0 01-1-1.5c0-.3 0-.5.2-.7a1.6 1.6 0 01.9-.9l.7-.1.7.1.5.4c.2.2.3.3.3.6a1.8 1.8 0 01.1.9h-2.5v.3a.8.8 0 00.8.5c.2 0 .4 0 .5-.2.2 0 .3-.1.3-.3l.7.2c0 .3-.3.5-.5.6-.3.2-.6.3-1 .3zm.9-2l-.3-.6a.8.8 0 00-.6-.2.8.8 0 00-.7.5l-.1.3h1.7zM165.3 97c-.3 0-.5 0-.7.2-.2 0-.3.2-.4.4v2h-.8v-3.2h.7v.6a1.5 1.5 0 01.7-.7h.3a2.6 2.6 0 01.2 0v.7zM115.4 76.1c.2.4.3.8.3 1.3l-.4.8a2 2 0 01-.6.5 2.3 2.3 0 01-1.7.3 2.2 2.2 0 01-1.7-1.6v-1c0-.3.2-.6.4-.9.3-.3.5-.4.9-.5l.3.7c-.2 0-.4.2-.6.4a1.3 1.3 0 00-.3 1c0 .3.2.4.3.5 0 .2.2.3.4.4a1.8 1.8 0 001.1.2c.2 0 .4 0 .5-.2.2 0 .3-.2.4-.3l.2-.5c.1-.4 0-.8-.3-1.3h-.3l-.2.9-.6-.2.3-1.5 2.2.4-.1.7-.5-.1zM114 72.5v.7c0 .2.1.4.3.5l2 .3-.2.9-3.2-.6.1-.8.7.2a1.5 1.5 0 01-.5-.9v-.3-.1l.7.1zM116.7 71.7l-.1.4a1 1 0 01-.7.5 1 1 0 01-.8-.1 1 1 0 01-.3-.4l-.1-.4V71a2.5 2.5 0 01.3-.8h-.2l-.5.1c-.2.1-.3.3-.3.5v.5l.2.6-.6.1c-.2-.4-.2-.9-.2-1.4.1-.4.3-.8.6-1 .2-.2.6-.3 1-.2l1 .2h.2v-.2l.8.1v.4l-.2.3-.3.1h-.2a1.5 1.5 0 01.4 1.3zm-.6-.3V71l-.1-.4-.2-.1h-.4a2.1 2.1 0 00-.2.5v.6l.4.2h.3l.2-.4zM117.3 67.9l-.2.7a2 2 0 01-.5.6l-.5-.3.4-.6.2-.5v-.4l-.3-.2-.3.1-.2.6-.3.5-.2.3-.3.2h-.3a1 1 0 01-.7-.5l-.2-.4v-.5l.2-.7.5-.5.4.4a2 2 0 00-.3.4l-.2.5v.3l.3.2h.2V68l.2-.2.1-.3.3-.5.2-.4.3-.2h.4c.3 0 .5.2.7.5.1.2.2.6 0 1zM117.7 64.5c0 .3 0 .5-.2.7a1.6 1.6 0 01-1.6.8c-.3 0-.5 0-.7-.2a1.6 1.6 0 01-.8-1v-.7l.2-.7a1.6 1.6 0 011-.7 1.8 1.8 0 011 0l-.4 2.5h.4a.8.8 0 00.5-.8V64l-.3-.3.3-.7.5.7c.1.2.2.6.1 1zm-1.8-1l-.6.1-.3.6a.8.8 0 00.7 1l.2-1.7zM115.6 60.2v.6l.5.5 2 .2-.2.9-3.2-.4v-.8l.8.1a1.4 1.4 0 01-.6-.8v-.3-.1h.7zM118.4 58.8l-.2.7a2 2 0 01-.5.7l-.5-.4.4-.5.2-.6-.1-.4-.3-.1-.2.1-.3.5-.2.5-.2.4-.2.2h-.4a1 1 0 01-.7-.4l-.2-.5v-.5c0-.2 0-.4.2-.6 0-.3.2-.4.3-.6l.5.4a2 2 0 00-.3.4l-.1.5v.3l.3.2h.1l.1-.1.1-.2.2-.3.2-.5.2-.4.3-.2h.3c.4 0 .6.1.8.4l.2 1zM118.6 55.7a1.3 1.3 0 01-.6 1l-.5.2a2 2 0 01-1.8-.4 1.4 1.4 0 01-.4-1.1c0-.3 0-.5.2-.7l.5-.4h-.6v-.8l3.1.2.7.2.4.4.3.6v.8c0 .3 0 .6-.2.8-.1.3-.3.5-.5.6l-.5-.5c.2 0 .3-.2.4-.4a1.4 1.4 0 00.2-1s0-.2-.2-.3l-.2-.2a1 1 0 00-.4-.1h-.4l.4.4v.7zm-.7-.4v-.2a1 1 0 00-.3-.5l-.2-.1h-.7a1 1 0 00-.5.3l-.2.4v.4l.2.3.3.2a1.2 1.2 0 00.8 0c.1 0 .2 0 .3-.2l.2-.2.1-.4zM118.8 52.1v.5a1 1 0 01-.6.5 1 1 0 01-.9 0 1 1 0 01-.3-.3l-.2-.5v-.5a2.4 2.4 0 01.2-.8h-.2l-.5.1c-.2.1-.2.3-.2.6v.5l.3.5-.6.2c-.2-.4-.3-.9-.3-1.4 0-.4.2-.8.4-1 .2-.3.6-.4 1-.4h1.2V50h.8v.4l-.1.4-.3.1h-.2a1.4 1.4 0 01.5 1.2zm-.6-.2v-.4c0-.2-.1-.3-.2-.3l-.2-.2h-.4a2.2 2.2 0 00-.2.6c0 .3 0 .4.2.6l.3.2.4-.1.1-.4zM119 48.3l-.1.7-.4.7-.6-.3.4-.6.1-.5v-.4l-.3-.2c-.1 0-.2 0-.3.2l-.2.5-.2.5-.2.4-.2.2h-.3a1 1 0 01-.8-.4l-.2-.4v-.5-.7l.4-.5.5.3a2 2 0 00-.3.5v.8l.3.2h.1l.1-.2.1-.2.1-.3.2-.5.2-.4.3-.2.3-.1c.3 0 .6.1.8.4l.2 1zM119 45.2v.8l-.4.7-.6-.4.4-.5v-.6-.4l-.3-.1-.2.1-.2.6-.2.5-.2.4-.2.2h-.3a1 1 0 01-.8-.4l-.2-.4v-.5-.7l.4-.6.5.4a2 2 0 00-.3.5l-.1.4v.4l.4.1h.1l.1-.1v-.2l.2-.3.2-.6c0-.1 0-.3.2-.4l.2-.2h.4c.3 0 .5 0 .7.3.2.3.3.6.3 1zM119.1 41.8l-.1.7a1.6 1.6 0 01-1 1h-1.2a1.6 1.6 0 01-1-1v-.7-.7l.4-.5.6-.3a1.8 1.8 0 01.9-.1v2.5l.3-.1a.8.8 0 00.5-.8l-.1-.5-.3-.3.2-.7.6.6.2 1zm-2-.8c-.2 0-.4.1-.5.3-.2.1-.3.3-.3.5a.8.8 0 00.3.6l.2.2h.4V41zM126.1 15.8l.2-4.4h.8v2.2l1.9-2.1h.9l-1.7 2 1.7 2.4h-1l-1.3-2-.6.6V16h-.9zM130.2 11.4h.8v3.5l.1.3H131.7l.1.6-.4.1h-.4l-.6-.1-.2-.6v-3.8zM133 16h-.4a1 1 0 01-.7-1l.1-.5.3-.3.4-.2.6-.1a2.4 2.4 0 01.8.1v-.2c0-.2 0-.3-.2-.5l-.6-.1h-.5l-.5.4-.2-.6c.4-.2.8-.4 1.3-.4s.8.1 1.1.3c.3.3.4.6.4 1v1.2h.2v.8h-.7l-.2-.3v-.2a1.5 1.5 0 01-1.2.6zm.3-.6l.4-.1.3-.2v-.6a2.1 2.1 0 00-.6-.1l-.5.1-.2.4c0 .1 0 .2.2.3l.4.2zM137.5 13.3l-.6.1-.5.5.1 2h-.8l-.1-3.3h.7v.7a1.4 1.4 0 01.5-.6l.3-.1h.4v.7zM139 15.8h-.5a1 1 0 01-.6-.6 1 1 0 010-.8c0-.1 0-.3.2-.3l.4-.3h.6a2.4 2.4 0 01.8 0v-.2l-.2-.5-.6-.1-.5.1c-.2 0-.3.2-.5.3l-.3-.5c.4-.3.9-.5 1.3-.5.5 0 .9 0 1.2.3.2.2.4.5.4 1v1l.1.2h.2v.7h-.7l-.2-.3v-.1l-.5.4-.7.2zm.1-.6l.4-.1.3-.2.1-.3v-.3l-.3-.1h-.4l-.5.1-.2.4.2.4h.4zM142.8 15.5a1.3 1.3 0 01-1-.4l-.4-.5-.2-.6v-.7l.4-.5a1.4 1.4 0 011.7-.5l.5.4v-.6h.7l.2 3v.7l-.4.5-.6.4-.7.2a2 2 0 01-.9-.1l-.6-.5.4-.5c.1.2.3.3.5.3a1.4 1.4 0 001 0l.3-.1.1-.3v-.9c0 .2-.2.4-.4.5l-.6.2zm.2-.7h.3a1 1 0 00.4-.4l.1-.2v-.8a1 1 0 00-.4-.4.8.8 0 00-.6-.1h-.3l-.2.3-.2.4v.3a1 1 0 00.3.7l.3.2h.3zM146.3 15.2h-.4a1 1 0 01-.7-.5 1 1 0 010-.8l.2-.4.4-.2.6-.2a2.3 2.3 0 01.8 0c0-.3-.1-.5-.3-.6h-1l-.5.4-.3-.5c.4-.3.8-.5 1.3-.6.5 0 .8 0 1.1.3.3.2.5.5.5 1l.1 1v.1h.2l.1.7-.3.1h-.4l-.2-.3v-.2l-.5.5-.7.2zm.2-.6l.4-.1.3-.2v-.7a2 2 0 00-.6 0c-.2 0-.4 0-.5.2-.2 0-.2.2-.2.4 0 .1 0 .2.2.3l.4.1zM150.2 14.8h-.8a2 2 0 01-.7-.3l.2-.6.6.3h.6l.4-.1v-.3l-.1-.3h-.6l-.5-.2-.4-.1a.6.6 0 01-.2-.2l-.2-.3v-.5l.3-.4.4-.2.5-.2h.7l.6.3-.3.6a2 2 0 00-.5-.2h-.5-.3l-.1.4.2.2h.5l.6.2.4.1.2.3.2.3c0 .3 0 .6-.3.8-.2.2-.5.3-1 .4zM153.2 14.4h-.8a2 2 0 01-.7-.3l.2-.6.7.2h.9l.1-.4s0-.2-.2-.2h-.6l-.5-.2-.4-.1a.6.6 0 01-.2-.2l-.2-.3v-.5l.3-.3c0-.2.2-.2.4-.3l.5-.2h.6c.3 0 .5.2.7.3l-.3.5a2 2 0 00-.5-.2h-.5c-.1 0-.2 0-.3.2l-.1.3.2.2h.5l.6.1.4.2.3.2v.3c.1.4 0 .6-.2.8-.2.3-.5.4-.9.5zM156.5 13.8h-.7a1.6 1.6 0 01-1.2-1.3v-.7a1.6 1.6 0 01.7-1c.2-.2.4-.3.7-.3h.7a1.6 1.6 0 011 .8l.2.6v.2l-2.4.5.1.3a.8.8 0 00.5.3h.4c.1 0 .3 0 .4-.2l.2-.3h.8l-.5.7c-.2.2-.5.4-.9.4zm.5-2c0-.3-.2-.5-.3-.6a.8.8 0 00-.7-.1.8.8 0 00-.5.3l-.1.3v.3l1.6-.3zM156 78.7l-.6 4.4-.9-.1.3-1.9-2-.3-.2 1.9-.9-.1.6-4.4.9.1-.3 1.8 2 .3.3-1.8.8.1zM156.2 83.2l.5-3.2.8.1-.5 3.2h-.8zm.5-3.7l.1-.8.9.1-.1.9-.9-.2zM160.8 83.9l-.9-.2.3-1.8v-.6l-.4-.2h-.3l-.2.1-.3.2-.1.3-.3 1.8h-.8l.4-3.3.8.1-.1.6c.1-.2.3-.3.6-.4.2 0 .5-.1.8 0l.4.1c.2.1.2.2.3.4v.8l-.2 2zM163.4 84l-.4.1h-.8a.7.7 0 01-.4-.4v-.5l.2-1.8h-.4v-.7h.5l.2-1 .8.1-.2 1 .7.2v.6h-.8l-.2 1.5v.2l.3.1h.4l.1.7zM165.2 84.5c-.2 0-.5 0-.7-.2a1.6 1.6 0 01-.7-1.6c0-.3 0-.5.2-.7a1.6 1.6 0 011-.8h.7l.7.2.5.5.2.6a1.8 1.8 0 010 .9l-2.5-.4v.4a.8.8 0 00.7.5h.5c.2 0 .3-.2.4-.3l.6.3c-.1.2-.3.4-.6.5-.3.2-.6.2-1 .1zm1.1-1.8c0-.2 0-.4-.2-.6a.8.8 0 00-.5-.3.8.8 0 00-1 .7l1.7.2zM169.7 82.6h-.7c-.2 0-.4.2-.5.4l-.3 2-.8-.2.5-3.2h.7v.8a1.5 1.5 0 01.8-.6h.2a2.4 2.4 0 01.2 0l-.1.8zM171.1 85.4l-.7-.2a1.6 1.6 0 01-.7-1.7c0-.2 0-.4.2-.6a1.6 1.6 0 011-.8h.7c.3 0 .5 0 .7.2l.5.4.2.6a1.8 1.8 0 010 1l-2.5-.4v.3a.8.8 0 00.7.6h.5l.4-.3.7.3-.7.5h-1zm1.1-1.8l-.1-.7a.8.8 0 00-.6-.3.8.8 0 00-1 .7l1.7.3zM178 83l-.2-.1a2 2 0 00-.6-.4h-.9c-.1 0-.2.1-.2.3v.2c0 .1 0 .2.2.2l.3.2a11.8 11.8 0 001 .4l.3.3a1 1 0 01.3 1l-.2.5-.4.4-.6.1h-.6a3.3 3.3 0 01-1.8-.8l.5-.7.2.2a3 3 0 00.7.4l.5.2c.5 0 .7 0 .8-.4v-.2l-.3-.2-.3-.2a46 46 0 00-1.3-.8l-.2-.3v-.5c0-.2 0-.4.2-.6l.4-.3.5-.2h.7l.8.2.6.5-.5.6zM180.5 86.5h-1-.3a.7.7 0 01-.4-.4v-.4l.3-1.9h-.4V83h.5l.1-1 .8.2-.1 1h.7l-.1.7h-.7l-.2 1.5v.3h.7v.7zM182.3 87c-.3 0-.5-.1-.7-.3a1.6 1.6 0 01-.7-1v-.6l.1-.7a1.6 1.6 0 011-.7c.3 0 .5-.1.8 0 .2 0 .5 0 .7.2.2 0 .3.2.4.4l.3.6a1.8 1.8 0 010 .9l-2.5-.4v.4a.8.8 0 00.7.6h.5c.2-.1.3-.2.3-.4l.7.3c-.1.3-.4.4-.6.6h-1zm1.1-1.8c0-.3 0-.5-.2-.7a.8.8 0 00-.5-.3.8.8 0 00-.8.4l-.2.3 1.7.3zM186.8 85h-.7l-.5.4-.3 2-.8-.2.4-3.2.8.1v.7a1.5 1.5 0 01.7-.6h.3a4.7 4.7 0 00.2 0l-.1.8zM189.9 88l-.9-.1.3-1.8v-.6c-.1-.2-.2-.2-.4-.3h-.3l-.2.2-.3.1-.1.3-.3 1.9-.8-.1.4-3.3.8.1-.1.6.6-.4h.8c.2 0 .3 0 .4.2.2 0 .2.2.3.3v.9l-.2 2zM191.8 88.3a1.3 1.3 0 01-1-.6l-.2-.6v-.6l.2-.7.4-.5a1.4 1.4 0 011.8 0l.4.5v-.6l.8.1-.4 3a1.5 1.5 0 01-.7 1.1l-.6.2h-.7a2 2 0 01-.9-.3l-.6-.5.6-.4c0 .2.2.3.4.4a1.4 1.4 0 001 .2h.3l.2-.3.1-.4.1-.4-.5.3h-.7zm.4-.6h.3a1 1 0 00.6-.5l.1-.7a1 1 0 00-.3-.5.8.8 0 00-.5-.3h-.3l-.3.2-.2.3-.1.4v.4a1 1 0 00.4.5l.3.2zM195.4 88.8l-.5-.1a1 1 0 01-.5-.6 1 1 0 01.2-.9l.3-.2.5-.2h.5a2.5 2.5 0 01.8.3v-.2l-.1-.5c-.1-.2-.3-.3-.5-.3h-.5l-.6.2-.2-.5 1.4-.3c.5.1.9.3 1 .5.3.3.4.7.3 1l-.1 1v.3h.1v.8h-.4l-.4-.2v-.5a1.5 1.5 0 01-1.3.4zm.3-.5h.4l.3-.2.2-.2v-.4a2 2 0 00-.6-.2h-.6l-.2.4.1.4.4.2zM199.2 89.4l-.8-.3a2 2 0 01-.6-.4l.4-.5.5.4.6.2h.4l.2-.3c0-.1 0-.2-.2-.3l-.5-.2a7 7 0 01-.5-.3l-.3-.2a.6.6 0 01-.2-.6c0-.2 0-.3.2-.4l.3-.3.4-.2h.5l.7.2.5.4-.4.5a2 2 0 00-.4-.3l-.5-.2h-.3l-.2.3V87.2h.3l.3.2.5.2.4.3.2.3v.3c0 .4-.2.6-.5.7-.2.2-.6.2-1 .2zM202.3 89.8l-.8-.2a2 2 0 01-.6-.5l.4-.5.5.4.5.2h.4l.2-.3-.1-.2-.5-.3-.5-.2-.4-.3a.6.6 0 01-.2-.6l.2-.4.3-.3.5-.1h.5c.2 0 .4 0 .6.2.2 0 .4.2.6.4l-.4.4a2 2 0 00-.5-.3l-.4-.2h-.4l-.2.3v.2h.1l.2.2.3.1.6.3.3.2.2.3v.4c0 .3-.2.5-.4.7-.3.1-.6.2-1 .1zM205.6 90.3l-.7-.2a1.6 1.6 0 01-.8-1.7l.3-.6a1.6 1.6 0 011-.8h.7c.3 0 .5 0 .7.2l.5.4.2.6a1.8 1.8 0 010 1l-2.5-.4v.3l.2.3.2.2h.8l.4-.2.6.3c-.1.2-.3.4-.6.5h-1zm1.1-1.8c0-.3 0-.5-.2-.7a.8.8 0 00-.5-.3.8.8 0 00-.8.4l-.1.3 1.6.3z"/>
  <path fill="#00A6CF" d="M12.6 112.3l-1.2-.3a3 3 0 01-1.5-1.7 3.2 3.2 0 01.6-3.3 3 3 0 012.1-1c.5 0 .9.2 1.2.4.4.1.7.4 1 .7a3.3 3.3 0 01.8 2 3 3 0 01-1.8 3l-1.2.2zm-1.8-3.1c0 .2 0 .5.2.7 0 .3.2.5.3.7l.6.4c.2.2.4.2.7.2a1.6 1.6 0 001.3-.6l.4-.7a2.4 2.4 0 000-1.5c-.1-.2-.2-.5-.4-.6l-.5-.5-.8-.2a1.6 1.6 0 00-1.3.7l-.3.6-.2.8zM19 112.3c-.3 0-.6 0-.8-.2l-.7-.7v2.6h-1.1v-6.3h1v.8l.6-.6c.3-.2.6-.3 1-.3a2 2 0 011.4.7l.5.8.1.9-.1.9-.4.7-.6.5-.8.2zm-.3-1h.5l.3-.4.3-.4a1.6 1.6 0 000-1c0-.2-.2-.4-.3-.5a1.2 1.2 0 00-.9-.4 1.2 1.2 0 00-1 .5v1.3c0 .3.2.5.4.7l.7.2zM24 112.3c-.5 0-.8 0-1-.2a2.2 2.2 0 01-1.5-2.1c0-.3 0-.6.2-1a2.2 2.2 0 011.2-1.2l1-.2 1 .2.7.5.5.8a2.5 2.5 0 01.1 1.2h-3.4v.5a1.2 1.2 0 001.2.7c.2 0 .4 0 .6-.2l.4-.4 1 .2a2 2 0 01-.8.9c-.4.2-.8.3-1.3.3zm1-2.7c0-.3 0-.6-.3-.8-.2-.2-.5-.3-.8-.3a1.2 1.2 0 00-.8.3 1.2 1.2 0 00-.4.8h2.4zM29.6 108.7c-.3 0-.6 0-.9.2-.3.1-.5.3-.6.6v2.7H27v-4.5h1v1a2 2 0 011-1h.6v1zM34.5 112.2h-1.2v-2.5c0-.4 0-.6-.2-.8a.6.6 0 00-.5-.2 1 1 0 00-.4 0l-.3.2-.3.3-.2.4v2.6h-1.1v-4.5h1v.9c.2-.3.4-.6.7-.7.4-.2.7-.3 1.1-.3l.7.2.4.4.2.6v3.4zM39.6 112.2h-1.1v-2.5c0-.4 0-.6-.2-.8a.7.7 0 00-.6-.2h-.3l-.3.2-.3.3-.2.4v2.6h-1.1V106h1.1v2.6c.2-.3.4-.6.7-.7a1.9 1.9 0 011.6-.1l.5.4.2.6v3.4zM41.9 112.3l-.6-.1a1.4 1.4 0 01-.8-.8 1.4 1.4 0 010-1.1c0-.2.2-.3.4-.5l.6-.3h.8a3.4 3.4 0 011 .1v-.2c0-.3 0-.6-.2-.7-.2-.2-.4-.3-.8-.3a2 2 0 00-.7.2l-.7.4-.3-.8c.6-.4 1.2-.6 1.9-.6.6 0 1.1.2 1.5.5.3.3.5.8.5 1.4v1.7h.3v1h-1a.6.6 0 01-.3-.5v-.2a2 2 0 01-1.6.8zm.3-.8l.6-.1.4-.3.1-.3v-.6a2.9 2.9 0 00-.9-.1c-.3 0-.5 0-.7.2-.2.1-.3.3-.3.5s.1.3.3.5l.5.2zM47 112.3c-.5 0-.9-.1-1.1-.4-.3-.3-.4-.8-.4-1.4v-2.8h1.2v2.6c0 .7.2 1 .7 1 .2 0 .5 0 .7-.2.2-.1.4-.3.5-.6v-2.8h1.1v3.2l.1.3h.2v1a2.7 2.7 0 01-.5 0H49a.6.6 0 01-.2-.5v-.3a2 2 0 01-.8.7l-1 .2zM52.6 112.3c-.4 0-.8 0-1.1-.2-.4 0-.7-.3-1-.5l.5-.7.8.4.7.2.6-.1.2-.4c0-.2 0-.3-.2-.4l-.8-.2-.7-.3c-.3 0-.4-.1-.5-.2a.9.9 0 01-.3-.3l-.1-.5.1-.6.4-.5.6-.3h1.7l.7.6-.4.7-.7-.4-.6-.1a1 1 0 00-.5 0c-.2.2-.2.3-.2.5v.2h.2l.2.2.4.1.8.3.6.2.3.4v.5c0 .4 0 .8-.4 1-.3.3-.8.4-1.3.4zM213.8 120.8v4h-1.2v-6.2h1l3.1 4v-4h1.2v6.1h-1l-3-3.9zM220.4 124.8c-.4 0-.8-.1-1-.4-.3-.3-.4-.8-.4-1.4v-2.8h1.2v2.6c0 .7.2 1 .7 1 .2 0 .4 0 .7-.2l.5-.6v-2.8h1.1v3.5h.3v1a2.5 2.5 0 01-.5 0h-.5a.6.6 0 01-.2-.5v-.3a2 2 0 01-.8.7l-1 .2zm-.6-5.3v-1h1v1h-1zm1.7 0v-1h1v1h-1zM227 121.2l-.9.2c-.3.2-.5.3-.6.6v2.7h-1.1v-4.5h1v1a2 2 0 011-1h.6v1zM231.9 124.7h-1.2v-2.5c0-.4 0-.6-.2-.8a.6.6 0 00-.5-.2 1 1 0 00-.4 0l-.3.2-.3.3-.2.4v2.6h-1.1v-4.5h1v.9l.7-.7c.4-.2.7-.2 1.1-.2l.7.1.4.4.2.6v3.4zM235.4 124.8c-.3 0-.6 0-.9-.2-.3-.2-.5-.4-.6-.7v.8h-1v-6.2h1.1v2.5l.6-.6c.3-.2.6-.2 1-.2l.8.1.6.5.4.8a2.9 2.9 0 010 1.8l-.5.7a2 2 0 01-.6.5 2 2 0 01-.9.2zm-.3-1a1.2 1.2 0 001.2-.8v-.5-.5l-.3-.5-.4-.3a1 1 0 00-1.2.1l-.4.7v1l.2.4a1.3 1.3 0 00.6.4h.3zM240.4 124.8c-.4 0-.7 0-1-.2a2.2 2.2 0 01-1.4-2.1c0-.3 0-.6.2-.9a2.2 2.2 0 011.2-1.3l1-.1 1 .1.7.5.5.8a2.5 2.5 0 01.1 1.2h-3.5l.2.5a1.2 1.2 0 001 .7c.3 0 .5 0 .7-.2l.4-.4 1 .2a2 2 0 01-.8.9c-.4.2-.8.3-1.3.3zm1.2-2.7c0-.3-.2-.6-.4-.8-.2-.2-.5-.3-.8-.3a1.1 1.1 0 00-1 .6l-.2.5h2.4zM246.1 121.2l-1 .2c-.2.2-.4.3-.5.6v2.7h-1.2v-4.5h1.1v1a2 2 0 011-1h.6v1zM248.3 124.8a1.9 1.9 0 01-1.5-.7l-.4-.7-.1-1a2.6 2.6 0 01.6-1.6 2 2 0 012.4-.4l.6.6v-.8h1v4.3l-.1.9a2 2 0 01-.6.7l-.8.4-1 .1c-.4 0-.9 0-1.2-.2l-.9-.7.7-.6.6.5a2 2 0 001.4.1l.4-.2.3-.4v-1.2c0 .3-.3.5-.5.6l-.9.3zm.4-1h.3a1.3 1.3 0 00.6-.4l.2-.3v-1c-.1-.4-.3-.6-.5-.7-.2-.2-.4-.3-.7-.3a1 1 0 00-.5.1l-.3.4-.3.4v.5a1.4 1.4 0 00.3 1l.4.2.5.1zM259.3 118.6v6.1H258v-2.6h-2.8v2.6h-1.2v-6h1.2v2.4h2.8v-2.5h1.2zM261.6 124.8h-.6a1.5 1.5 0 01-.8-.8 1.4 1.4 0 010-1.2l.4-.5.6-.3h.8a3.4 3.4 0 011 .1v-.2c0-.3 0-.5-.2-.7-.1-.2-.4-.2-.7-.2a2 2 0 00-.7 0l-.7.5-.4-.8c.6-.4 1.2-.5 1.9-.5.6 0 1.1.1 1.5.4.4.3.5.8.5 1.4v1.4l.1.3h.2v1h-1a.6.6 0 01-.2-.4v-.3a2 2 0 01-1.7.8zm.3-.8l.6-.1.4-.3.2-.3v-.5a2.7 2.7 0 00-1-.2c-.2 0-.5 0-.7.2l-.2.5c0 .2 0 .3.2.5l.5.2zM266.7 124.8c-.5 0-.8-.1-1-.4-.3-.3-.4-.8-.4-1.4v-2.8h1.1v2.6c0 .7.3 1 .8 1 .2 0 .4 0 .6-.2.2-.1.4-.3.5-.6v-2.8h1.2v3.5h.2v1a2.5 2.5 0 01-.5 0h-.5a.6.6 0 01-.2-.5v-.3a2 2 0 01-.8.7l-1 .2zM273.3 124.8c-.3 0-.7 0-1-.2l-.5-.7v2.7h-1.2v-6.4h1v.8c.2-.3.4-.5.7-.6.2-.2.5-.2.9-.2l.8.1.7.5.4.8.2.9c0 .3 0 .6-.2.9 0 .3-.2.5-.4.7a2 2 0 01-.6.5c-.2.2-.5.2-.8.2zm-.4-1h.5l.4-.4a1.5 1.5 0 00.3-1l-.1-.5-.3-.4a1.2 1.2 0 00-.8-.4 1.2 1.2 0 00-.7.2l-.3.3-.1.3v1c0 .3.2.5.4.7.2.2.5.2.7.2zM278.7 124.5l-.6.2-.7.1h-.4a1 1 0 01-.6-.5l-.2-.6v-2.6h-.5v-.9h.5v-1.4h1.2v1.4h1v1h-1v2.1l.1.3.3.1h.4l.3-.1.2.9zM281.8 124.8c-.3 0-.6 0-.9-.2-.2-.2-.5-.4-.6-.7v.8h-1v-6.2h1.1v2.5c.2-.3.4-.5.7-.6.2-.2.5-.2.9-.2l.8.1.6.5.4.8a2.9 2.9 0 010 1.8l-.5.7a2 2 0 01-.6.5 2 2 0 01-.9.2zm-.3-1a1.2 1.2 0 001-.4l.2-.4v-.5-.5c0-.2-.2-.3-.3-.5l-.3-.3a1 1 0 00-1.2.1l-.5.7v1l.2.4a1.3 1.3 0 00.6.4h.3zM286 124.8h-.7a1.5 1.5 0 01-.8-.8 1.4 1.4 0 010-1.2l.5-.5.6-.3h.7a3.3 3.3 0 011.1.1v-.2c0-.3 0-.5-.2-.7-.2-.2-.4-.2-.8-.2a2 2 0 00-.7 0l-.7.5-.3-.8c.5-.4 1.2-.5 1.8-.5.7 0 1.2.1 1.5.4.4.3.6.8.6 1.4v1.7h.3v1h-1.1a.6.6 0 01-.2-.4v-.3a2 2 0 01-1.6.8zm.3-.8l.5-.1.4-.3c.2-.1.2-.2.2-.3v-.5a2.7 2.7 0 00-.9-.2c-.3 0-.5 0-.7.2-.2.1-.3.3-.3.5s0 .3.2.5l.6.2zM293.8 124.7h-1.1v-2.5c0-.4 0-.6-.2-.8a.7.7 0 00-.6-.2h-.3l-.3.2-.3.3-.2.4v2.6h-1.2v-6.2h1.2v2.6c.2-.3.4-.6.7-.7a2 2 0 011.6-.1l.5.4.2.6v3.4zM299 124.7H298v-2.5l-.2-.8a.6.6 0 00-.6-.2 1 1 0 00-.3 0l-.3.2-.3.3-.2.4v2.6h-1.2v-4.5h1v.9l.8-.7c.3-.2.7-.2 1-.2l.7.1.5.4.2.6v3.4zM304.2 124.7H303v-2.5c0-.4 0-.6-.2-.8a.7.7 0 00-.5-.2h-.3l-.4.2-.2.3-.2.4v2.6H300v-6.2h1.2v2.6c.1-.3.4-.6.6-.7a1.9 1.9 0 011.7-.1l.4.4.2.6v3.4zM307.3 124.8c-.4 0-.7 0-1-.2a2.2 2.2 0 01-1.2-1.2 2.4 2.4 0 010-1.8 2.3 2.3 0 012.2-1.4l1 .1a2.2 2.2 0 011.2 1.3 2.4 2.4 0 01-.5 2.5l-.7.5-1 .2zm-1.2-2.3v.5l.3.5a1.1 1.1 0 001.7 0l.3-.5v-.5-.6l-.3-.4a1.1 1.1 0 00-.8-.4 1 1 0 00-.5.1l-.4.3-.2.4-.1.6zM310.6 124.7v-3.4h-.6v-.8h.6v-.3c0-.6.1-1 .4-1.3.3-.4.6-.5 1.1-.5.4 0 .7 0 1.1.2l-.2 1a1.4 1.4 0 00-.6-.3c-.4 0-.6.3-.6.9v.3h1v.8h-1v3.4h-1.2z"/>
</svg>
